<?xml version="1.0" encoding="utf-8"?>
<!-- Generator: Adobe Illustrator 22.0.0, SVG Export Plug-In . SVG Version: 6.00 Build 0)  -->
<svg version="1.1" id="图层_1" xmlns="http://www.w3.org/2000/svg" xmlns:xlink="http://www.w3.org/1999/xlink" x="0px" y="0px"
	 viewBox="0 0 71 71" style="enable-background:new 0 0 71 71;" xml:space="preserve">
<style type="text/css">
	.st0{opacity:0.2;fill:#404041;}
	.st1{fill:#250920;}
	.st2{fill:#40363B;}
	.st3{fill:#4E444A;}
	.st4{fill:#BBBDBF;}
	.st5{fill:#929497;}
	.st6{fill:#D0D2D3;}
	.st7{fill:#3A3D3F;}
	.st8{fill:#3C3E4A;}
	.st9{fill:#838383;}
	.st10{fill:#A4A7A9;}
	.st11{fill:#808080;}
	.st12{fill:#32343F;}
	.st13{fill:#FCFDFF;}
	.st14{fill:#D3D3D3;}
	.st15{fill:#E0E4E4;}
	.st16{fill:#D68E31;}
	.st17{fill:#70565D;}
	.st18{fill:#FBB456;}
	.st19{fill:#E39D3A;}
	.st20{enable-background:new    ;}
	.st21{fill:#4F565B;}
	.st22{fill:#E6E7E8;}
	.st23{fill-rule:evenodd;clip-rule:evenodd;fill:#F1F1F2;}
	.st24{fill:#F6921E;}
	.st25{fill:#96999B;}
	.st26{opacity:0.2;fill:#FFFFFF;}
</style>
<g>
	<g>
		<polygon class="st0" points="22.2,69.4 0.5,56.6 49.9,27.8 71.6,40.6 		"/>
		<g>
			<polygon class="st1" points="35.6,53.7 67.4,35.6 65.7,34.2 35.6,52.1 			"/>
			<polygon class="st1" points="68.4,36.9 65.3,35 68.4,33.2 			"/>
			<g>
				<g>
					<path class="st2" d="M59.8,46.9C59.8,46.9,59.8,46.8,59.8,46.9c-0.1-0.1-0.1-0.1-0.1-0.1c0,0,0,0,0,0c0,0-0.1-0.1-0.1-0.1
						c0,0,0,0,0,0c0,0-0.1-0.1-0.1-0.1c0,0,0,0,0,0c0,0-0.1-0.1-0.1-0.1c0,0,0,0,0,0c0-0.1-0.1-0.1-0.1-0.2c0-0.1-0.1-0.1-0.1-0.2
						c0,0,0,0,0,0c0,0,0-0.1-0.1-0.1c0,0,0,0,0,0c0,0,0-0.1,0-0.1c0,0,0-0.1,0-0.1c0,0,0-0.1,0-0.1c0,0,0-0.1,0-0.1c0,0,0-0.1,0-0.1
						c0,0,0-0.1,0-0.1c0,0,0-0.1,0-0.1c0,0,0-0.1,0-0.1c0,0,0-0.1,0-0.1c0,0,0-0.1,0-0.1c0-0.1,0-0.1,0-0.2c0,0,0,0,0-0.1
						c0-0.1,0-0.2,0-0.2c0-0.1,0-0.2,0-0.2c0,0,0-0.1,0-0.1c0-0.1,0-0.1,0-0.2c0,0,0-0.1,0-0.1c0-0.1,0-0.1,0-0.2c0,0,0,0,0-0.1
						c0-0.1,0-0.2,0-0.2c0,0,0,0,0,0c0-0.1,0-0.1,0-0.2c0,0,0-0.1,0-0.1c0-0.1,0-0.1,0-0.2c0,0,0-0.1,0-0.1c0-0.1,0-0.1,0-0.2
						c0,0,0-0.1,0-0.1c0-0.1,0-0.1,0-0.2c0,0,0-0.1,0-0.1c0-0.1,0.1-0.2,0.1-0.3c0,0,0,0,0,0c0-0.1,0.1-0.2,0.1-0.2c0,0,0-0.1,0-0.1
						c0-0.1,0-0.1,0.1-0.2c0,0,0-0.1,0-0.1c0-0.1,0.1-0.1,0.1-0.2c0,0,0,0,0-0.1c0-0.1,0.1-0.2,0.1-0.2c0,0,0,0,0-0.1
						c0-0.1,0.1-0.1,0.1-0.2c0,0,0-0.1,0.1-0.1c0,0,0-0.1,0.1-0.1c0.1-0.1,0.1-0.2,0.2-0.3c0,0,0-0.1,0.1-0.1c0,0,0.1-0.1,0.1-0.1
						c0,0,0.1-0.1,0.1-0.1c0,0,0.1-0.1,0.1-0.1c0,0,0-0.1,0.1-0.1c0.1-0.1,0.2-0.2,0.2-0.4c0,0,0,0,0,0c0.1-0.1,0.1-0.2,0.2-0.2
						c0-0.1,0.1-0.1,0.1-0.2c0,0,0,0,0,0c0.1-0.1,0.1-0.1,0.2-0.2c0,0,0,0,0.1-0.1c0,0,0.1-0.1,0.1-0.1c0,0,0.1-0.1,0.1-0.1
						c0,0,0.1-0.1,0.1-0.1c0,0,0.1-0.1,0.1-0.1c0,0,0.1-0.1,0.1-0.1c0,0,0.1-0.1,0.1-0.1c0,0,0.1-0.1,0.1-0.1c0,0,0.1-0.1,0.1-0.1
						c0,0,0.1-0.1,0.1-0.1c0,0,0.1,0,0.1-0.1c0,0,0.1-0.1,0.1-0.1c0,0,0.1,0,0.1-0.1c0,0,0.1-0.1,0.1-0.1c0,0,0,0,0.1-0.1
						c0.1,0,0.1-0.1,0.2-0.1c0,0,0,0,0,0c0.1,0,0.1-0.1,0.2-0.1c0.1,0,0.1-0.1,0.2-0.1c0,0,0,0,0.1,0c0,0,0.1,0,0.1-0.1
						c0,0,0,0,0.1,0c0.1,0,0.1-0.1,0.2-0.1c0.1,0,0.1-0.1,0.2-0.1c0,0,0,0,0.1,0c0,0,0.1,0,0.1,0c0,0,0.1,0,0.1,0c0,0,0.1,0,0.1,0
						c0,0,0.1,0,0.1,0c0,0,0.1,0,0.1,0c0,0,0.1,0,0.1,0c0,0,0.1,0,0.1,0c0,0,0.1,0,0.1,0c0,0,0.1,0,0.1,0c0,0,0.1,0,0.1,0
						c0.1,0,0.1,0,0.2,0c0,0,0,0,0,0c0.1,0,0.1,0,0.1,0c0,0,0,0,0,0c0.1,0,0.1,0,0.2,0c0,0,0,0,0,0c0,0,0.1,0,0.1,0c0,0,0,0,0.1,0
						c0,0,0.1,0,0.1,0c0,0,0.1,0,0.1,0c0,0,0,0,0.1,0c0.1,0,0.1,0.1,0.2,0.1c0,0-4.2-2.4-4.2-2.4c-0.1,0-0.1-0.1-0.2-0.1
						c0,0,0,0-0.1,0c-0.6-0.3-1.3-0.2-2,0c-0.6,0.2-1.2,0.6-1.7,1c0,0,0,0,0,0c0,0-0.1,0-0.1,0.1c-1.9,1.6-3.2,4-3.4,6.5
						c-0.1,0.8,0,1.8,0.5,2.5c0,0,0,0,0,0c0,0,0,0,0,0c0,0,0,0.1,0.1,0.1c0,0,0,0,0,0c0,0,0,0.1,0.1,0.1c0,0,0,0,0,0
						c0,0,0.1,0.1,0.1,0.1c0,0,0,0,0,0c0,0,0.1,0.1,0.1,0.1c0,0,0,0,0,0c0,0,0.1,0,0.1,0.1c0,0,0,0,0,0c0,0,0.1,0.1,0.1,0.1L60,47
						c0,0-0.1-0.1-0.1-0.1C59.9,47,59.9,46.9,59.8,46.9C59.8,46.9,59.8,46.9,59.8,46.9z"/>
					<g>
						<path class="st3" d="M63.1,36.6c-2.4,1.4-4.4,4.8-4.4,7.6c0,2.8,2,3.9,4.4,2.5c2.4-1.4,4.4-4.8,4.4-7.6
							C67.5,36.4,65.6,35.2,63.1,36.6z"/>
					</g>
				</g>
				<g>
					<g>
						<path class="st4" d="M63.3,38.6c-1.5,0.9-2.7,2.9-2.9,4.7c0,0.1,0,0.2,0,0.3c0,1.8,1.3,2.6,2.9,1.6c1.6-0.9,2.9-3.1,2.9-5
							c0-0.1,0-0.2,0-0.3C66,38.3,64.8,37.7,63.3,38.6z"/>
					</g>
					<g>
						<path class="st5" d="M63.3,39.5c-1.1,0.6-2,2.1-2.1,3.4c0,0.1,0,0.2,0,0.2c0,1.3,0.9,1.9,2.1,1.2c1.2-0.7,2.1-2.3,2.1-3.6
							c0-0.1,0-0.2,0-0.2C65.3,39.3,64.4,38.9,63.3,39.5z"/>
					</g>
					<path class="st6" d="M65.4,40.5c-0.1-1-0.7-1.4-1.6-1.2c0.6,0,1.1,0.4,1.2,1.3c0,0.1,0,0.1,0,0.2c0,1.3-0.9,2.9-2.1,3.6
						c-0.2,0.1-0.4,0.2-0.5,0.2c0.3,0,0.6-0.1,0.9-0.3c1.2-0.7,2.1-2.3,2.1-3.6C65.4,40.6,65.4,40.5,65.4,40.5z"/>
					<g>
						<path class="st7" d="M64.1,42.2c0.1,0,0.1,0,0.2,0c0.1,0.1,0.1,0.2,0,0.4c0,0.1-0.1,0.1-0.2,0.2c-0.1,0-0.1,0-0.2,0
							c-0.1-0.1-0.1-0.2,0-0.4C64,42.3,64,42.2,64.1,42.2z"/>
						<path class="st7" d="M63.2,41.3c0.3-0.2,0.5,0,0.5,0.3c0,0.3-0.2,0.8-0.5,0.9c-0.3,0.2-0.5,0-0.5-0.3
							C62.6,41.9,62.9,41.5,63.2,41.3z"/>
						<path class="st7" d="M63.2,43.1c0.1-0.1,0.2,0,0.2,0.1c0,0.1-0.1,0.3-0.2,0.4c-0.1,0.1-0.2,0-0.2-0.1
							C62.9,43.4,63,43.2,63.2,43.1z"/>
						<path class="st7" d="M62.2,43.2c0.1,0,0.1,0,0.2,0c0.1,0.1,0.1,0.2,0,0.4c0,0.1-0.1,0.1-0.2,0.2c-0.1,0-0.1,0-0.2,0
							c-0.1-0.1-0.1-0.2,0-0.4C62.1,43.3,62.2,43.3,62.2,43.2z"/>
						<path class="st7" d="M64.1,40.1c0.1,0,0.1,0,0.2,0c0.1,0.1,0.1,0.2,0,0.4c0,0.1-0.1,0.1-0.2,0.2c-0.1,0-0.1,0-0.2,0
							c-0.1-0.1-0.1-0.2,0-0.4C64,40.1,64,40.1,64.1,40.1z"/>
						<path class="st7" d="M63.2,40.7c-0.1,0.1-0.2,0-0.2-0.1c0-0.1,0.1-0.3,0.2-0.4c0.1-0.1,0.2,0,0.2,0.1
							C63.4,40.4,63.3,40.6,63.2,40.7z"/>
						<path class="st7" d="M62.2,41.7c-0.1,0-0.1,0-0.2,0c-0.1-0.1-0.1-0.2,0-0.4c0-0.1,0.1-0.1,0.2-0.2c0.1,0,0.1,0,0.2,0
							c0.1,0.1,0.1,0.2,0,0.4C62.4,41.6,62.3,41.6,62.2,41.7z"/>
						<path class="st7" d="M64.2,41.3c0-0.1,0.1-0.3,0.2-0.4c0.1-0.1,0.2,0,0.2,0.1c0,0.1-0.1,0.3-0.2,0.4
							C64.3,41.5,64.2,41.4,64.2,41.3z"/>
						<path class="st7" d="M61.9,42.4c0.1-0.1,0.2,0,0.2,0.1c0,0.1-0.1,0.3-0.2,0.4c-0.1,0.1-0.2,0-0.2-0.1
							C61.6,42.6,61.7,42.5,61.9,42.4z"/>
					</g>
				</g>
			</g>
			<polygon class="st8" points="33.5,50.8 17.6,41.8 54.5,20.3 70.4,29.4 			"/>
			<g>
				<path class="st9" d="M35.9,50.9C35.9,50.9,35.9,50.9,35.9,50.9C35.9,50.9,35.9,50.9,35.9,50.9C35.9,50.9,35.9,50.9,35.9,50.9
					C35.9,50.9,35.9,50.9,35.9,50.9C35.9,50.9,35.9,50.9,35.9,50.9C36,50.9,36,50.8,35.9,50.9c0.1,0,0.1,0,0.1,0c0,0,0,0,0,0
					c0,0,0,0,0,0c0,0,0,0,0,0c0,0,0,0,0,0c0,0,0,0,0,0c0,0,0,0,0,0c0,0,0,0,0,0c0,0,0,0,0,0c0,0,0,0,0,0c0,0,0,0,0,0c0,0,0,0,0,0
					c0,0,0,0,0,0c0,0,0,0,0,0c0,0,0,0,0,0c0,0,0,0,0,0c0,0,0,0,0,0c0,0,0,0,0,0c0,0,0,0,0,0c0,0,0,0,0,0c0,0,0,0,0,0c0,0,0,0,0,0
					c0,0,0,0,0,0c0,0,0,0,0,0c0,0,0,0,0,0c0,0,0,0,0,0c0,0,0,0,0,0c0,0,0,0,0,0c0,0,0,0,0,0c0,0,0,0,0,0c0,0,0,0,0,0c0,0,0,0,0,0
					c0,0,0,0,0,0c0,0,0,0,0,0c0,0,0,0,0,0c0,0,0,0,0,0c0,0,0,0,0,0c0,0,0,0,0,0c0,0,0,0,0,0c0,0,0,0,0,0c0,0,0,0,0,0c0,0,0,0,0,0
					c0,0,0,0,0,0c0,0,0,0,0,0c0,0,0,0,0,0c0,0,0,0,0,0c0,0,0,0,0,0c0,0,0,0,0,0c0,0,0,0,0,0c0,0,0,0,0,0c0,0,0,0,0,0l8.7-5
					c0,0,0,0,0,0c0,0,0,0,0,0c0,0,0,0,0,0c0,0,0,0,0,0h0c0,0,0,0,0,0c0,0,0,0,0,0c0,0,0,0,0,0c0,0,0,0,0,0c0,0,0,0,0,0c0,0,0,0,0,0
					c0,0,0,0,0,0c0,0,0,0,0,0c0,0,0,0,0,0c0,0,0,0,0,0c0,0,0,0,0,0c0,0,0,0,0,0c0,0,0,0,0,0c0,0,0,0,0,0c0,0,0,0,0,0c0,0,0,0,0,0
					c0,0,0,0,0,0c0,0,0,0,0,0c0,0,0,0,0,0c0,0,0,0,0,0c0,0,0,0,0,0c0,0,0,0,0,0c0,0,0,0,0,0c0,0,0,0,0,0c0,0,0,0,0,0c0,0,0,0,0,0
					c0,0,0,0,0,0c0,0,0,0,0,0c0,0,0,0,0,0c0,0,0,0,0,0c0,0,0,0,0,0c0,0,0,0,0,0c0,0,0,0,0,0c0,0,0,0,0,0c0,0,0,0,0,0c0,0,0,0,0,0
					c0,0,0,0,0,0c0,0,0,0,0,0c0,0,0,0,0,0c0,0,0,0,0,0c0,0,0,0,0,0c0,0,0,0,0,0c0,0,0,0,0,0c0,0,0,0,0,0c0,0,0,0,0,0c0,0,0,0,0,0h0
					c0,0,0,0,0,0c0,0,0,0,0,0c0,0,0,0,0,0c0,0,0,0,0,0c0,0,0,0,0,0c0,0,0,0,0,0c0,0,0,0,0,0c0,0,0,0,0,0c0,0,0,0,0,0c0,0,0,0,0,0
					c0,0,0,0,0,0c0,0,0,0,0,0c0,0,0,0,0,0c0,0,0,0,0,0c0,0,0,0,0,0c0,0,0,0,0,0c0,0,0,0,0,0c0,0,0,0,0,0c0,0,0,0,0,0c0,0,0,0,0,0
					c0,0,0,0,0,0c0,0,0,0,0,0l0,0L35.9,50.9C35.8,50.9,35.8,50.9,35.9,50.9C35.8,50.9,35.8,50.9,35.9,50.9
					C35.8,50.9,35.9,50.9,35.9,50.9z"/>
				<g>
					<polygon class="st10" points="37,51 45.7,46 46.7,46.6 38.1,51.6 					"/>
				</g>
				<path class="st6" d="M48.4,49.5C48.4,49.5,48.4,49.5,48.4,49.5C48.4,49.5,48.4,49.5,48.4,49.5C48.4,49.5,48.4,49.5,48.4,49.5
					C48.4,49.5,48.4,49.5,48.4,49.5C48.4,49.4,48.4,49.4,48.4,49.5c0-0.1,0-0.1,0-0.1c0,0,0,0,0,0c0,0,0,0,0,0c0,0,0,0,0,0
					c0,0,0,0,0,0c0,0,0,0,0,0c0,0,0,0,0,0c0,0,0,0,0,0c0,0,0,0,0,0c0,0,0,0,0,0c0,0,0,0,0,0c0,0,0,0,0,0c0,0,0,0,0,0c0,0,0,0,0,0
					c0,0,0,0,0,0c0,0,0,0,0,0c0,0,0,0,0,0c0,0,0,0,0,0c0,0,0,0,0,0c0,0,0,0,0,0c0,0,0,0,0,0c0,0,0,0,0,0c0,0,0,0,0,0c0,0,0,0,0,0
					c0,0,0,0,0,0c0,0,0,0,0,0c0,0,0,0,0,0c0,0,0,0,0,0c0,0,0,0,0,0c0,0,0,0,0,0c0,0,0,0,0,0c0,0,0,0,0,0c0,0,0,0,0,0c0,0,0,0,0,0
					c0,0,0,0,0,0c0,0,0,0,0,0c0,0,0,0,0,0c0,0,0,0,0,0c0,0,0,0,0,0c0,0,0,0,0,0c0,0,0,0,0,0c0,0,0,0,0,0c0,0,0,0,0,0c0,0,0,0,0,0
					c0,0,0,0,0,0c0,0,0,0,0,0c0,0,0,0,0,0c0,0,0,0,0,0c0,0,0,0,0,0c0,0,0,0,0,0c0,0,0,0,0,0c0,0,0,0,0,0c0,0,0,0,0,0c0,0,0,0,0-0.1
					c0,0,0,0,0,0c0,0,0,0,0,0c0,0,0,0,0-0.1c0,0,0,0,0,0c0,0,0,0,0,0c0,0,0,0,0,0c0,0,0,0,0,0c0,0,0,0,0,0c0,0,0,0,0,0c0,0,0,0,0,0
					c0,0,0,0,0,0c0,0,0,0,0,0c0,0,0,0,0,0c0,0,0,0,0,0c0,0,0,0,0,0c0,0,0,0,0-0.1c0,0,0,0,0,0c0,0,0,0,0-0.1c0,0,0,0,0,0
					c0,0,0,0,0,0c0,0,0,0,0,0c0,0,0,0,0,0c0,0,0,0,0,0c0,0,0,0,0,0c0,0,0,0,0,0c0,0,0,0,0,0c0,0,0,0,0,0c0,0,0,0,0,0c0,0,0,0,0,0
					c0,0,0,0,0-0.1c0,0,0,0,0,0c0,0,0,0,0-0.1c0,0,0,0,0,0c0,0,0,0,0,0c0,0,0,0,0,0c0,0,0,0,0,0c0,0,0,0,0,0c0,0,0,0,0,0
					c0,0,0,0,0,0c0,0,0,0,0,0c0,0,0,0,0,0c0,0,0,0,0,0c0,0,0,0,0,0c0,0,0,0,0,0l0,0c0,0,0,0,0,0c0,0,0,0,0,0c0,0,0,0,0,0
					c0,0,0,0,0,0c0,0,0,0,0,0c0,0,0,0,0,0c0,0,0,0,0,0c0,0,0,0,0,0c0,0,0,0,0,0c0,0,0,0,0,0c0,0,0,0,0,0c0,0,0,0,0,0c0,0,0,0,0,0
					c0,0,0,0,0,0c0,0,0,0,0,0c0,0,0,0,0,0c0,0,0,0,0,0c0,0,0,0,0,0c0,0,0,0,0,0c0,0,0,0,0,0c0,0,0,0,0,0c0,0,0,0,0,0c0,0,0,0,0,0
					c0,0,0,0,0,0c0,0,0,0,0,0h0c0,0,0,0,0,0c0,0,0,0,0,0c0,0,0,0,0,0c0,0,0,0,0,0c0,0,0,0,0,0c0,0,0,0,0,0c0,0,0,0,0,0c0,0,0,0,0,0
					c0,0,0,0,0,0c0,0,0,0,0,0c0,0,0,0,0,0c0,0,0,0,0,0c0,0,0,0,0,0c0,0,0,0,0,0c0,0,0,0,0,0c0,0,0,0,0,0h0c0,0,0,0,0,0c0,0,0,0,0,0
					c0,0,0,0,0,0c0,0,0,0,0,0c0,0,0,0,0,0l-8.7,5c0,0,0,0,0,0c0,0,0,0,0,0c0,0,0,0,0,0c0,0,0,0,0,0c0,0,0,0,0,0c0,0,0,0,0,0
					c0,0,0,0,0,0c0,0,0,0,0,0c0,0,0,0,0,0c0,0,0,0,0,0c0,0,0,0,0,0c0,0,0,0,0,0c0,0,0,0,0,0c0,0,0,0,0,0c0,0,0,0,0,0c0,0,0,0,0,0
					c0,0,0,0,0,0c0,0,0,0,0,0c0,0,0,0,0,0c0,0,0,0,0,0c0,0,0,0,0,0c0,0,0,0,0,0c0,0,0,0,0,0c0,0,0,0,0,0c0,0,0,0,0,0c0,0,0,0,0,0
					c0,0,0,0,0,0c0,0,0,0,0,0c0,0,0,0,0,0c0,0,0,0,0,0c0,0,0,0,0,0c0,0,0,0,0,0c0,0,0,0,0,0c0,0,0,0,0,0c0,0,0,0,0,0c0,0,0,0,0,0
					c0,0,0,0,0,0c0,0,0,0,0,0c0,0,0,0,0,0c0,0,0,0,0,0c0,0,0,0,0,0c0,0,0,0,0,0c0,0,0,0,0,0c0,0,0,0,0,0c0,0,0,0,0,0c0,0,0,0,0,0
					c0,0,0,0,0,0c0,0,0,0,0,0.1c0,0,0,0,0,0c0,0,0,0,0,0.1c0,0,0,0,0,0c0,0,0,0,0,0c0,0,0,0,0,0c0,0,0,0,0,0c0,0,0,0,0,0
					c0,0,0,0,0,0c0,0,0,0,0,0c0,0,0,0,0,0c0,0,0,0,0,0c0,0,0,0,0,0.1c0,0,0,0,0,0c0,0,0,0,0,0.1c0,0,0,0,0,0c0,0,0,0,0,0
					c0,0,0,0,0,0c0,0,0,0,0,0c0,0,0,0,0,0c0,0,0,0,0,0c0,0,0,0,0,0c0,0,0,0,0,0c0,0,0,0,0,0c0,0,0,0,0,0.1c0,0,0,0,0,0
					c0,0,0,0,0,0.1c0,0,0,0,0,0c0,0,0,0,0,0c0,0,0,0,0,0c0,0,0,0,0,0c0,0,0,0,0,0c0,0,0,0,0,0c0,0,0,0,0,0c0,0,0,0,0,0c0,0,0,0,0,0
					c0,0,0,0,0,0c0,0,0,0,0,0c0,0,0,0,0,0c0,0,0,0,0,0c0,0,0,0,0,0c0,0,0,0,0,0c0,0,0,0,0,0c0,0,0,0,0,0c0,0,0,0,0,0c0,0,0,0,0,0
					c0,0,0,0,0,0c0,0,0,0,0,0c0,0,0,0,0,0c0,0,0,0,0,0c0,0,0,0,0,0c0,0,0,0,0,0c0,0,0,0,0,0c0,0,0,0,0,0c0,0,0,0,0,0c0,0,0,0,0,0
					c0,0,0,0,0,0c0,0,0,0,0,0c0,0,0,0,0,0c0,0,0,0,0,0c0,0,0,0,0,0c0,0,0,0,0,0c0,0,0,0,0,0c0,0,0,0,0,0c0,0,0,0,0,0c0,0,0,0,0,0
					c0,0,0,0,0,0c0,0,0,0,0,0c0,0,0,0,0,0c0,0,0,0,0,0c0,0,0,0,0,0c0,0,0,0,0,0c0,0,0,0,0,0c0,0,0,0,0,0c0,0,0,0,0,0c0,0,0,0,0,0
					c0,0,0,0,0,0c0,0,0,0,0,0c0,0,0,0,0,0c0,0,0,0,0,0c0,0,0,0,0,0c0,0,0,0,0,0c0,0,0,0,0,0c0,0,0,0,0,0c0,0,0,0,0,0c0,0,0,0,0,0
					c0,0,0,0,0,0c0,0,0,0,0,0c0,0,0,0,0,0c0,0,0,0,0,0c0,0,0,0,0,0c0,0,0,0,0,0c0,0,0,0,0,0c0,0,0,0,0,0c0,0,0,0,0,0c0,0,0,0,0,0
					c0,0,0,0,0,0c0,0,0,0,0,0c0,0,0,0,0,0c0,0,0,0,0,0c0,0,0,0,0,0c0,0,0,0,0,0c0,0,0,0,0,0c0,0,0,0,0,0c0,0,0,0,0,0c0,0,0,0,0,0
					c0,0,0,0,0,0c0,0,0,0,0,0c0,0,0,0,0,0c0,0,0,0,0,0c0,0,0,0,0,0c0,0,0,0,0,0c0,0,0,0,0,0c0,0,0,0,0,0c0,0,0,0,0,0c0,0,0,0,0,0
					c0,0,0,0,0,0c0,0,0,0,0,0c0,0,0,0,0,0c0,0,0,0,0,0c0,0,0,0,0,0c0,0,0,0,0,0c0,0,0,0,0,0c0,0,0,0,0,0c0,0,0,0,0,0c0,0,0,0,0,0
					c0,0,0,0,0,0c0,0,0,0,0,0c0,0,0,0,0,0c0,0,0,0,0,0c0,0,0,0,0,0l0,0l8.7-5c0,0,0,0,0,0c0,0,0,0,0,0c0,0,0,0,0,0c0,0,0,0,0,0
					c0,0,0,0,0,0c0,0,0,0,0,0c0,0,0,0,0,0c0,0,0,0,0,0c0,0,0,0,0,0c0,0,0,0,0,0c0,0,0,0,0,0c0,0,0,0,0,0c0,0,0,0,0,0c0,0,0,0,0,0
					c0,0,0,0,0,0c0,0,0,0,0,0c0,0,0,0,0,0c0,0,0,0,0,0c0,0,0,0,0,0c0,0,0,0,0,0c0,0,0,0,0,0c0,0,0,0,0,0c0,0,0,0,0,0c0,0,0,0,0,0
					c0,0,0,0,0,0c0,0,0,0,0,0c0,0,0,0,0,0c0,0,0,0,0,0c0,0,0,0,0,0c0,0,0,0,0,0c0,0,0,0,0,0c0,0,0,0,0,0c0,0,0,0,0,0c0,0,0,0,0,0
					c0,0,0,0,0,0c0,0,0,0,0,0c0,0,0,0,0,0c0,0,0,0,0,0c0,0,0,0,0,0c0,0,0,0,0,0c0,0,0,0,0,0c0,0,0,0,0,0c0,0,0,0,0,0c0,0,0,0,0,0
					c0,0,0,0,0,0c0,0,0,0,0,0l0,0c0,0,0,0,0,0c0,0,0,0,0,0c0,0,0,0,0,0c0,0,0,0,0,0v0c0,0,0,0,0,0c0,0,0,0,0,0c0,0,0,0,0,0
					c0,0,0,0,0,0c0,0,0,0,0,0c0,0,0,0,0,0c0,0,0,0,0,0c0,0,0,0,0,0c0,0,0,0,0,0c0,0,0,0,0,0c0,0,0,0,0,0c0,0,0,0,0,0c0,0,0,0,0,0
					c0,0,0,0,0,0C48.4,49.6,48.4,49.6,48.4,49.5C48.4,49.6,48.4,49.6,48.4,49.5L48.4,49.5C48.4,49.6,48.4,49.5,48.4,49.5z"/>
				<g>
					<path class="st11" d="M38.1,51.6c0.9,0.5,1.7,1.9,1.7,3c0,1.1-0.8,1.5-1.7,1L37,55c-0.9-0.5-1.7-1.9-1.7-3c0-1.1,0.8-1.5,1.7-1
						L38.1,51.6z"/>
				</g>
			</g>
			<polygon class="st12" points="70.5,35.7 70.4,29.4 33.5,50.8 33.5,57.2 35.6,55.9 35.6,52.1 68.4,33.2 68.4,36.9 			"/>
		</g>
		<g>
			<polygon class="st13" points="17.2,21.3 34.4,31.3 70.9,10.1 53.8,0.2 			"/>
			<polygon class="st14" points="34.4,31.3 34.4,50.4 17.2,40.4 17.2,21.3 			"/>
			<polygon class="st15" points="70.9,10.1 34.4,31.3 34.4,50.4 70.9,29.2 			"/>
		</g>
		<g>
			<g>
				<path class="st2" d="M24.5,67.2C24.5,67.2,24.5,67.2,24.5,67.2c-0.1-0.1-0.1-0.1-0.1-0.1c0,0,0,0,0,0c0,0-0.1-0.1-0.1-0.1
					c0,0,0,0,0,0c0,0-0.1-0.1-0.1-0.1c0,0,0,0,0,0c0,0-0.1-0.1-0.1-0.1c0,0,0,0,0,0c0,0-0.1-0.1-0.1-0.2c0-0.1-0.1-0.1-0.1-0.2
					c0,0,0,0,0,0c0,0,0-0.1-0.1-0.1c0,0,0,0,0,0c0,0,0-0.1,0-0.1c0,0,0-0.1,0-0.1c0,0,0-0.1,0-0.1c0,0,0-0.1,0-0.1c0,0,0-0.1,0-0.1
					c0,0,0-0.1,0-0.1c0,0,0-0.1,0-0.1c0,0,0-0.1,0-0.1c0,0,0-0.1,0-0.1c0,0,0-0.1,0-0.1c0-0.1,0-0.1,0-0.2c0,0,0,0,0-0.1
					c0-0.1,0-0.2,0-0.2c0-0.1,0-0.2,0-0.2c0,0,0-0.1,0-0.1c0-0.1,0-0.1,0-0.2c0,0,0-0.1,0-0.1c0-0.1,0-0.1,0-0.2c0,0,0,0,0-0.1
					c0-0.1,0-0.2,0-0.2c0,0,0,0,0,0c0-0.1,0-0.1,0-0.2c0,0,0-0.1,0-0.1c0-0.1,0-0.1,0-0.2c0,0,0-0.1,0-0.1c0-0.1,0-0.1,0-0.2
					c0,0,0-0.1,0-0.1c0-0.1,0-0.1,0-0.2c0,0,0-0.1,0-0.1c0-0.1,0.1-0.2,0.1-0.3c0,0,0,0,0,0c0-0.1,0.1-0.2,0.1-0.2c0,0,0-0.1,0-0.1
					c0-0.1,0-0.1,0.1-0.2c0,0,0-0.1,0-0.1c0-0.1,0.1-0.1,0.1-0.2c0,0,0,0,0-0.1c0-0.1,0.1-0.2,0.1-0.2c0,0,0,0,0-0.1
					c0-0.1,0.1-0.1,0.1-0.2c0,0,0-0.1,0.1-0.1c0,0,0-0.1,0.1-0.1c0.1-0.1,0.1-0.2,0.2-0.3c0,0,0-0.1,0.1-0.1c0,0,0.1-0.1,0.1-0.1
					c0,0,0.1-0.1,0.1-0.1c0,0,0.1-0.1,0.1-0.1c0,0,0-0.1,0.1-0.1c0.1-0.1,0.2-0.2,0.2-0.4c0,0,0,0,0,0c0.1-0.1,0.1-0.2,0.2-0.2
					c0-0.1,0.1-0.1,0.1-0.2c0,0,0,0,0,0c0.1-0.1,0.1-0.1,0.2-0.2c0,0,0,0,0.1-0.1c0,0,0.1-0.1,0.1-0.1c0,0,0.1-0.1,0.1-0.1
					c0,0,0.1-0.1,0.1-0.1c0,0,0.1-0.1,0.1-0.1c0,0,0.1-0.1,0.1-0.1c0,0,0.1-0.1,0.1-0.1c0,0,0.1-0.1,0.1-0.1c0,0,0.1-0.1,0.1-0.1
					c0,0,0.1-0.1,0.1-0.1c0,0,0.1,0,0.1-0.1c0,0,0.1-0.1,0.1-0.1c0,0,0.1,0,0.1-0.1c0,0,0.1-0.1,0.1-0.1c0,0,0,0,0.1,0
					c0.1,0,0.1-0.1,0.2-0.1c0,0,0,0,0,0c0.1,0,0.1-0.1,0.2-0.1c0.1,0,0.1-0.1,0.2-0.1c0,0,0,0,0.1,0c0,0,0.1,0,0.1-0.1
					c0,0,0,0,0.1,0c0.1,0,0.1-0.1,0.2-0.1c0.1,0,0.1-0.1,0.2-0.1c0,0,0,0,0.1,0c0,0,0.1,0,0.1,0c0,0,0.1,0,0.1,0c0,0,0.1,0,0.1,0
					c0,0,0.1,0,0.1,0c0,0,0.1,0,0.1,0c0,0,0.1,0,0.1,0c0,0,0.1,0,0.1,0c0,0,0.1,0,0.1,0c0,0,0.1,0,0.1,0c0,0,0.1,0,0.1,0
					c0.1,0,0.1,0,0.2,0c0,0,0,0,0,0c0.1,0,0.1,0,0.1,0c0,0,0,0,0,0c0.1,0,0.1,0,0.2,0c0,0,0,0,0,0c0,0,0.1,0,0.1,0c0,0,0,0,0.1,0
					c0,0,0.1,0,0.1,0c0,0,0.1,0,0.1,0c0,0,0,0,0.1,0c0.1,0,0.1,0.1,0.2,0.1c0,0-3.2-1.9-3.2-1.9c-0.1,0-0.1-0.1-0.2-0.1
					c0,0,0,0-0.1,0c-0.6-0.3-1.3-0.2-2,0c-0.6,0.2-1.2,0.6-1.7,1c0,0,0,0,0,0c0,0-0.1,0-0.1,0.1c-1.9,1.6-3.2,4-3.4,6.5
					c-0.1,0.8,0,1.8,0.5,2.5c0,0,0,0,0,0c0,0,0,0,0,0c0,0,0,0.1,0.1,0.1c0,0,0,0,0,0c0,0,0.1,0.1,0.1,0.1c0,0,0,0,0,0
					c0,0,0.1,0.1,0.1,0.1c0,0,0,0,0,0c0,0,0.1,0.1,0.1,0.1c0,0,0,0,0,0c0,0,0.1,0,0.1,0.1c0,0,0,0,0,0c0,0,0.1,0.1,0.1,0.1l3.2,1.9
					c0,0-0.1-0.1-0.1-0.1C24.6,67.3,24.6,67.3,24.5,67.2C24.5,67.3,24.5,67.3,24.5,67.2z"/>
				<g>
					<path class="st3" d="M27.8,57c-2.4,1.4-4.4,4.8-4.4,7.6c0,2.8,2,3.9,4.4,2.5c2.4-1.4,4.4-4.8,4.4-7.6
						C32.2,56.7,30.3,55.6,27.8,57z"/>
				</g>
			</g>
			<g>
				<g>
					<path class="st4" d="M28,59c-1.5,0.9-2.7,2.9-2.9,4.6c0,0.1,0,0.2,0,0.3c0,1.8,1.3,2.6,2.9,1.6c1.6-0.9,2.9-3.1,2.9-5
						c0-0.1,0-0.2,0-0.3C30.7,58.7,29.5,58.1,28,59z"/>
				</g>
				<g>
					<path class="st5" d="M28,59.9c-1.1,0.6-2,2.1-2.1,3.4c0,0.1,0,0.2,0,0.2c0,1.3,0.9,1.9,2.1,1.2c1.2-0.7,2.1-2.3,2.1-3.6
						c0-0.1,0-0.2,0-0.2C30,59.7,29.1,59.2,28,59.9z"/>
				</g>
				<path class="st6" d="M30.1,60.8c-0.1-1-0.7-1.4-1.5-1.2c0.6,0,1.1,0.4,1.2,1.3c0,0.1,0,0.1,0,0.2c0,1.3-0.9,2.9-2.1,3.6
					c-0.2,0.1-0.4,0.2-0.5,0.2c0.3,0,0.6-0.1,0.9-0.3c1.2-0.7,2.1-2.3,2.1-3.6C30.1,61,30.1,60.9,30.1,60.8z"/>
				<g>
					<path class="st7" d="M28.8,62.5c0.1,0,0.1,0,0.2,0c0.1,0.1,0.1,0.2,0,0.4c0,0.1-0.1,0.1-0.2,0.2c-0.1,0-0.1,0-0.2,0
						c-0.1-0.1-0.1-0.2,0-0.4C28.7,62.6,28.7,62.6,28.8,62.5z"/>
					<path class="st7" d="M27.9,61.7c0.3-0.2,0.5,0,0.5,0.3c0,0.3-0.2,0.8-0.5,0.9c-0.3,0.2-0.5,0-0.5-0.3
						C27.3,62.2,27.6,61.8,27.9,61.7z"/>
					<path class="st7" d="M27.9,63.5c0.1-0.1,0.2,0,0.2,0.1c0,0.1-0.1,0.3-0.2,0.4c-0.1,0.1-0.2,0-0.2-0.1
						C27.6,63.8,27.7,63.6,27.9,63.5z"/>
					<path class="st7" d="M27,63.6c0.1,0,0.1,0,0.2,0c0.1,0.1,0.1,0.2,0,0.4c0,0.1-0.1,0.1-0.2,0.2c-0.1,0-0.1,0-0.2,0
						c-0.1-0.1-0.1-0.2,0-0.4C26.8,63.7,26.9,63.6,27,63.6z"/>
					<path class="st7" d="M28.8,60.4c0.1,0,0.1,0,0.2,0c0.1,0.1,0.1,0.2,0,0.4c0,0.1-0.1,0.1-0.2,0.2c-0.1,0-0.1,0-0.2,0
						c-0.1-0.1-0.1-0.2,0-0.4C28.7,60.5,28.7,60.5,28.8,60.4z"/>
					<path class="st7" d="M27.9,61.1c-0.1,0.1-0.2,0-0.2-0.1c0-0.1,0.1-0.3,0.2-0.4c0.1-0.1,0.2,0,0.2,0.1
						C28.1,60.8,28,61,27.9,61.1z"/>
					<path class="st7" d="M26.9,62c-0.1,0-0.1,0-0.2,0c-0.1-0.1-0.1-0.2,0-0.4c0-0.1,0.1-0.1,0.2-0.2c0.1,0,0.1,0,0.2,0
						c0.1,0.1,0.1,0.2,0,0.4C27.1,61.9,27,62,26.9,62z"/>
					<path class="st7" d="M28.9,61.7c0-0.1,0.1-0.3,0.2-0.4c0.1-0.1,0.2,0,0.2,0.1c0,0.1-0.1,0.3-0.2,0.4
						C29,61.9,28.9,61.8,28.9,61.7z"/>
					<path class="st7" d="M26.6,62.8c0.1-0.1,0.2,0,0.2,0.1c0,0.1-0.1,0.3-0.2,0.4s-0.2,0-0.2-0.1C26.3,63,26.4,62.8,26.6,62.8z"/>
				</g>
			</g>
		</g>
		<polygon class="st16" points="20.6,64.6 4.7,55.6 4.6,46 20.6,55 		"/>
		<polygon class="st17" points="20.6,55 4.6,46 6.8,36.6 22.8,45.6 		"/>
		<polygon class="st18" points="22.8,45.6 6.8,36.6 17.5,30.4 33.5,39.4 		"/>
		<path class="st19" d="M6.8,36.6L4.6,46l16,9l2.2-9.4L6.8,36.6z M20.2,54L5.4,45.6l1.9-8.1L22,45.9L20.2,54z"/>
		<g id="XMLID_18_">
			<g id="XMLID_19_" class="st20">
				<g id="XMLID_20_">
					<polygon id="XMLID_21_" class="st21" points="7.5,49.4 7.5,55.6 17.8,61.5 17.8,55.3 					"/>
				</g>
			</g>
		</g>
		<g>
			<polygon class="st6" points="19.8,62.9 19.8,65.1 4,55.9 4,53.8 			"/>
			<polygon class="st4" points="19.8,62.9 19.8,65.1 20.6,64.6 20.6,62.5 			"/>
			<polygon class="st22" points="4,53.8 19.8,62.9 20.6,62.5 4.8,53.3 			"/>
		</g>
		<g>
			<polygon class="st23" points="20.6,60.2 18,58.8 18,60.3 20.6,61.8 			"/>
		</g>
		<g>
			<polygon class="st23" points="7.2,52.5 4.6,51 4.6,52.6 7.2,54 			"/>
		</g>
		<path class="st19" d="M33.5,39.4l-10.7,6.2L20.6,55l0,9.6l2.3-1.3c0.6-2.7,2.5-5.6,4.8-6.9c2.3-1.3,4.2-0.7,4.8,1.4l1-0.6v-6.4
			L33.5,39.4z"/>
		<g>
			<path class="st17" d="M29.2,42.7c0.1-0.1,0.2,0,0.2,0.1l0,5.6c0,0.1-0.1,0.3-0.2,0.4l-7.1,4.1c-0.1,0.1-0.2,0-0.2-0.2l1.3-6.3
				c0-0.1,0.1-0.2,0.2-0.3L29.2,42.7z"/>
		</g>
		<polygon class="st24" points="19.5,63.4 19.5,64.4 17.5,63.3 17.5,62.3 		"/>
		<polygon class="st24" points="6.2,55.9 6.2,56.8 4.3,55.7 4.3,54.7 		"/>
		<polygon class="st4" points="56,40.3 56,43.9 49.3,47.7 49.3,44.2 		"/>
		<polygon class="st25" points="49.3,47.7 48,47 48,44.9 49.3,44.2 		"/>
		<polygon class="st26" points="22,45.9 5.4,45.6 7.2,37.5 		"/>
	</g>
</g>
</svg>
