<?xml version="1.0" encoding="utf-8"?>
<!-- Generator: Adobe Illustrator 22.0.0, SVG Export Plug-In . SVG Version: 6.00 Build 0)  -->
<svg version="1.1" id="图层_1" xmlns="http://www.w3.org/2000/svg" xmlns:xlink="http://www.w3.org/1999/xlink" x="0px" y="0px"
	 viewBox="0 0 118.3 152.6" style="enable-background:new 0 0 118.3 152.6;" xml:space="preserve">
<style type="text/css">
	.st0{enable-background:new    ;}
	.st1{fill:#B5A28F;}
	.st2{fill:#BAA793;}
	.st3{fill:#D9CBB3;}
	.st4{fill:#1A2C41;}
</style>
<g>
	<g class="st0">
		<g>
			<polygon class="st1" points="112.7,68.4 118.7,64.9 118.4,148.1 112.5,151.6 			"/>
		</g>
		<g>
			<polygon class="st2" points="0.2,3.4 6.1,0 118.7,64.9 112.7,68.4 			"/>
		</g>
		<g>
			<polygon class="st3" points="112.7,68.4 112.5,151.6 0,86.6 0.2,3.4 			"/>
		</g>
	</g>
</g>
<g>
	<g>
		<g>
			<path class="st4" d="M16.3,44.1c0.3,1,0.5,1.9,0.8,2.9l6.6,3.8v2.5l-6.8-3.9v2.2l6,3.4v6.8c0,0.6-0.1,1-0.2,1.3
				c-0.2,0.3-0.4,0.5-0.7,0.6c-0.3,0.1-0.6,0-1-0.1c-0.4-0.2-1.3-0.6-2.7-1.5c-0.2-0.9-0.4-1.9-0.6-2.8c0.6,0.4,1.2,0.8,1.9,1.2
				c0.8,0.4,1.2,0.2,1.2-0.6v-3.7l-3.7-2.1v9.4l-2.4-1.4v-9.4l-3.3-1.9v7.4l-2.3-1.3v-9.8l5.5,3.2v-2.2l-6.7-3.9v-2.5l6.5,3.8
				c-0.2-0.8-0.4-1.5-0.6-2.1L16.3,44.1z"/>
		</g>
		<g>
			<path class="st4" d="M34.5,61.6l6,3.4c0,2.6-0.1,5.3-0.2,8.1c-0.1,2.1-0.9,2.7-2.5,1.9c-0.6-0.3-1.3-0.7-2.1-1.1
				c-0.1-0.8-0.2-1.8-0.4-2.9c-0.6,0.7-1.4,1.2-2.2,1.5c-0.6-0.9-1.3-1.9-2-2.8c2.4-0.7,3.9-2.5,4.5-5.3l-1.3-0.8
				c-0.6,2.2-1.7,3.7-3.1,4.4c-0.3-0.4-0.5-0.8-0.8-1.2c0,0.4,0,0.9,0,1.4c-2-0.7-3.7-1.3-5.4-1.7l-0.4-3c0.6,0.2,1.3,0.5,1.9,0.7
				v-6.7l-1.8-1v-2.6l1.8,1v-4.8l2.2,1.3v4.8l1.6,0.9v2.6l-1.6-0.9v6.3c0.3,0.1,0.5,0.2,0.8,0.3c1.2-0.4,2.1-1.4,2.6-2.8l-1.5-0.9
				v-2.3l5-0.8l-5-2.9v-2.3l8.9,5.1v2.2L34.5,61.6z M38.1,71.3c0.1-1.2,0.2-3,0.2-5.2l-0.9-0.5c-0.4,2.3-1.2,4.1-2.3,5.3
				c0.5,0.3,1,0.6,1.4,0.9C37.6,72.4,38,72.2,38.1,71.3"/>
		</g>
		<g>
			<path class="st4" d="M47.9,75.9L46.4,75l0.3-3.8l-1.1-0.7v7c0,1.5-0.6,1.9-1.8,1.3c-0.4-0.2-1-0.5-1.8-1
				c-0.1-0.9-0.3-1.8-0.4-2.7c0.4,0.2,0.7,0.4,1,0.6c0.6,0.4,0.9,0.2,0.9-0.6v-5.8l-2.1-1.2v-2.4l2.3,1.3c-0.7-1-1.4-1.9-2-2.8
				l1.2-1c0.6,0.9,1.2,1.8,1.8,2.7l1.4-1.5l-4.3-2.5v-2.3l6.6,3.8v2.4l-2.2,2.4l2.5,1.4L47.9,75.9z"/>
		</g>
		<g>
			<path class="st4" d="M53.8,79.5c1.5,2.1,2.9,4.1,4.1,6l-1.6,0.9c-1-1.7-2.1-3.4-3.4-5.3c-0.7,0.7-2,1.1-3.9,1.1
				c-0.5-1.1-0.9-2.1-1.4-3c2,0.1,3.2-0.2,3.7-1.1c0.4-0.7,0.7-2.2,0.6-4.4v-0.6l2.1,1.2v0.6C54.2,76.9,54.1,78.4,53.8,79.5z"/>
		</g>
		<g>
			<polygon class="st4" points="51.6,69.5 51.9,68 48.7,66.2 48.7,63.8 57.7,69 57.7,71.4 54.1,69.3 53.8,70.8 57.4,72.8 57.4,82 
				55.2,80.8 55.2,74 51.2,71.6 51.1,78.4 49,77.2 49,68 			"/>
		</g>
		<g>
			<polygon class="st4" points="71.7,77.8 71.6,90.6 69.9,89.6 70,76.8 			"/>
		</g>
		<g>
			<path class="st4" d="M72.5,76.9l1.9,1.1v15.8c0,0.7-0.1,1.1-0.4,1.4c-0.3,0.2-0.6,0.3-1,0.2s-1-0.5-2-1c-0.2-0.1-0.3-0.2-0.5-0.3
				c-0.1-0.9-0.3-1.9-0.5-3c0.6,0.4,1.2,0.8,1.7,1.1s0.7,0.1,0.7-0.6L72.5,76.9z"/>
		</g>
		<g class="st0">
			<g>
				<path class="st4" d="M60.4,80.3c0.8,0.8,1.5,1.5,2.1,2.1l-1.6,6.3c-0.8-0.8-1.5-1.5-2.1-2C59.3,84.9,59.9,82.8,60.4,80.3z"/>
			</g>
			<g>
				<path class="st4" d="M66.1,87.3l1.1-0.4c0.9,1.7,1.8,3.3,2.6,4.8l-1.7,0.5c-0.7-1.6-1.4-3.1-2.2-4.6c-0.5,1.1-1.4,1.9-2.7,2.5
					c-0.5-1.1-1-2.1-1.4-2.9c1.3-0.3,2.1-0.9,2.6-1.8c0.5-0.9,0.7-2.3,0.7-4.2v-4.5l1.5,0.9v4.9C66.7,84.7,66.5,86.2,66.1,87.3z"/>
			</g>
		</g>
		<g>
			<path class="st4" d="M62.8,73.6l-1.5,1c-0.7-1.2-1.5-2.6-2.4-4l1.4-1c0.8,1.1,1.6,2.4,2.5,3.8v-1.5l6.4,3.7v11.9l-1.7-1v-9.8
				L64.6,75v9.9l-1.7-1L62.8,73.6z"/>
		</g>
		<g>
			<path class="st4" d="M62.5,78.4L61,79.6c-0.7-1.1-1.5-2.5-2.5-4.1l1.4-1C60.7,75.7,61.6,77,62.5,78.4z"/>
		</g>
		<g>
			<path class="st4" d="M89.1,100.8c0.9,1.2,1.9,2.3,3,3.4c-0.4,0.5-0.9,1.1-1.4,1.8c-1.1-1.3-2.1-2.7-3.1-4.2
				c-0.8,0.4-1.8,0.7-2.8,0.8c-0.2-0.6-0.5-1.3-0.8-2.1v1.5l-2.2-1.3l0.1-18.1l9.3,5.4c0,1.3-0.1,2.4-0.1,3.2
				c-0.1,0.9-0.3,1.4-0.8,1.6c-0.4,0.2-1,0.1-1.8-0.3c-0.3-0.2-0.7-0.4-1-0.6c-0.5-0.3-1.1-0.6-1.7-1c-0.1-0.7-0.2-1.6-0.4-2.6
				c1,0.6,1.7,1.1,2.4,1.5c0.4,0.2,0.7,0.3,0.9,0.2c0.2-0.1,0.3-0.5,0.3-1.1l-4.8-2.8v4.6l7.3,4.2V97C90.8,98.7,90,99.9,89.1,100.8z
				 M87.5,98.4c0.7-0.6,1.2-1.3,1.5-2.4l-5-2.9v6.3c0.8,0,1.5-0.1,2.1-0.2c-0.7-1.5-1.4-3-2-4.6l1.4-0.4
				C86.1,95.6,86.7,97,87.5,98.4"/>
		</g>
		<g>
			<path class="st4" d="M79.7,89.6c0.6,0.2,1.2,0.4,1.7,0.6c-0.1,1.1-0.1,1.9-0.1,2.5l-1.7-0.5v5c0,0.9-0.2,1.4-0.6,1.5
				c-0.4,0.2-1.3-0.2-2.9-1.1c-0.1-0.7-0.3-1.7-0.6-2.9c0.4,0.3,0.8,0.5,1.1,0.7c0.3,0.2,0.5,0.2,0.6,0.1c0.1-0.1,0.2-0.3,0.2-0.6
				v-3.4L75.6,91l-0.2-2.9l2,0.8v-3.4l-1.8-1V82l1.8,1v-3.4l2.1,1.2v3.4l1.6,0.9v2.5l-1.6-0.9L79.7,89.6z"/>
		</g>
		<g>
			<path class="st4" d="M102.3,100.6l6.7,3.9v2.3l-16.3-9.4v-2.3l1.9,1.1c-0.5-0.7-1.1-1.4-1.6-2.1c1.1-1,2-2.3,2.5-4l2.2,1.9
				c-0.2,0.4-0.3,0.8-0.5,1.2l2.7,1.6v-2.4l2.4,1.4v2.4l5.8,3.3v2.3l-5.8-3.3L102.3,100.6z M99.9,99.2v-2.1L96.3,95
				c-0.4,0.6-0.3,1.6-0.7,2L99.9,99.2"/>
		</g>
		<g>
			<path class="st4" d="M94.5,108.2v-8.4l12.6,7.3v8.4l-2.3-1.3v-1l-8.1-4.7v1L94.5,108.2z M96.8,103.5v2.6l8.1,4.7v-2.6L96.8,103.5
				"/>
		</g>
	</g>
</g>
</svg>
