<?xml version="1.0" encoding="utf-8"?>
<!-- Generator: Adobe Illustrator 22.0.0, SVG Export Plug-In . SVG Version: 6.00 Build 0)  -->
<svg version="1.1" id="图层_1" xmlns="http://www.w3.org/2000/svg" xmlns:xlink="http://www.w3.org/1999/xlink" x="0px" y="0px"
	 viewBox="0 0 60 40" style="enable-background:new 0 0 60 40;" xml:space="preserve">
<style type="text/css">
	.st0{fill:#22FF80;}
	.st1{opacity:0.3;fill:#22FF80;enable-background:new    ;}
	.st2{opacity:0.4;fill:#22FF80;enable-background:new    ;}
	.st3{fill:#FFFFFF;}
	.st4{fill:#00CE53;}
</style>
<g id="battery_8_">
	<path class="st0" d="M42.6,22.2L41.1,23l-5.2,3.1L33,27.7L22,34.2l-1.9,1.1c-0.1,0.1-0.2,0.1-0.3,0.2c-0.1,0.1-0.1,0.1-0.2,0.2
		c-0.3,0.1-0.5,0.1-0.8,0.1c-1.1,0.1-2.3-0.2-3.3-0.8l-14-8.5c-1.4-0.9-1.5-3-0.3-4c0.1-0.1,0.2-0.2,0.3-0.2l1.9-1.1l11.1-6.5
		l2.9-1.6l1.5-0.8l3.7-2.1L42.6,22.2z"/>
	<path class="st1" d="M58.2,17.6l-15.4,9L21.2,39.2c-1.8,1-4,1-5.8,0l-14-8.5c-1.6-0.9-2-6.8-0.4-8l0.1-0.1c-1.2,1-1.1,3.1,0.3,4
		l14,8.5c1.8,1.1,4,1.1,5.8,0l21.7-12.7l15.4-9c1.3-0.7,1.6-2.3,1-3.5C60.1,11.4,60.8,16,58.2,17.6z"/>
	<path class="st1" d="M58.2,13.5L21.3,35.3c-1.8,1-4,1-5.8,0l-14-8.5c-1.4-0.9-1.5-3-0.3-4l2.3-1.3l11.1-6.5l2.9-1.6L38.6,0.9
		c1.8-1,3.9-1,5.7,0l14,8.3c0.4,0.2,0.7,0.5,0.9,0.9c0,0,0,0.1,0.1,0.1C59.8,11.2,59.4,12.7,58.2,13.5z"/>
	<path class="st2" d="M58.2,13.5L43,22.4L21.3,35.2c-1.8,1-4,1-5.8,0l-14-8.5c-1.4-0.9-1.5-3-0.3-4c0.1-0.1,0.2-0.2,0.3-0.2l1.9-1.1
		l11.1-6.5l2.9-1.6l5.2-3.1l16-9.4c1.8-1,3.9-1,5.7,0l4,2.3l1.6-0.9c0.6-0.3,1.4-0.3,2,0l2,1.2C54,3.5,54.2,3.7,54.2,4v0.2
		c0,0.2-0.2,0.4-0.4,0.6l-1.3,0.8l1.7,1l4,2.3c0.4,0.2,0.7,0.5,0.9,0.9c0,0,0,0.1,0.1,0.1C59.8,11.2,59.4,12.7,58.2,13.5z"/>
	<path class="st1" d="M54.2,4.2v2.4l-1.7-1l1.3-0.8C54,4.6,54.2,4.4,54.2,4.2z"/>
	<path class="st0" d="M58.4,13.3L21.3,35.2c-1.8,1-4,1-5.8,0l-14-8.5c-1.4-0.9-1.5-3-0.3-4c0.1-0.1,0.2-0.2,0.3-0.2l1.9-1.1
		l11.1-6.5l2.9-1.6L38.4,1.1L58.4,13.3z"/>
	<path class="st3" d="M42.8,10.4l-19.7,3.8l6.3,3.8l-10.4,3.9c-0.6,0.2-0.4,1.1,0.3,1l20-3.9l-6.5-3.8l10.3-3.6
		C43.7,11.2,43.5,10.3,42.8,10.4z"/>
	<path class="st4" d="M58.4,13.3v4.1l-37,21.7c-1.8,1-4,1-5.8,0l-14-8.5c-1.6-0.9-2-6.8-0.4-8l0.1-0.1c-1.2,1-1.1,3.1,0.3,4l14,8.5
		c1.8,1.1,4,1.1,5.8,0L58.4,13.3z"/>
</g>
</svg>
