<?xml version="1.0" encoding="utf-8"?>
<!-- Generator: Adobe Illustrator 22.0.0, SVG Export Plug-In . SVG Version: 6.00 Build 0)  -->
<svg version="1.1" id="图层_1" xmlns="http://www.w3.org/2000/svg" xmlns:xlink="http://www.w3.org/1999/xlink" x="0px" y="0px"
	 viewBox="0 0 120 120" style="enable-background:new 0 0 120 120;" xml:space="preserve">
<style type="text/css">
	.st0{fill:url(#SVGID_1_);}
	.st1{fill:url(#SVGID_2_);}
	.st2{fill:url(#SVGID_3_);}
	.st3{fill:url(#SVGID_4_);}
	.st4{enable-background:new    ;}
	.st5{fill:#6E909A;}
	.st6{clip-path:url(#SVGID_6_);enable-background:new    ;}
	.st7{fill:#698993;}
	.st8{fill:#6C8D98;}
	.st9{fill:#A8DBEB;}
	.st10{fill:#5B777F;}
	.st11{fill:#82ABB7;}
	.st12{clip-path:url(#SVGID_8_);enable-background:new    ;}
	.st13{fill:#769BA6;}
	.st14{clip-path:url(#SVGID_10_);enable-background:new    ;}
	.st15{fill:#65858E;}
	.st16{clip-path:url(#SVGID_12_);enable-background:new    ;}
	.st17{fill:#7A9FAB;}
	.st18{fill:#7396A1;}
	.st19{fill:#70929C;}
	.st20{fill:#628089;}
	.st21{fill:#5F7C85;}
	.st22{fill:#5B7780;}
	.st23{fill:#58737B;}
	.st24{clip-path:url(#SVGID_14_);enable-background:new    ;}
	.st25{clip-path:url(#SVGID_16_);enable-background:new    ;}
	.st26{clip-path:url(#SVGID_18_);enable-background:new    ;}
	.st27{clip-path:url(#SVGID_20_);enable-background:new    ;}
	.st28{clip-path:url(#SVGID_22_);enable-background:new    ;}
	.st29{clip-path:url(#SVGID_24_);enable-background:new    ;}
	.st30{fill:#668690;}
	.st31{clip-path:url(#SVGID_26_);enable-background:new    ;}
	.st32{clip-path:url(#SVGID_28_);enable-background:new    ;}
	.st33{clip-path:url(#SVGID_30_);enable-background:new    ;}
	.st34{fill:#7EA5B1;}
	.st35{clip-path:url(#SVGID_32_);enable-background:new    ;}
</style>
<g>
	<g>
		
			<linearGradient id="SVGID_1_" gradientUnits="userSpaceOnUse" x1="59.8467" y1="414.3062" x2="60.5612" y2="318.7832" gradientTransform="matrix(1 0 0 1 0 -295.4961)">
			<stop  offset="0" style="stop-color:#DFEDFA"/>
			<stop  offset="1" style="stop-color:#7AB4F4"/>
		</linearGradient>
		<path class="st0" d="M36,109.3L6,90.8C1.9,88.3,0,85,0.3,81.9V61.5c-0.2-2.6,1.1-5.1,4.1-7l45-27.9c6.1-3.8,16.8-3.3,23.8,1.1
			l41.2,25.6c3.8,2.4,5.8,5.4,5.8,8.3l0,0v21.3l0,0c0.1,2.5-1.3,5-4.1,6.6l-45,27.9c-6.1,3.8-16.8,3.3-23.8-1.1l-2.5-1.6"/>
		
			<linearGradient id="SVGID_2_" gradientUnits="userSpaceOnUse" x1="0.2763" y1="356.6557" x2="120.1313" y2="356.6557" gradientTransform="matrix(1 0 0 1 0 -295.4961)">
			<stop  offset="0" style="stop-color:#7AB4F4"/>
			<stop  offset="1" style="stop-color:#49A5FA"/>
		</linearGradient>
		<path class="st1" d="M71,95.8l45-27.9c6.1-3.8,5.3-10.4-1.7-14.8L73.2,27.5c-7.1-4.3-17.6-4.8-23.8-1.1l-45,27.9
			C-1.7,58.2-0.9,64.8,6,69.2l41.2,25.6C54.3,99.1,65,99.6,71,95.8z"/>
	</g>
	<g>
		
			<linearGradient id="SVGID_3_" gradientUnits="userSpaceOnUse" x1="60.1919" y1="390.3263" x2="60.1919" y2="293.8405" gradientTransform="matrix(1 0 0 1 0 -295.4961)">
			<stop  offset="0" style="stop-color:#DFEDFA"/>
			<stop  offset="1" style="stop-color:#7AB4F4"/>
		</linearGradient>
		<path class="st2" d="M0.3,37.5c-0.2-2.6,1.1-5.1,4.1-7l45-27.9c6.1-3.8,16.8-3.3,23.8,1.1l41.2,25.6c3.8,2.4,5.8,5.4,5.8,8.3l0,0
			v21.2l0,0c0.1,2.5-1.3,5-4.1,6.6L71,93.4c-6.1,3.8-16.8,3.3-23.8-1.1L6,66.7c-4.1-2.5-6.1-5.8-5.8-8.9L0.3,37.5L0.3,37.5z"/>
		
			<linearGradient id="SVGID_4_" gradientUnits="userSpaceOnUse" x1="-38.0658" y1="409.8626" x2="85.5907" y2="312.8944" gradientTransform="matrix(1 0 0 1 0 -295.4961)">
			<stop  offset="0" style="stop-color:#DFEDFA"/>
			<stop  offset="1" style="stop-color:#7AB4F4"/>
		</linearGradient>
		<path class="st3" d="M35.1,63.3l12.3,7.6c7.1,4.3,17.6,4.8,23.8,1.1l45-27.9c6.1-3.8,5.3-10.4-1.7-14.8L73.3,3.6
			c-7.1-4.3-17.6-4.8-23.8-1.1l-45,27.9c-6.1,3.8-5.3,10.4,1.7,14.8l6.7,4.1"/>
	</g>
</g>
<g>
	<g>
		<g class="st4">
			<g>
				<polygon class="st5" points="54.3,22.5 54.3,24.9 50.5,24.4 50.5,22 				"/>
			</g>
			<g class="st4">
				<g>
					<g>
						<defs>
							<path id="SVGID_5_" d="M55.5,19v2.4c-0.3,1-0.6,2.2-1.2,3.5v-2.4C54.8,21.2,55.2,20,55.5,19z"/>
						</defs>
						<clipPath id="SVGID_6_">
							<use xlink:href="#SVGID_5_"  style="overflow:visible;"/>
						</clipPath>
						<g class="st6">
							<path class="st7" d="M55.5,19v2.4c-0.2,0.9-0.5,1.8-0.9,2.9v-2.4C54.9,20.8,55.2,19.9,55.5,19"/>
							<path class="st8" d="M54.5,21.9v2.4c-0.1,0.2-0.2,0.4-0.2,0.6v-2.4C54.4,22.3,54.5,22.1,54.5,21.9"/>
						</g>
					</g>
				</g>
			</g>
			<g>
				<path class="st9" d="M54.3,22.5L50.5,22c0.7-1.4,1.3-2.6,1.6-3.5l3.4,0.5C55.2,20,54.8,21.2,54.3,22.5z"/>
			</g>
		</g>
		<g class="st4">
			<g>
				<polygon class="st10" points="45.5,23.3 45.5,25.7 43.6,24.6 43.6,22.2 				"/>
			</g>
			<g>
				<polygon class="st10" points="60.9,26.4 60.9,28.8 54.7,25.3 54.7,22.8 				"/>
			</g>
			<g>
				<polygon class="st11" points="50.4,23.3 50.4,25.8 43,30 43.1,27.6 				"/>
			</g>
			<g>
				<polygon class="st11" points="69.6,28.5 69.6,30.9 67.1,32.4 67.1,30 				"/>
			</g>
			<g>
				<polygon class="st10" points="67.1,30 67.1,32.4 63.7,30.5 63.7,28 				"/>
			</g>
			<g>
				<path class="st9" d="M43.1,27.6c1,0.1,2.5,0.3,4.5,0.5c-0.9,0.6-1.7,1.2-2.6,1.9c-3.8-0.4-6.4-0.7-8-0.6l0.5-1.9
					c0.7,0,1.4-0.2,2-0.6l6-3.5l-1.9-1.1l2.4-1.4l4.4,2.5L43.1,27.6z"/>
			</g>
			<g class="st4">
				<g>
					<g>
						<defs>
							<path id="SVGID_7_" d="M47.6,28.1v2.4c-0.9,0.6-1.7,1.2-2.6,1.9V30C45.8,29.3,46.7,28.7,47.6,28.1z"/>
						</defs>
						<clipPath id="SVGID_8_">
							<use xlink:href="#SVGID_7_"  style="overflow:visible;"/>
						</clipPath>
						<g class="st12">
							<path class="st13" d="M47.6,28.1v2.4c-0.9,0.6-1.7,1.2-2.6,1.9V30C45.8,29.3,46.7,28.7,47.6,28.1"/>
						</g>
					</g>
				</g>
			</g>
			<g class="st4">
				<g>
					<g>
						<defs>
							<path id="SVGID_9_" d="M45,29.9v2.4c-3.8-0.4-6.4-0.7-8-0.6v-2.4C38.6,29.3,41.3,29.5,45,29.9z"/>
						</defs>
						<clipPath id="SVGID_10_">
							<use xlink:href="#SVGID_9_"  style="overflow:visible;"/>
						</clipPath>
						<g class="st14">
							<path class="st15" d="M45,29.9v2.4c-1.7-0.2-3.2-0.4-4.4-0.5v-2.4C41.9,29.6,43.3,29.7,45,29.9"/>
							<path class="st7" d="M40.6,29.5v2.4c-1-0.1-1.9-0.1-2.7-0.2v-2.4C38.7,29.3,39.6,29.4,40.6,29.5"/>
							<path class="st8" d="M37.9,29.3v2.4c-0.4,0-0.7,0-1,0v-2.4C37.3,29.3,37.6,29.3,37.9,29.3"/>
						</g>
					</g>
				</g>
			</g>
			<g>
				<polygon class="st11" points="63.7,28 63.7,30.5 52.4,37 52.4,34.6 				"/>
			</g>
			<g>
				<path class="st9" d="M57.3,21.4l12.3,7.1L67.1,30l-3.4-1.9l-11.3,6.6c-0.8,0.4-1.5,0.7-2.2,0.8s-1.4,0.1-2.1-0.1
					s-2.5-1.1-5.5-2.8c0.8-0.7,1.5-1.4,2.2-2.1c0.9,0.6,1.7,1.1,2.5,1.6c0.5,0.3,1,0.5,1.3,0.6s0.6,0.1,1,0.1s0.8-0.2,1.2-0.4
					L61,26.5l-6.2-3.6L57.3,21.4z"/>
			</g>
			<g class="st4">
				<g>
					<g>
						<defs>
							<path id="SVGID_11_" d="M52.4,34.6V37c-0.8,0.4-1.5,0.7-2.2,0.8s-1.4,0.1-2.1-0.1s-2.5-1.1-5.5-2.8v-2.4
								c3,1.7,4.8,2.7,5.5,2.8c0.7,0.2,1.4,0.2,2.1,0.1C51,35.3,51.7,35,52.4,34.6z"/>
						</defs>
						<clipPath id="SVGID_12_">
							<use xlink:href="#SVGID_11_"  style="overflow:visible;"/>
						</clipPath>
						<g class="st16">
							<path class="st17" d="M52.4,34.6V37c-0.5,0.3-1,0.5-1.4,0.7v-2.4C51.5,35.1,52,34.9,52.4,34.6"/>
							<path class="st13" d="M51,35.2v2.4c-0.2,0.1-0.5,0.1-0.7,0.2v-2.4C50.5,35.4,50.8,35.3,51,35.2"/>
							<path class="st18" d="M50.3,35.4v2.4c0,0,0,0-0.1,0s-0.2,0-0.4,0v-2.4C50,35.4,50.1,35.4,50.3,35.4L50.3,35.4"/>
							<path class="st19" d="M49.9,35.5v2.4c-0.1,0-0.2,0-0.3,0v-2.4C49.7,35.5,49.8,35.5,49.9,35.5"/>
							<path class="st8" d="M49.6,35.5v2.4c-0.1,0-0.2,0-0.3,0v-2.4C49.4,35.5,49.5,35.5,49.6,35.5"/>
							<path class="st7" d="M49.3,35.5v2.4c-0.1,0-0.2,0-0.3,0v-2.4C49.1,35.5,49.2,35.5,49.3,35.5"/>
							<path class="st15" d="M49,35.5v2.4c-0.1,0-0.2,0-0.3,0v-2.4C48.8,35.4,48.9,35.5,49,35.5"/>
							<path class="st20" d="M48.7,35.4v2.4c-0.1,0-0.2,0-0.3-0.1v-2.4C48.5,35.4,48.6,35.4,48.7,35.4"/>
							<path class="st21" d="M48.4,35.4v2.4c-0.1,0-0.1,0-0.2,0c0,0,0,0-0.1,0v-2.4c0,0,0,0,0.1,0C48.2,35.3,48.3,35.4,48.4,35.4"/>
							<path class="st22" d="M48.1,35.3v2.4c-0.1,0-0.2-0.1-0.3-0.1v-2.4C47.9,35.2,48,35.3,48.1,35.3"/>
							<path class="st23" d="M47.8,35.2v2.4c-0.9-0.3-2.6-1.2-5.1-2.7v-2.4C45.2,34,46.9,34.9,47.8,35.2"/>
						</g>
					</g>
				</g>
			</g>
		</g>
		<g class="st4">
			<g class="st4">
				<g>
					<g>
						<defs>
							<path id="SVGID_13_" d="M68.9,32.7v2.4c-1.1,0-2.2-0.1-3.4-0.2v-2.4C66.6,32.6,67.7,32.6,68.9,32.7z"/>
						</defs>
						<clipPath id="SVGID_14_">
							<use xlink:href="#SVGID_13_"  style="overflow:visible;"/>
						</clipPath>
						<g class="st24">
							<path class="st7" d="M68.9,32.7v2.4c-0.9,0-1.8-0.1-2.8-0.2v-2.4C67,32.6,67.9,32.6,68.9,32.7"/>
							<path class="st15" d="M66.1,32.5v2.4c-0.2,0-0.4,0-0.6-0.1v-2.4C65.7,32.5,65.9,32.5,66.1,32.5"/>
						</g>
					</g>
				</g>
			</g>
			<g class="st4">
				<g>
					<g>
						<defs>
							<path id="SVGID_15_" d="M77.6,32.4v2.4c-1.3,0.1-2.7,0.2-4.1,0.3v-2.4C74.9,32.7,76.3,32.6,77.6,32.4z"/>
						</defs>
						<clipPath id="SVGID_16_">
							<use xlink:href="#SVGID_15_"  style="overflow:visible;"/>
						</clipPath>
						<g class="st25">
							<path class="st18" d="M77.6,32.4v2.4c-0.2,0-0.4,0-0.6,0.1v-2.4C77.2,32.4,77.4,32.4,77.6,32.4"/>
							<path class="st19" d="M77.1,32.5v2.4c-1.1,0.1-2.2,0.2-3.4,0.2v-2.4C74.8,32.7,75.9,32.6,77.1,32.5"/>
							<path class="st8" d="M73.7,32.7v2.4h-0.1v-2.4C73.6,32.7,73.6,32.7,73.7,32.7"/>
						</g>
					</g>
				</g>
			</g>
			<g>
				<polygon class="st11" points="73.5,32.7 73.5,35.1 68.3,38.2 68.3,35.7 				"/>
			</g>
			<g>
				<path class="st9" d="M68.9,32.7c-1.1,0-2.2-0.1-3.4-0.2c0.6-0.5,1.3-1.1,2.1-1.8c2.9,0.2,5.6,0.2,8-0.1l2.1,1.8
					c-1.3,0.1-2.7,0.2-4.1,0.3l-5.2,3L66,34.3L68.9,32.7z"/>
			</g>
			<g>
				<polygon class="st10" points="68.3,35.7 68.3,38.2 65.9,36.8 65.9,34.4 				"/>
			</g>
			<g>
				<polygon class="st11" points="82.5,34.7 82.5,37.1 80,38.5 80,36.1 				"/>
			</g>
			<g class="st4">
				<g>
					<g>
						<defs>
							<path id="SVGID_17_" d="M74.4,36.5v2.4c-1-0.3-2-0.6-3.1-1v-2.4C72.3,35.8,73.4,36.2,74.4,36.5z"/>
						</defs>
						<clipPath id="SVGID_18_">
							<use xlink:href="#SVGID_17_"  style="overflow:visible;"/>
						</clipPath>
						<g class="st26">
							<path class="st22" d="M74.4,36.5v2.4c-1-0.3-2-0.6-3.1-1v-2.4C72.3,35.8,73.4,36.2,74.4,36.5"/>
						</g>
					</g>
				</g>
			</g>
			<g class="st4">
				<g>
					<g>
						<defs>
							<path id="SVGID_19_" d="M77.3,40.3v-2.4c0-0.2,0.1-0.3,0.3-0.4v2.4C77.5,40,77.4,40.2,77.3,40.3z"/>
						</defs>
						<clipPath id="SVGID_20_">
							<use xlink:href="#SVGID_19_"  style="overflow:visible;"/>
						</clipPath>
						<g class="st27">
							<path class="st13" d="M77.7,37.4v2.4c-0.1,0-0.1,0.1-0.2,0.1v-2.4C77.6,37.5,77.6,37.5,77.7,37.4"/>
							<path class="st18" d="M77.5,37.6V40l-0.1,0.1L77.5,37.6L77.5,37.6"/>
							<path class="st19" d="M77.4,37.6V40c0,0,0,0,0,0.1V37.6C77.4,37.7,77.4,37.7,77.4,37.6"/>
							<path class="st8" d="M77.4,37.7v2.4c0,0,0,0,0,0.1V37.7L77.4,37.7"/>
							<path class="st7" d="M77.4,37.7v2.4c0,0,0,0,0,0.1V37.7C77.4,37.8,77.4,37.8,77.4,37.7"/>
							<path class="st15" d="M77.4,37.8v2.4c0,0,0,0,0,0.1V37.8L77.4,37.8"/>
							<polyline class="st20" points="77.4,37.9 77.3,40.3 77.3,40.3 77.4,37.9 77.4,37.9 							"/>
						</g>
					</g>
				</g>
			</g>
			<g class="st4">
				<g>
					<g>
						<defs>
							<path id="SVGID_21_" d="M73.5,40.1v-2.4c0,0.5,0.5,1.1,1.5,1.7v2.4C74,41.1,73.5,40.6,73.5,40.1z"/>
						</defs>
						<clipPath id="SVGID_22_">
							<use xlink:href="#SVGID_21_"  style="overflow:visible;"/>
						</clipPath>
						<g class="st28">
							<path class="st23" d="M75,39.3v2.4c-1-0.6-1.5-1.1-1.5-1.7v-2.4C73.5,38.1,74,38.7,75,39.3"/>
						</g>
					</g>
				</g>
			</g>
			<g class="st4">
				<g>
					<g>
						<defs>
							<path id="SVGID_23_" d="M86.3,39.4v2.4c-2.6-0.4-5.5-1.1-8.6-1.9v-2.4C80.8,38.3,83.6,38.9,86.3,39.4z"/>
						</defs>
						<clipPath id="SVGID_24_">
							<use xlink:href="#SVGID_23_"  style="overflow:visible;"/>
						</clipPath>
						<g class="st29">
							<path class="st20" d="M86.3,39.4v2.4c-0.8-0.1-1.7-0.3-2.5-0.5v-2.4C84.6,39.1,85.4,39.2,86.3,39.4"/>
							<path class="st21" d="M83.7,38.9v2.4c-1.9-0.4-3.9-0.9-6-1.5v-2.4C79.8,38,81.8,38.5,83.7,38.9"/>
						</g>
					</g>
				</g>
			</g>
			<g>
				<polygon class="st30" points="86.6,37.4 86.5,39.8 86.2,41.8 86.3,39.4 				"/>
			</g>
			<g>
				<polygon class="st10" points="78.9,41.5 78.9,44 75,41.7 75,39.3 				"/>
			</g>
			<g>
				<path class="st9" d="M84.4,39.4c0.4,0.6,0.9,1.2,1.5,1.8c-1,0.4-1.8,0.7-2.5,1c-0.7,0.2-1.4,0.3-2.1,0.2
					c-0.7-0.1-1.5-0.4-2.3-0.9l-3.9-2.2c-1.8-1-2-2-0.7-2.8c-1-0.3-2-0.6-3.1-1l1.3-1.7c1.4,0.5,2.8,1,4.1,1.4l3.3-1.9l2.5,1.4
					L80,36.1c2.3,0.6,4.5,1,6.6,1.3l-0.3,2c-2.6-0.4-5.5-1.1-8.6-1.9c-0.5,0.3-0.4,0.7,0.4,1.2l2.5,1.5c0.4,0.2,0.8,0.3,1.2,0.4
					C82.3,40.4,83.1,40.1,84.4,39.4z"/>
			</g>
			<g class="st4">
				<g>
					<g>
						<defs>
							<path id="SVGID_25_" d="M85.8,41.3v2.4c-1,0.4-1.8,0.7-2.5,1c-0.7,0.2-1.4,0.3-2.1,0.2c-0.7-0.1-1.5-0.4-2.3-0.9v-2.4
								c0.8,0.5,1.6,0.7,2.3,0.9c0.7,0.1,1.4,0.1,2.1-0.2C84,42,84.9,41.7,85.8,41.3z"/>
						</defs>
						<clipPath id="SVGID_26_">
							<use xlink:href="#SVGID_25_"  style="overflow:visible;"/>
						</clipPath>
						<g class="st31">
							<path class="st17" d="M85.8,41.3v2.4c-1,0.4-1.8,0.7-2.5,1v-2.4C84,42,84.9,41.7,85.8,41.3"/>
							<path class="st13" d="M83.4,42.2v2.4l0,0c-0.2,0.1-0.4,0.1-0.6,0.1v-2.4C82.9,42.3,83.1,42.3,83.4,42.2
								C83.3,42.2,83.3,42.2,83.4,42.2"/>
							<path class="st18" d="M82.7,42.4v2.4c-0.1,0-0.2,0-0.4,0.1v-2.4C82.5,42.4,82.6,42.4,82.7,42.4"/>
							<path class="st19" d="M82.4,42.4v2.4c-0.1,0-0.2,0-0.3,0v-2.4C82.2,42.4,82.3,42.4,82.4,42.4"/>
							<path class="st8" d="M82.1,42.4v2.4c-0.1,0-0.2,0-0.3,0v-2.4C81.9,42.4,82,42.4,82.1,42.4"/>
							<path class="st7" d="M81.8,42.4v2.4c-0.1,0-0.2,0-0.3,0v-2.4C81.6,42.4,81.7,42.4,81.8,42.4"/>
							<path class="st15" d="M81.5,42.4v2.4c-0.1,0-0.2,0-0.3,0v-2.4C81.4,42.4,81.5,42.4,81.5,42.4"/>
							<path class="st20" d="M81.3,42.4v2.4c0,0,0,0-0.1,0s-0.2,0-0.3,0v-2.4C81,42.3,81.1,42.4,81.3,42.4
								C81.2,42.4,81.2,42.4,81.3,42.4"/>
							<path class="st21" d="M80.9,42.3v2.4c-0.1,0-0.3-0.1-0.4-0.1v-2.4C80.7,42.3,80.8,42.3,80.9,42.3"/>
							<path class="st22" d="M80.6,42.2v2.4c-0.2-0.1-0.4-0.1-0.6-0.2V42C80.2,42.1,80.4,42.2,80.6,42.2"/>
							<path class="st23" d="M80,42v2.4c-0.3-0.1-0.7-0.3-1.1-0.5v-2.4C79.3,41.7,79.6,41.9,80,42"/>
						</g>
					</g>
				</g>
			</g>
		</g>
		<g class="st4">
			<g>
				<polygon class="st10" points="61.5,39.5 61.5,42 58.9,40.5 58.9,38 				"/>
			</g>
			<g>
				<polygon class="st11" points="65.4,37.3 65.4,39.7 61.5,42 61.5,39.5 				"/>
			</g>
			<g>
				<polygon class="st10" points="74.4,42.4 74.4,44.9 65.4,39.7 65.4,37.3 				"/>
			</g>
			<g class="st4">
				<g>
					<g>
						<defs>
							<path id="SVGID_27_" d="M70.8,41.2v2.4c-1,0.4-1.9,0.8-2.9,1v-2.4C68.9,41.9,69.8,41.6,70.8,41.2z"/>
						</defs>
						<clipPath id="SVGID_28_">
							<use xlink:href="#SVGID_27_"  style="overflow:visible;"/>
						</clipPath>
						<g class="st32">
							<path class="st17" d="M70.8,41.2v2.4c-0.6,0.3-1.2,0.5-1.8,0.7v-2.4C69.6,41.7,70.2,41.4,70.8,41.2"/>
							<path class="st13" d="M69,41.9v2.4c-0.4,0.1-0.7,0.2-1,0.3v-2.4C68.3,42.1,68.6,42,69,41.9"/>
						</g>
					</g>
				</g>
			</g>
			<g class="st4">
				<g>
					<g>
						<defs>
							<path id="SVGID_29_" d="M64.7,42.6V45c-2.6,0.1-6.1-0.8-10.5-2.9v-2.4C58.6,41.8,62.1,42.8,64.7,42.6z"/>
						</defs>
						<clipPath id="SVGID_30_">
							<use xlink:href="#SVGID_29_"  style="overflow:visible;"/>
						</clipPath>
						<g class="st33">
							<path class="st19" d="M64.7,42.6V45c-0.1,0-0.1,0-0.2,0v-2.4C64.6,42.6,64.6,42.6,64.7,42.6"/>
							<path class="st8" d="M64.5,42.6V45c-0.2,0-0.4,0-0.6,0v-2.4C64.1,42.6,64.3,42.6,64.5,42.6"/>
							<path class="st7" d="M64,42.6V45c-0.2,0-0.4,0-0.6,0v-2.4C63.5,42.6,63.7,42.6,64,42.6"/>
							<path class="st15" d="M63.3,42.6V45c-0.2,0-0.5,0-0.8-0.1v-2.4C62.8,42.5,63.1,42.6,63.3,42.6"/>
							<path class="st20" d="M62.5,42.5v2.4c-0.3,0-0.7-0.1-1-0.2v-2.4C61.9,42.4,62.2,42.5,62.5,42.5"/>
							<path class="st21" d="M61.5,42.3v2.4c-0.5-0.1-1-0.2-1.5-0.4v-2.4C60.6,42.1,61.1,42.2,61.5,42.3"/>
							<path class="st22" d="M60.1,42v2.4c-0.9-0.2-1.8-0.6-2.7-0.9v-2.4C58.3,41.4,59.2,41.7,60.1,42"/>
							<path class="st23" d="M57.3,41v2.4c-1-0.4-2-0.8-3.1-1.4v-2.4C55.3,40.2,56.4,40.7,57.3,41"/>
						</g>
					</g>
				</g>
			</g>
			<g>
				<polygon class="st10" points="73.3,46.1 73.3,48.5 70.7,47 70.7,44.6 				"/>
			</g>
			<g>
				<polygon class="st11" points="79.2,42.6 79.2,45.1 73.3,48.5 73.3,46.1 				"/>
			</g>
			<g>
				<polygon class="st9" points="73.3,46.1 70.7,44.6 74.4,42.4 65.4,37.3 61.5,39.5 58.9,38 65.1,34.5 79.2,42.6 				"/>
			</g>
			<g>
				<polygon class="st34" points="73.4,48 73.4,50.4 69.8,51 69.8,48.6 				"/>
			</g>
			<g>
				<path class="st9" d="M70.8,41.2c-1,0.4-1.9,0.8-2.9,1c1.4,1.4,3.2,3.3,5.5,5.8l-3.7,0.6c-2.1-2.5-3.8-4.5-5.1-6
					c-2.6,0.1-6.1-0.8-10.5-2.9c0.4-0.6,0.8-1.3,1.3-2.2c3.2,1.6,5.7,2.6,7.4,2.9s3.5,0,5.1-0.8L70.8,41.2z"/>
			</g>
			<g class="st4">
				<g>
					<g>
						<defs>
							<path id="SVGID_31_" d="M69.8,48.6V51c-2.1-2.5-3.8-4.5-5.1-6v-2.4C66,44.1,67.7,46.1,69.8,48.6z"/>
						</defs>
						<clipPath id="SVGID_32_">
							<use xlink:href="#SVGID_31_"  style="overflow:visible;"/>
						</clipPath>
						<g class="st35">
							<path class="st23" d="M69.8,48.6V51c-2.1-2.5-3.8-4.5-5.1-6v-2.4C66,44.1,67.7,46.1,69.8,48.6"/>
						</g>
					</g>
				</g>
			</g>
		</g>
	</g>
</g>
</svg>
