<?xml version="1.0" encoding="utf-8"?>
<!-- Generator: Adobe Illustrator 22.0.0, SVG Export Plug-In . SVG Version: 6.00 Build 0)  -->
<svg version="1.1" id="图层_1" xmlns="http://www.w3.org/2000/svg" xmlns:xlink="http://www.w3.org/1999/xlink" x="0px" y="0px"
	 viewBox="0 0 515.9 728.5" style="enable-background:new 0 0 515.9 728.5;" xml:space="preserve">
<style type="text/css">
	.st0{fill:#FBC0BD;}
	.st1{fill:#F5BDB8;}
	.st2{fill:#001A3F;}
	.st3{fill:#FFFFFF;}
	.st4{fill:#58514D;}
	.st5{fill:#D2E6FF;}
	.st6{fill:#F1F1F1;}
	.st7{fill:#F1B4B3;}
	.st8{fill:#FDC2BF;}
	.st9{fill:#102658;}
	.st10{fill:#5392F8;}
	.st11{fill:#E4EFFF;}
	.st12{opacity:0.15;fill:#101114;}
	.st13{fill:#A8A8A8;}
	.st14{fill:#E8E8E8;}
	.st15{fill:#DBDBDB;}
	.st16{fill:#BABABA;}
	.st17{fill:#999999;}
	.st18{fill:none;stroke:#DBDBDB;}
	.st19{fill:#E4DCB9;}
	.st20{fill:#F6EDD2;}
	.st21{fill:#DCC69B;}
	.st22{fill:#C9AD7A;}
	.st23{fill:#F1E1BB;}
	.st24{fill:#FCB3A6;}
	.st25{fill:#B34949;}
	.st26{fill:#370102;}
	.st27{fill:#F2A39A;}
	.st28{fill:#E2E2E2;}
	.st29{fill:#3A807D;}
</style>
<g>
	<g>
		<path class="st0" d="M162.6,153.6l-1.5,5.6l1.6,2.2c0,0,1.1-4.2,0.9-7.2L162.6,153.6z"/>
		<path class="st1" d="M147.2,205.1c0,0-0.3,0.8,0,1.8l-0.9,0.4l-0.8-0.4l-0.1-1.7L147.2,205.1z"/>
		<path class="st1" d="M152.8,203.2c0,0-0.3,0.9,1,1.2l-1.6,0.9l-1.4-1.1c0,0,0.2-1.1,0.3-1.5L152.8,203.2z"/>
		<path class="st2" d="M145.5,193.7l-0.5-8.3c0,0-0.2-2.3,0-3.1c0.4-2,0.5-2.6,0.5-2.6l4.3,0.2l3.6-2.3c0.6,1.5,0.2,9.3,0.1,15.2
			l-0.3,10.4c0,0-1.3,0.6-2.5-0.4l-0.5-10.1c0,0-0.8-8.1-1-7.9c-0.1,0.1-0.6,9.5-0.6,9.5l-0.7,10.9c0,0-1.7,1.3-2.9-0.2L145.5,193.7
			z"/>
		<path class="st3" d="M152.9,204.3c0,0-0.4-0.2-0.7,0.3l0,0.7l-0.7-0.5c0,0-0.4,0-0.8-0.4c0,0,0,0.5,0,1c0,0.1,0.1,0.2,0.2,0.2
			c0.1,0,0.1,0,0.2,0c0.2,0,0.3,0,0.5,0.1c0.1,0,0.1,0,0.2,0c0.2,0,0.3,0.1,0.5,0.1c0.2,0,0.3,0.1,0.5,0.2c0.2,0.1,0.4,0.2,0.6,0.3
			c0.5,0.1,1.2,0.3,1.6,0.1c0,0,0.8-0.2,0.5-0.8C155.5,205.7,154.9,205.2,152.9,204.3z"/>
		<path class="st4" d="M152.9,203.9c0,0-0.5-0.2-0.8,0.3l-0.4,0c0,0-0.5,0.1-1-0.3c0,0-0.1,0.9,0,1.4c0,0,0.2,0,0.2,0
			c0.2,0,0.4,0,0.6,0.1c0.2,0,0.5,0.1,0.7,0.2c0.2,0.1,0.4,0.1,0.6,0.2c0.2,0.1,0.4,0.2,0.6,0.3c0.5,0.1,1.2,0.3,1.6,0.1
			c0,0,0.8-0.2,0.5-0.8C155.5,205.4,154.9,204.7,152.9,203.9z"/>
		<path class="st3" d="M147.3,206.9c0,0,0.3,1.6,1,2.2c0,0,0.5,1.1-0.4,1.4c0,0-1.5,0.5-1.9-1.8c0,0-0.1-0.7-0.3-1.1
			c-0.1-0.1-0.1-0.3-0.1-0.5l0-0.7c0,0,0.2,0.6,0.5,0.7C145.9,207.2,146.4,206.4,147.3,206.9z"/>
		<path class="st4" d="M147.3,206.4c0,0,0.2,1.4,0.9,2.1c0.1,0.1,0.2,0.3,0.2,0.5c0.1,0.4,0.1,0.9-0.5,1.1c0,0-1.5,0.5-1.9-1.8
			c0,0-0.1-0.9-0.5-1.3l0-1c0,0,0.2,0.6,0.5,0.7C145.9,206.7,146.4,205.9,147.3,206.4z"/>
		<path class="st5" d="M152.1,163c0,0-0.1-0.8,3.7-1.8l4.3-1.4c0.4-0.9,2.6,0.6,2.1,2c-2.4,1-6,3.5-8.3,3.9L152.1,163z"/>
		<g>
			<path class="st6" d="M145.5,166.1c0,0,5-3.8,6.9-4.1c0,0,2.3-1,2.3,0.3c0,0-1.3,11.6-1.2,16.1l0,0c0,0-3.7,1.4-8.2,0.6
				C145.1,176.6,144.4,168.5,145.5,166.1z"/>
			<path d="M153.6,178.4L153.6,178.4c0,0.3,0,0.5,0.1,0.8c0,0-2.7,1.3-8.2,0.5c0,0,0-0.3-0.1-0.7
				C149.8,179.8,153.6,178.4,153.6,178.4z"/>
		</g>
		<path class="st7" d="M151.2,163.8l-0.3,1.2c0,0-1.5,0.5-2.1-0.6l-0.1-2.5L151.2,163.8z"/>
		<polygon class="st5" points="148.7,163 150.7,165.1 150,166.5 148.1,164.2 		"/>
		<polygon class="st5" points="150.7,165.1 151.3,163.5 152.1,163.8 151.5,166 		"/>
		<path class="st8" d="M152.3,158.1c0,0,0.9,1.2,0.7,2.1c0,0,0.8,2.6-0.6,3.3c0,0-1,1.1-2.8-0.4l-1-1.1c0,0-0.7,0.7-1.2-1.3
			c0,0-0.6-2.8,1.2-3L152.3,158.1z"/>
		<path class="st9" d="M152.2,157.7c0,0,0.4,0.7-0.1,0.8c0,0-1,0.4-1.8,0c0,0-0.9,0-0.9,0.7c0,0,0.2,1.3-0.2,1.6
			c0,0-0.4,0.4-0.2,0.9l-0.3,0c0,0-0.1-1.2-0.6-1.2c0,0-0.4,0.7-0.6,0.2c0,0-1-3,1-3.6C148.5,157.1,150.5,156,152.2,157.7z"/>
		<polygon class="st10" points="150.7,165.1 151.3,165.8 151.2,166.9 150.6,167 150.2,166.2 		"/>
		<polygon class="st10" points="151.2,166.9 151.7,171.5 150.5,176.7 149.9,171.5 150.6,167 		"/>
		<path class="st11" d="M161.1,159.2c0,0-0.9,0.1-1.3,0.8c0,0,1.6,1.6,1.6,2.3c0,0,1.3-0.4,1.3-0.9
			C162.7,161.4,162.4,159.9,161.1,159.2z"/>
		<g>
			<path class="st0" d="M158.2,176c0.4,0,0.4-0.3,0.4-0.3l-0.5-0.2c0.5,0.1,0.6-0.3,0.6-0.3l-1.3-0.4l-1.5,0.5l-1.2,0.2l-0.1,1.1
				l1,0.2l1.1,0l0.6,0c0.5,0.2,0.6-0.2,0.6-0.2l-0.7-0.2l0.5,0c0.6,0.3,0.7-0.3,0.7-0.3L158.2,176z"/>
			<path class="st0" d="M155.2,175.4l-4.9-0.9l-2.1,1.3c1.6,0.6,3.6,0.8,6.5,0.7L155.2,175.4z"/>
			<path class="st5" d="M145.4,166.1c0,0,1.3,2,2.1,4.3s1.9,3.3,1.9,3.3l-1.6,1.9c-1.7-1.3-2.5-2.4-3.6-4.8
				C144.2,170.8,143.7,168.1,145.4,166.1z"/>
			<path class="st11" d="M150.3,174.5c0,0-0.3-0.7-1.1-1c0,0-1.5,1.7-2.3,1.7c0,0,0.8,0.9,1.4,0.9
				C148.4,176.1,149.6,175.4,150.3,174.5z"/>
		</g>
		<path class="st0" d="M162.6,153.6l1-1.3c0,0,1.4-0.6,1.4-0.1c0,0.5-1.1,0.6-1.1,0.6l-0.6,0.8l-0.1,0.5l-0.2-0.1L162.6,153.6z"/>
	</g>
	<g>
		<g>
			<polygon class="st12" points="330.9,120.1 158.4,226.2 130.1,214.1 304.1,109 			"/>
			<path class="st13" d="M160.4,223.6c0,1-0.9,1.9-2.1,1.9l0,0c-1.1,0-2.1-0.9-2.1-1.9v-10.8c0-1.1,0.9-1.9,2.1-1.9l0,0
				c1.1,0,2.1,0.8,2.1,1.9V223.6z"/>
			<path class="st13" d="M134.3,212.9c0,1-0.9,1.9-2.1,1.9l0,0c-1.1,0-2.1-0.9-2.1-1.9v-10.8c0-1.1,0.9-1.9,2.1-1.9l0,0
				c1.1,0,2.1,0.8,2.1,1.9V212.9z"/>
			<path class="st13" d="M328.5,120.1c0,1-0.9,1.9-2.1,1.9l0,0c-1.1,0-2.1-0.9-2.1-1.9v-10.8c0-1,0.9-1.9,2.1-1.9l0,0
				c1.1,0,2.1,0.9,2.1,1.9V120.1z"/>
			<g>
				<g>
					<polygon class="st3" points="154.8,207.6 127.8,195 303.7,91.1 330.7,101.9 					"/>
					<polyline class="st14" points="127.8,195 127.8,209.3 154.4,221.5 154.4,206.8 					"/>
					<polygon class="st15" points="154.4,206.8 154.4,221.6 330.7,114.4 330.7,101.9 					"/>
				</g>
				<g>
					<path class="st16" d="M158.6,207.3c-2.2,2.4-2.4,5.7-0.4,7.2c2,1.5,5.5,0.8,7.7-1.7c2.2-2.4,2.4-5.7,0.4-7.2
						C164.3,204.1,160.9,204.9,158.6,207.3z"/>
					<path class="st17" d="M160.7,209.1c-1.3,1.4-1.4,3.2-0.4,4c1.1,0.8,3,0.4,4.2-1c1.3-1.4,1.4-3.2,0.4-4
						C163.8,207.3,161.9,207.7,160.7,209.1z"/>
				</g>
				<g>
					<path class="st16" d="M176.7,196.3c-2.2,2.4-2.4,5.7-0.4,7.2c2,1.5,5.5,0.8,7.7-1.7c2.2-2.4,2.4-5.7,0.4-7.2
						C182.4,193.1,178.9,193.9,176.7,196.3z"/>
					<path class="st17" d="M178.7,198.1c-1.3,1.4-1.4,3.2-0.4,4c1.1,0.8,3,0.4,4.2-1c1.3-1.4,1.4-3.2,0.4-4
						C181.9,196.3,180,196.8,178.7,198.1z"/>
				</g>
				<g>
					<path class="st16" d="M194.7,185.4c-2.2,2.4-2.4,5.7-0.4,7.2c2,1.5,5.5,0.8,7.7-1.7c2.2-2.4,2.4-5.7,0.4-7.2
						C200.4,182.2,197,182.9,194.7,185.4z"/>
					<path class="st17" d="M196.8,187.2c-1.3,1.4-1.4,3.2-0.4,4c1.1,0.8,3,0.4,4.2-1c1.3-1.4,1.4-3.2,0.4-4
						C199.9,185.3,198,185.8,196.8,187.2z"/>
				</g>
				<g>
					<path class="st16" d="M212.8,174.4c-2.2,2.4-2.4,5.7-0.4,7.2c2,1.5,5.5,0.8,7.7-1.7c2.2-2.4,2.4-5.7,0.4-7.2
						C218.5,171.2,215,172,212.8,174.4z"/>
					<path class="st17" d="M214.8,176.2c-1.3,1.4-1.4,3.2-0.4,4c1.1,0.8,3,0.4,4.2-1c1.3-1.4,1.4-3.2,0.4-4
						C218,174.4,216.1,174.8,214.8,176.2z"/>
				</g>
				<g>
					<path class="st16" d="M230.8,163.4c-2.2,2.4-2.4,5.7-0.4,7.2c2,1.5,5.5,0.8,7.7-1.7c2.2-2.4,2.4-5.7,0.4-7.2
						C236.5,160.2,233.1,161,230.8,163.4z"/>
					<path class="st17" d="M232.9,165.2c-1.3,1.4-1.4,3.2-0.4,4c1.1,0.8,3,0.4,4.2-1c1.3-1.4,1.4-3.2,0.4-4
						C236,163.4,234.1,163.9,232.9,165.2z"/>
				</g>
				<g>
					<path class="st16" d="M248.9,152.5c-2.2,2.4-2.4,5.7-0.4,7.2c2,1.5,5.5,0.8,7.7-1.7c2.2-2.4,2.4-5.7,0.4-7.2
						C254.6,149.3,251.1,150,248.9,152.5z"/>
					<path class="st17" d="M250.9,154.3c-1.3,1.4-1.4,3.2-0.4,4c1.1,0.8,3,0.4,4.2-1c1.3-1.4,1.4-3.2,0.4-4
						C254.1,152.4,252.2,152.9,250.9,154.3z"/>
				</g>
				<g>
					<path class="st16" d="M266.9,141.5c-2.2,2.4-2.4,5.7-0.4,7.2c2,1.5,5.5,0.8,7.7-1.7c2.2-2.4,2.4-5.7,0.4-7.2
						C272.6,138.3,269.2,139.1,266.9,141.5z"/>
					<path class="st17" d="M269,143.3c-1.3,1.4-1.4,3.2-0.4,4c1.1,0.8,3,0.4,4.2-1c1.3-1.4,1.4-3.2,0.4-4
						C272.1,141.5,270.2,141.9,269,143.3z"/>
				</g>
				<g>
					<path class="st16" d="M285,130.5c-2.2,2.4-2.4,5.7-0.4,7.2c2,1.5,5.5,0.8,7.7-1.7c2.2-2.4,2.4-5.7,0.4-7.2
						C290.7,127.4,287.2,128.1,285,130.5z"/>
					<path class="st17" d="M287,132.3c-1.3,1.4-1.4,3.2-0.4,4c1.1,0.8,3,0.4,4.2-1c1.3-1.4,1.4-3.2,0.4-4
						C290.2,130.5,288.3,131,287,132.3z"/>
				</g>
				<g>
					<path class="st16" d="M303,119.6c-2.2,2.4-2.4,5.7-0.4,7.2c2,1.5,5.5,0.8,7.7-1.7c2.2-2.4,2.4-5.7,0.4-7.2
						C308.7,116.4,305.3,117.1,303,119.6z"/>
					<path class="st17" d="M305.1,121.4c-1.3,1.4-1.4,3.2-0.4,4c1.1,0.8,3,0.4,4.2-1c1.3-1.4,1.4-3.2,0.4-4
						C308.2,119.5,306.3,120,305.1,121.4z"/>
				</g>
				<g>
					<path class="st16" d="M321.1,108.6c-2.2,2.4-2.4,5.7-0.4,7.2c2,1.5,5.5,0.8,7.7-1.7c2.2-2.4,2.4-5.7,0.4-7.2
						C326.8,105.4,323.3,106.2,321.1,108.6z"/>
					<path class="st17" d="M323.1,110.4c-1.3,1.4-1.4,3.2-0.4,4c1.1,0.8,3,0.4,4.2-1c1.3-1.4,1.4-3.2,0.4-4
						C326.3,108.6,324.4,109,323.1,110.4z"/>
				</g>
				<line class="st18" x1="134.6" y1="191.2" x2="161" y2="202.7"/>
				<line class="st18" x1="141.7" y1="186.7" x2="168" y2="198.3"/>
				<line class="st18" x1="148.7" y1="182.3" x2="175.4" y2="194"/>
				<line class="st18" x1="155.8" y1="177.9" x2="182.7" y2="189.8"/>
				<line class="st18" x1="163.7" y1="173.8" x2="190.6" y2="185.6"/>
				<line class="st18" x1="170.8" y1="169.3" x2="197.6" y2="181.2"/>
				<line class="st18" x1="177.8" y1="164.9" x2="204.7" y2="176.8"/>
				<line class="st18" x1="184.9" y1="160.5" x2="211.8" y2="172.3"/>
				<line class="st18" x1="192" y1="156" x2="218.8" y2="167.9"/>
				<line class="st18" x1="199.4" y1="152.2" x2="226.2" y2="164.1"/>
				<line class="st18" x1="206.8" y1="148.4" x2="233.6" y2="160.3"/>
				<line class="st18" x1="213.8" y1="143.8" x2="240.7" y2="155.7"/>
				<line class="st18" x1="220.9" y1="139.2" x2="247.8" y2="151.1"/>
				<line class="st18" x1="228.6" y1="135.1" x2="254.8" y2="146.5"/>
				<line class="st18" x1="236" y1="130.7" x2="262.6" y2="142.4"/>
				<line class="st18" x1="243.1" y1="126.1" x2="270" y2="138.1"/>
				<line class="st18" x1="250.9" y1="122.1" x2="277.2" y2="134"/>
				<line class="st18" x1="258.3" y1="117.4" x2="284.6" y2="129.3"/>
				<line class="st18" x1="265.7" y1="112.6" x2="292" y2="124.5"/>
				<line class="st18" x1="274.4" y1="108.4" x2="300.8" y2="120.2"/>
				<line class="st18" x1="282.2" y1="103.8" x2="308.5" y2="115.6"/>
				<line class="st18" x1="289.6" y1="99" x2="316" y2="110.9"/>
				<line class="st18" x1="297.2" y1="94.3" x2="323.5" y2="106.1"/>
			</g>
		</g>
	</g>
	<g>
		<polygon class="st19" points="176.1,177.9 165.1,183.7 154.1,177.9 165.1,172 		"/>
		<polygon class="st20" points="160.8,181.4 171.8,175.5 169.3,174.3 158.4,180.1 		"/>
		<polygon class="st21" points="176.1,189.6 165.1,195.4 165.1,183.7 176.1,177.9 		"/>
		<polygon class="st22" points="154.1,189.6 165.1,195.4 165.1,183.7 154.1,177.9 		"/>
		<polygon class="st23" points="160.8,181.4 158.4,180.1 158.4,184.6 160.8,185.9 		"/>
	</g>
	<g>
		<polygon class="st19" points="218.6,153.9 207.7,159.8 196.7,153.9 207.7,148.1 		"/>
		<polygon class="st20" points="203.3,157.5 214.3,151.6 211.9,150.3 200.9,156.2 		"/>
		<polygon class="st21" points="218.6,165.6 207.7,171.5 207.7,159.8 218.6,153.9 		"/>
		<polygon class="st22" points="196.7,165.6 207.7,171.5 207.7,159.8 196.7,153.9 		"/>
		<polygon class="st23" points="203.4,157.5 200.9,156.2 200.9,160.7 203.4,162 		"/>
	</g>
	<g>
		<polygon class="st19" points="258,129.5 247,135.3 236,129.5 247,123.6 		"/>
		<polygon class="st20" points="242.7,133 253.6,127.2 251.2,125.9 240.3,131.8 		"/>
		<polygon class="st21" points="258,141.2 247,147 247,135.3 258,129.5 		"/>
		<polygon class="st22" points="236,141.2 247,147 247,135.3 236,129.5 		"/>
		<polygon class="st23" points="242.7,133.1 240.3,131.8 240.3,136.2 242.7,137.5 		"/>
	</g>
	<g>
		<polygon class="st19" points="302.1,101.4 291.1,107.3 280.1,101.4 291.1,95.6 		"/>
		<polygon class="st20" points="286.8,105 297.7,99.1 295.3,97.8 284.4,103.7 		"/>
		<polygon class="st21" points="302.1,113.1 291.1,119 291.1,107.3 302.1,101.4 		"/>
		<polygon class="st22" points="280.1,113.1 291.1,119 291.1,107.3 280.1,101.4 		"/>
		<polygon class="st23" points="286.8,105 284.4,103.7 284.4,108.2 286.8,109.5 		"/>
	</g>
	<g>
		<polygon class="st24" points="300,115 297.9,118.9 296.9,117.4 298.4,113.7 		"/>
		<path class="st25" d="M307.7,110.2c0,0,0.1-5-3.2-2.8l-5.3,4.5c0,0-0.1,0.1-0.1,0.1c-0.2,0.2-1.2,2.1-1.5,3.1c0,0,1.2,1.2,2,1.3
			l0.8-1.7l0.4,8.6c0,0,0.6,1,2.5,0.9c1.9-0.1,4.1-2.2,4.1-2.2L307.7,110.2z"/>
		<path class="st24" d="M304,107.7l-0.9-1.2l-2.1,1.3l0.8,1.9C301.9,109.6,304,109.1,304,107.7z"/>
		<g>
			<path class="st24" d="M298.5,104.4c-0.1-0.3,0-0.6,0.2-0.9c0,0,1-2.6,3.9-1.6c0,0,1.9,0.9,1.6,3.5c0,0-0.6,1.2-0.3,2.2l-2.3,1.6
				c0,0-0.3-1.6-0.8-1.3c-0.4,0.3-0.9,0.4-1.2,0l0,0C298.6,106.9,298.5,105.8,298.5,104.4z"/>
			<path class="st26" d="M301,106.4l-0.1,1c0,0,1.5,1.1,3.2-1c0,0,1.7-3.2-0.9-5c0,0-1.9-1.4-4.1,0.4c-1.5,1.3-1,2.5-0.5,2.6
				c0,0,1.1,1.5,1.9,1.7L301,106.4z"/>
			<path class="st24" d="M300.2,106.1c0.1,0.5,0.4,0.8,0.7,0.8c0.3-0.1,0.4-0.5,0.3-1c-0.1-0.5-0.4-0.8-0.7-0.8
				C300.2,105.2,300.1,105.7,300.2,106.1z"/>
		</g>
		<path class="st24" d="M297.9,118.8c0,0-0.8,1.5-1.7,0.3c-0.9-1.2-3.5-4-3.5-4l0.8-0.7l3.5,2.9L297.9,118.8z"/>
		<path class="st24" d="M291.4,113c-0.2-0.2-0.1-0.5-0.1-0.5l0.4,0.2c-0.3-0.2-0.1-0.5-0.1-0.5l1,0.6l0.6,1.2l0.6,0.8l-0.6,0.7
			l-0.7-0.5l-0.6-0.7l-0.4-0.3c-0.4-0.2-0.2-0.5-0.2-0.5l0.5,0.3l-0.3-0.3c-0.5-0.2-0.3-0.6-0.3-0.6L291.4,113z"/>
		<path class="st27" d="M306,144c0.3,0.7,0.2,2,0.4,2.8l-0.5,0.8l-1.1-0.4l-0.4-0.5l0.1-2.4L306,144z"/>
		<path class="st3" d="M304.4,145.5c0,0-0.6-0.4-1.3,0c0,0-0.6,0.4,0,1.2c0.1,0.1,0.2,0.2,0.3,0.2c0.3,0.2,1.1,0.7,1.4,1.2
			c0,0.1,0.1,0.1,0.1,0.2c0.2,0.2,0.7,0.7,1.1,0.7c0,0,0.8,0,0.8-0.6c0,0,0-1-0.3-1.3c0,0-0.3,0.1-0.9,0.3c0,0-0.5,0.1-0.8-0.2
			c0,0-0.5-0.5-0.4-1L304.4,145.5z"/>
		<path class="st28" d="M304.4,145.3c0,0-0.6-0.4-1.3,0c0,0-0.6,0.4,0,1.2c0.1,0.1,0.2,0.2,0.3,0.2c0.3,0.2,1.1,0.7,1.4,1.2
			c0,0.1,0.1,0.1,0.1,0.2c0.2,0.2,0.7,0.7,1.1,0.7c0,0,0.8,0,0.8-0.6c0,0,0-1-0.3-1.3c0,0-0.3,0.1-0.9,0.3c0,0-0.5,0.1-0.8-0.2
			c0,0-0.3-0.5-0.2-0.9L304.4,145.3z"/>
		<path class="st27" d="M300.1,146.2c0,0,0.6-0.1,0.5-0.6l1.5-0.3c0,0,0,0.8,0.1,1l0.2,0.5l0,0.7l-1,0.4l-1.2-0.3l-0.6-0.7
			L300.1,146.2z"/>
		<path class="st3" d="M300.1,146.4l0,0.7c0,0,0.7,0.9,1.5,0.7c0,0,0.8-0.1,0.9-0.7c0,0,0.3,0.6,0.2,1.5c0,0,0.2,0.8-3.9,0
			c0,0-1.6-0.2-1.5-1.1c0,0,0-0.9,0.9-0.9L300.1,146.4z"/>
		<path class="st28" d="M300.2,146.2c0.2,0.2,0.2,0.5,0,0.7c0,0,0.5,0.4,1.3,0.3c0,0,0.8,0,0.9-0.5c0,0,0.3,0.8,0.2,1.6
			c0,0,0.2,0.8-3.9,0c0,0-1.6-0.2-1.5-1.1c0,0,0-0.9,0.9-0.9L300.2,146.2z"/>
		<path class="st29" d="M307.4,122.7l0-0.8c0,0-0.9,0.4-2.1,0.8c-1.3,0.4-3.1,0.8-4.5,0.5l0,0.8c0,0-0.6,1.4-0.6,3.1l-0.4,18.7
			c1.2,0.2,2,0.3,3.1,0c-0.1-1.8-0.4-5.6-0.2-9.2c0.1-2.6,0.5-5.4,0.8-7.9l0.5-1.9l0.1,2.2c-0.1,5.3-0.1,13.2,0,16.7
			c0.2-0.1,2.3,0.3,3-0.7l-0.4-9.3l1.1-9.8C307.7,125.8,307.8,124.4,307.4,122.7z"/>
	</g>
</g>
</svg>
