<?xml version="1.0" encoding="utf-8"?>
<!-- Generator: Adobe Illustrator 22.0.0, SVG Export Plug-In . SVG Version: 6.00 Build 0)  -->
<svg version="1.1" id="图层_1" xmlns="http://www.w3.org/2000/svg" xmlns:xlink="http://www.w3.org/1999/xlink" x="0px" y="0px"
	 viewBox="0 0 222 131" style="enable-background:new 0 0 222 131;" xml:space="preserve">
<style type="text/css">
	.st0{opacity:0.5;fill:url(#SVGID_1_);enable-background:new    ;}
	.st1{fill:#DCDCDC;}
</style>
<linearGradient id="SVGID_1_" gradientUnits="userSpaceOnUse" x1="2595.2021" y1="160.2166" x2="2808.9021" y2="160.2166" gradientTransform="matrix(1 0 0 -1 -2595.5354 222.1333)">
	<stop  offset="0" style="stop-color:#412DC3"/>
	<stop  offset="0.9753" style="stop-color:#AED0DB"/>
</linearGradient>
<polygon class="st0" points="-0.3,22.4 37.9,0.2 213.4,101.5 175.2,123.7 "/>
<g>
	<g>
		<g>
			<polygon class="st1" points="195.3,125.3 198,123.7 195.8,122.4 197.5,121.4 199.8,122.7 202.5,121.1 204.2,122 201.4,123.6 
				204.2,125.2 207.5,123.3 209.2,124.3 200.7,129.2 199.1,128.2 202.4,126.3 199.7,124.6 197,126.2 			"/>
		</g>
		<g>
			<path class="st1" d="M200.9,129.8l-1.7,1l-4.5-2.6c0,0.4,0,0.7-0.1,1.1c-1-0.3-1.9-0.5-2.6-0.7c0.1-1.4-0.1-2.7-0.8-4l-2.7,1.6
				l-1.7-1l3.5-2c-0.3-0.4-0.6-0.7-0.9-1.1l2-1c0.3,0.3,0.6,0.6,0.9,1l6.4-3.7l1.7,1l-7.1,4.1c0.6,0.9,0.9,1.8,1.2,2.7L200.9,129.8z
				"/>
		</g>
		<g>
			<path class="st1" d="M210.7,122.1c0.2,0.6,0.2,1.2,0.1,1.9c-0.7-0.3-1.5-0.5-2.3-0.7c0.1-0.4,0-0.9-0.1-1.3
				c-1-0.1-2.2-0.4-3.4-0.8l0.7-1.1c0.7,0.2,1.3,0.4,1.9,0.5c-0.3-0.4-0.8-0.9-1.3-1.3l-1.9,1.1l-1.6-0.9l-0.6-2l-1.7,1l-1.5-0.9
				l3.6-2.1l1.4,0.8l0.6,2.3l1.7-1l1.5,0.9c1,0.8,1.8,1.6,2.3,2.4c1.5,0,3.1-0.6,4.9-1.6l-0.8-0.5l-2.8,1.6l-1.1-0.7l2.8-1.6
				l-0.7-0.4l-2.4,1.4l-1.1-0.7l2.4-1.4l-0.7-0.4l-2.2,1.3l-1.1-0.6l2.2-1.3l-0.7-0.4l-2.8,1.6l-1.3-0.7l2.8-1.6l-0.7-0.4l-2.2,1.3
				l-1.2-0.7l2.2-1.3l-1-0.6l1.6-0.9l1,0.6l3.1-1.8l1.9,1.1l0.8-0.4l1.3,0.7l-0.8,0.4l1.8,1l-3.1,1.8l0.7,0.4l3.1-1.8l1.1,0.7
				l-3.1,1.8l0.7,0.4l3.6-2.1l1.1,0.7l-3.6,2.1l0.8,0.4l4-2.4c0.3,0.4,0.7,0.8,1.2,1.1l-5.2,3c-1.4,0.8-2.5,1.3-3.6,1.6
				C212.1,122,211.3,122.1,210.7,122.1z M211.2,115.3l1.7-1l-0.7-0.4l-1.7,1L211.2,115.3 M209.2,114.1l1.7-1l-0.7-0.4l-1.7,1
				L209.2,114.1"/>
		</g>
	</g>
</g>
</svg>
