<?xml version="1.0" encoding="utf-8"?>
<!-- Generator: Adobe Illustrator 22.0.0, SVG Export Plug-In . SVG Version: 6.00 Build 0)  -->
<svg version="1.1" id="图层_1" xmlns="http://www.w3.org/2000/svg" xmlns:xlink="http://www.w3.org/1999/xlink" x="0px" y="0px"
	 viewBox="0 0 222 131" style="enable-background:new 0 0 222 131;" xml:space="preserve">
<style type="text/css">
	.st0{opacity:0.5;fill:url(#SVGID_1_);enable-background:new    ;}
	.st1{enable-background:new    ;}
	.st2{fill:#DCDCDC;}
</style>
<linearGradient id="SVGID_1_" gradientUnits="userSpaceOnUse" x1="1913.8057" y1="357.2461" x2="2127.6057" y2="357.2461" gradientTransform="matrix(-1 0 0 1 2135.8057 -295.4961)">
	<stop  offset="0" style="stop-color:#412DC3"/>
	<stop  offset="0.9753" style="stop-color:#BBD935"/>
</linearGradient>
<polygon class="st0" points="222,22.2 183.7,0 8.2,101.3 46.5,123.5 "/>
<g>
	<g>
		<g class="st1">
			<g>
				<path class="st2" d="M7.5,118.6l-1,0.6l1.7,0.8c-0.6,0.3-1.1,0.5-1.7,0.8l-1.6-0.7l-2.5,1.4l-1.5-0.9l2.3-1.3l-2.6-1.2l1.5-1
					c0.8,0.4,1.7,0.9,2.6,1.3l1.2-0.7l-2.4-1.4l1.5-0.9c1.1-0.3,2.3-0.7,3.5-1.1l-0.8-0.5l1.5-0.8l1.2,0.7c0.6-0.2,1.2-0.5,1.8-0.7
					l1.5,1c-0.6,0.2-1.2,0.4-1.8,0.6l2.4,1.4l-1.5,0.8l-2.8-1.6c-1.2,0.4-2.4,0.8-3.6,1.1l0.9,0.5l2.1-1.2l1.5,0.9l-2.1,1.2l1.3,0.8
					l-1.5,0.8L7.5,118.6z"/>
			</g>
			<g>
				<path class="st2" d="M17.8,122.4l-4.3-2.5c-0.5,0.2-0.9,0.3-1.4,0.5l4.3,2.5l-1.3,0.8l-4.4,0.3c0.2,0.3,0.4,0.6,0.5,1l-2.4,0.3
					c-0.7-1.4-1.4-2.8-2.2-4.1l2.2-0.2c0.4,0.6,0.8,1.2,1.1,1.9l3.1-0.2l-4.2-2.4l1.2-0.7l1.6-0.6l-1.1-0.7l1.4-0.8l1.5,0.9l1.4-0.5
					l-1.2-0.7l1.4-0.8l1.5,0.9l1.8-0.7l1.8,1l-1.8,0.7l2.9,1.7l-1.4,0.8l-3.2-1.9c-0.5,0.2-0.9,0.3-1.4,0.5l3.9,2.3L17.8,122.4z"/>
			</g>
			<g>
				<path class="st2" d="M34.5,127.3l-1.6,0.9l-3.5-2l0.8,1.4l-2.7,0.1l2.9,1.7l-1.6,0.9l-9.1-5.2l-0.3,0.2c-1.8,1.1-4.2,1.8-7,2.2
					c0-0.4,0-0.9,0-1.5c2.2-0.3,4.1-0.9,5.6-1.7l1.6-1l2.4,1.4c0.1-0.4,0.1-1,0.2-1.5l2.1,0.3l-3.3-1.9l1.6-0.9l5,2.9
					c0.2-0.3,0.5-0.6,0.7-0.9l2.3,1l-1,1L34.5,127.3z M25.5,126.5c1.2-0.1,2.4-0.2,3.7-0.4l-4.5-2.6l-0.3,1.9l-1-0.1L25.5,126.5"/>
			</g>
		</g>
	</g>
</g>
</svg>
