<?xml version="1.0" encoding="utf-8"?>
<!-- Generator: Adobe Illustrator 22.0.0, SVG Export Plug-In . SVG Version: 6.00 Build 0)  -->
<svg version="1.1" id="图层_1" xmlns="http://www.w3.org/2000/svg" xmlns:xlink="http://www.w3.org/1999/xlink" x="0px" y="0px"
	 viewBox="0 0 50 52" style="enable-background:new 0 0 50 52;" xml:space="preserve">
<style type="text/css">
	.st0{enable-background:new    ;}
	.st1{clip-path:url(#SVGID_2_);}
	.st2{clip-path:url(#SVGID_4_);}
	.st3{clip-path:url(#SVGID_6_);}
	.st4{clip-path:url(#SVGID_10_);}
	.st5{clip-path:url(#SVGID_12_);}
	.st6{fill:url(#SVGID_15_);}
	.st7{fill:url(#SVGID_16_);}
	.st8{fill:url(#SVGID_17_);}
	.st9{fill:url(#SVGID_18_);}
	.st10{fill:url(#SVGID_19_);}
	.st11{fill:url(#SVGID_20_);}
	.st12{fill:url(#SVGID_21_);}
	.st13{fill:url(#SVGID_22_);}
	.st14{fill:url(#SVGID_23_);}
	.st15{fill:url(#SVGID_24_);}
	.st16{fill:url(#SVGID_25_);}
	.st17{fill:url(#SVGID_26_);}
</style>
<g>
	<g>
		<g class="st0">
			<defs>
				<polygon id="SVGID_1_" class="st0" points="-1.3,37.3 21,24.3 47.4,39.6 25.1,52.5 				"/>
			</defs>
			<clipPath id="SVGID_2_">
				<use xlink:href="#SVGID_1_"  style="overflow:visible;"/>
			</clipPath>
			<g class="st1">
				<g>
					<defs>
						<path id="SVGID_3_" d="M22.6,51L1.3,38.7c-1.4-0.8-1.4-2.2,0-3l17.1-10c1.4-0.8,3.7-0.8,5.1,0l21.3,12.3c1.4,0.8,1.4,2.2,0,3
							L27.7,51C26.3,51.8,24,51.8,22.6,51"/>
					</defs>
					<clipPath id="SVGID_4_">
						<use xlink:href="#SVGID_3_"  style="overflow:visible;"/>
					</clipPath>
					<g class="st2">
						<defs>
							<path id="SVGID_5_" d="M4,38.9c-1.4-0.8-1.4-2.2,0-3l14.7-8.5c1.4-0.8,3.7-0.8,5.1,0l18.3,10.6c1.4,0.8,1.4,2.2,0,3
								l-14.7,8.5c-1.4,0.8-3.7,0.8-5.1,0L4,38.9 M44.8,38.1L23.6,25.8c-1.4-0.8-3.7-0.8-5.1,0l-17.1,10c-1.4,0.8-1.4,2.2,0,3
								L22.6,51c1.4,0.8,3.7,0.8,5.1,0l17.1-10C46.3,40.2,46.3,38.9,44.8,38.1"/>
						</defs>
						<clipPath id="SVGID_6_">
							<use xlink:href="#SVGID_5_"  style="overflow:visible;"/>
						</clipPath>
						<g class="st3">
							<defs>
								<polyline id="SVGID_7_" points="25.1,52.5 -1.3,37.3 21,24.3 47.4,39.6 25.1,52.5 								"/>
							</defs>
							<clipPath id="SVGID_8_">
								<use xlink:href="#SVGID_7_"  style="overflow:visible;"/>
							</clipPath>
							<g transform="matrix(1 0 0 1 0 -1.907349e-06)" style="clip-path:url(#SVGID_8_);">
								
									<image style="overflow:visible;" width="4340" height="2514" xlink:href="7BC9A06A.png"  transform="matrix(1.122656e-02 0 0 1.122656e-02 -1.2859 24.2984)">
								</image>
							</g>
						</g>
					</g>
				</g>
				<g>
					<defs>
						<path id="SVGID_9_" d="M22.3,49.5L4,38.9c-1.4-0.8-1.4-2.2,0-3l14.7-8.5c1.4-0.8,3.7-0.8,5.1,0l18.3,10.6c1.4,0.8,1.4,2.2,0,3
							l-14.7,8.5C26.1,50.3,23.8,50.3,22.3,49.5"/>
					</defs>
					<clipPath id="SVGID_10_">
						<use xlink:href="#SVGID_9_"  style="overflow:visible;"/>
					</clipPath>
					<g class="st4">
						<defs>
							<path id="SVGID_11_" d="M42.1,37.9L23.8,27.4c-1.4-0.8-3.7-0.8-5.1,0L4,35.9c-1.4,0.8-1.4,2.2,0,3l18.3,10.6
								c1.4,0.8,3.7,0.8,5.1,0l14.7-8.5C43.6,40.1,43.6,38.8,42.1,37.9"/>
						</defs>
						<clipPath id="SVGID_12_">
							<use xlink:href="#SVGID_11_"  style="overflow:visible;"/>
						</clipPath>
						<g class="st5">
							<defs>
								<polyline id="SVGID_13_" points="24.9,51 1.4,37.4 21.2,25.9 44.7,39.4 24.9,51 								"/>
							</defs>
							<clipPath id="SVGID_14_">
								<use xlink:href="#SVGID_13_"  style="overflow:visible;"/>
							</clipPath>
							<g style="clip-path:url(#SVGID_14_);">
								
									<image style="overflow:visible;" width="3861" height="2236" xlink:href="7BC9A06E.png"  transform="matrix(1.122656e-02 0 0 1.122656e-02 1.3979 25.8572)">
								</image>
							</g>
						</g>
					</g>
				</g>
			</g>
		</g>
	</g>
	<g>
		<g>
			<linearGradient id="SVGID_15_" gradientUnits="userSpaceOnUse" x1="32.5257" y1="31.0993" x2="32.5257" y2="46.3467">
				<stop  offset="0" style="stop-color:#A639D2"/>
				<stop  offset="1" style="stop-color:#3B3CFF"/>
			</linearGradient>
			<polygon class="st6" points="41.2,28.4 41,35.3 23.9,45.3 24,38.4 			"/>
		</g>
		<g>
			<linearGradient id="SVGID_16_" gradientUnits="userSpaceOnUse" x1="15.3246" y1="31.0995" x2="15.3246" y2="46.3467">
				<stop  offset="0" style="stop-color:#A639D2"/>
				<stop  offset="1" style="stop-color:#723CFF"/>
			</linearGradient>
			<polygon class="st7" points="24,38.4 23.9,45.3 6.6,35.3 6.8,28.4 			"/>
		</g>
		<g>
			<linearGradient id="SVGID_17_" gradientUnits="userSpaceOnUse" x1="6.7538" y1="28.4421" x2="41.156" y2="28.4421">
				<stop  offset="0" style="stop-color:#FB97A5"/>
				<stop  offset="1" style="stop-color:#FE419B"/>
			</linearGradient>
			<polygon class="st8" points="41.2,28.4 24,38.4 6.8,28.4 23.9,18.5 			"/>
		</g>
	</g>
	<g>
		<g>
			<linearGradient id="SVGID_18_" gradientUnits="userSpaceOnUse" x1="32.5257" y1="21.8974" x2="32.5257" y2="37.1447">
				<stop  offset="0" style="stop-color:#A639D2"/>
				<stop  offset="1" style="stop-color:#3B3CFF"/>
			</linearGradient>
			<polygon class="st9" points="41.2,19.2 41,26.1 23.9,36.1 24,29.2 			"/>
		</g>
		<g>
			<linearGradient id="SVGID_19_" gradientUnits="userSpaceOnUse" x1="15.3246" y1="21.8975" x2="15.3246" y2="37.1447">
				<stop  offset="0" style="stop-color:#A639D2"/>
				<stop  offset="1" style="stop-color:#723CFF"/>
			</linearGradient>
			<polygon class="st10" points="24,29.2 23.9,36.1 6.6,26.1 6.8,19.2 			"/>
		</g>
		<g>
			<linearGradient id="SVGID_20_" gradientUnits="userSpaceOnUse" x1="6.7538" y1="19.2401" x2="41.156" y2="19.2401">
				<stop  offset="0" style="stop-color:#FB97A5"/>
				<stop  offset="1" style="stop-color:#FE419B"/>
			</linearGradient>
			<polygon class="st11" points="41.2,19.2 24,29.2 6.8,19.2 23.9,9.3 			"/>
		</g>
	</g>
	<g>
		<g>
			<linearGradient id="SVGID_21_" gradientUnits="userSpaceOnUse" x1="32.5257" y1="21.8974" x2="32.5257" y2="37.1447">
				<stop  offset="0" style="stop-color:#A639D2"/>
				<stop  offset="1" style="stop-color:#3B3CFF"/>
			</linearGradient>
			<polygon class="st12" points="41.2,19.2 41,26.1 23.9,36.1 24,29.2 			"/>
		</g>
		<g>
			<linearGradient id="SVGID_22_" gradientUnits="userSpaceOnUse" x1="15.3246" y1="21.8975" x2="15.3246" y2="37.1447">
				<stop  offset="0" style="stop-color:#A639D2"/>
				<stop  offset="1" style="stop-color:#723CFF"/>
			</linearGradient>
			<polygon class="st13" points="24,29.2 23.9,36.1 6.6,26.1 6.8,19.2 			"/>
		</g>
		<g>
			<linearGradient id="SVGID_23_" gradientUnits="userSpaceOnUse" x1="6.7538" y1="19.2401" x2="41.156" y2="19.2401">
				<stop  offset="0" style="stop-color:#FB97A5"/>
				<stop  offset="1" style="stop-color:#FE419B"/>
			</linearGradient>
			<polygon class="st14" points="41.2,19.2 24,29.2 6.8,19.2 23.9,9.3 			"/>
		</g>
	</g>
	<g>
		<g>
			<linearGradient id="SVGID_24_" gradientUnits="userSpaceOnUse" x1="32.5257" y1="12.729" x2="32.5257" y2="27.9764">
				<stop  offset="0" style="stop-color:#A639D2"/>
				<stop  offset="1" style="stop-color:#3B3CFF"/>
			</linearGradient>
			<polygon class="st15" points="41.2,10.1 41,16.9 23.9,26.9 24,20 			"/>
		</g>
		<g>
			<linearGradient id="SVGID_25_" gradientUnits="userSpaceOnUse" x1="15.3246" y1="12.7292" x2="15.3246" y2="27.9764">
				<stop  offset="0" style="stop-color:#A639D2"/>
				<stop  offset="1" style="stop-color:#723CFF"/>
			</linearGradient>
			<polygon class="st16" points="24,20 23.9,26.9 6.6,16.9 6.8,10.1 			"/>
		</g>
		<g>
			<linearGradient id="SVGID_26_" gradientUnits="userSpaceOnUse" x1="6.7538" y1="10.0717" x2="41.156" y2="10.0717">
				<stop  offset="0" style="stop-color:#FB97A5"/>
				<stop  offset="1" style="stop-color:#FE419B"/>
			</linearGradient>
			<polygon class="st17" points="41.2,10.1 24,20 6.8,10.1 23.9,0.1 			"/>
		</g>
	</g>
</g>
</svg>
