<?xml version="1.0" encoding="utf-8"?>
<!-- Generator: Adobe Illustrator 22.0.0, SVG Export Plug-In . SVG Version: 6.00 Build 0)  -->
<svg version="1.1" id="图层_1" xmlns="http://www.w3.org/2000/svg" xmlns:xlink="http://www.w3.org/1999/xlink" x="0px" y="0px"
	 viewBox="0 0 203 135" style="enable-background:new 0 0 203 135;" xml:space="preserve">
<style type="text/css">
	.st0{fill:#FBC0BD;}
	.st1{fill:#F5BDB8;}
	.st2{fill:#001A3F;}
	.st3{fill:#FFFFFF;}
	.st4{fill:#58514D;}
	.st5{fill:#D2E6FF;}
	.st6{fill:#F1F1F1;}
	.st7{fill:#F1B4B3;}
	.st8{fill:#FDC2BF;}
	.st9{fill:#102658;}
	.st10{fill:#5392F8;}
	.st11{fill:#E4EFFF;}
	.st12{opacity:0.15;fill:#101114;enable-background:new    ;}
	.st13{fill:#A8A8A8;}
	.st14{fill:#E8E8E8;}
	.st15{fill:#DBDBDB;}
	.st16{fill:#BABABA;}
	.st17{fill:#999999;}
	.st18{fill:none;stroke:#DBDBDB;}
	.st19{fill:#E4DCB9;}
	.st20{fill:#F6EDD2;}
	.st21{fill:#DCC69B;}
	.st22{fill:#C9AD7A;}
	.st23{fill:#F1E1BB;}
	.st24{fill:#FCB3A6;}
	.st25{fill:#B34949;}
	.st26{fill:#370102;}
	.st27{fill:#F2A39A;}
	.st28{fill:#E2E2E2;}
	.st29{fill:#3A807D;}
</style>
<g>
	<g>
		<path class="st0" d="M168.2,62.1l1.5,5.6l-1.6,2.2c0,0-1.1-4.2-0.9-7.2L168.2,62.1z"/>
		<path class="st1" d="M183.6,113.6c0,0,0.3,0.8,0,1.8l0.9,0.4l0.8-0.4l0.1-1.7L183.6,113.6z"/>
		<path class="st1" d="M178.1,111.7c0,0,0.3,0.9-1,1.2l1.6,0.9l1.4-1.1c0,0-0.2-1.1-0.3-1.5L178.1,111.7z"/>
		<path class="st2" d="M185.3,102.2l0.5-8.3c0,0,0.2-2.3,0-3.1c-0.4-2-0.5-2.6-0.5-2.6l-4.3,0.2l-3.6-2.3c-0.6,1.5-0.2,9.3-0.1,15.2
			l0.3,10.4c0,0,1.3,0.6,2.5-0.4l0.5-10.1c0,0,0.8-8.1,1-7.9c0.1,0.1,0.6,9.5,0.6,9.5l0.7,10.9c0,0,1.7,1.3,2.9-0.2L185.3,102.2z"/>
		<path class="st3" d="M177.9,112.8c0,0,0.4-0.2,0.7,0.3v0.7l0.7-0.5c0,0,0.4,0,0.8-0.4c0,0,0,0.5,0,1c0,0.1-0.1,0.2-0.2,0.2
			c-0.1,0-0.1,0-0.2,0c-0.2,0-0.3,0-0.5,0.1c-0.1,0-0.1,0-0.2,0c-0.2,0-0.3,0.1-0.5,0.1c-0.2,0-0.3,0.1-0.5,0.2
			c-0.2,0.1-0.4,0.2-0.6,0.3c-0.5,0.1-1.2,0.3-1.6,0.1c0,0-0.8-0.2-0.5-0.8C175.3,114.2,175.9,113.7,177.9,112.8z"/>
		<path class="st4" d="M177.9,112.4c0,0,0.5-0.2,0.8,0.3h0.4c0,0,0.5,0.1,1-0.3c0,0,0.1,0.9,0,1.4h-0.2c-0.2,0-0.4,0-0.6,0.1
			c-0.2,0-0.5,0.1-0.7,0.2c-0.2,0.1-0.4,0.1-0.6,0.2c-0.2,0.1-0.4,0.2-0.6,0.3c-0.5,0.1-1.2,0.3-1.6,0.1c0,0-0.8-0.2-0.5-0.8
			C175.3,113.9,175.9,113.2,177.9,112.4z"/>
		<path class="st3" d="M183.5,115.4c0,0-0.3,1.6-1,2.2c0,0-0.5,1.1,0.4,1.4c0,0,1.5,0.5,1.9-1.8c0,0,0.1-0.7,0.3-1.1
			c0.1-0.1,0.1-0.3,0.1-0.5v-0.7c0,0-0.2,0.6-0.5,0.7C184.9,115.7,184.4,114.9,183.5,115.4z"/>
		<path class="st4" d="M183.5,114.9c0,0-0.2,1.4-0.9,2.1c-0.1,0.1-0.2,0.3-0.2,0.5c-0.1,0.4-0.1,0.9,0.5,1.1c0,0,1.5,0.5,1.9-1.8
			c0,0,0.1-0.9,0.5-1.3v-1c0,0-0.2,0.6-0.5,0.7C184.9,115.2,184.4,114.4,183.5,114.9z"/>
		<path class="st5" d="M178.7,71.5c0,0,0.1-0.8-3.7-1.8l-4.3-1.4c-0.4-0.9-2.6,0.6-2.1,2c2.4,1,6,3.5,8.3,3.9L178.7,71.5z"/>
		<g>
			<path class="st6" d="M185.3,74.6c0,0-5-3.8-6.9-4.1c0,0-2.3-1-2.3,0.3c0,0,1.3,11.6,1.2,16.1l0,0c0,0,3.7,1.4,8.2,0.6
				C185.7,85.1,186.4,77,185.3,74.6z"/>
			<path d="M177.2,86.9L177.2,86.9c0,0.3,0,0.5-0.1,0.8c0,0,2.7,1.3,8.2,0.5c0,0,0-0.3,0.1-0.7C181,88.3,177.2,86.9,177.2,86.9z"/>
		</g>
		<path class="st7" d="M179.6,72.3l0.3,1.2c0,0,1.5,0.5,2.1-0.6l0.1-2.5L179.6,72.3z"/>
		<polygon class="st5" points="182.1,71.5 180.1,73.6 180.8,75 182.7,72.7 		"/>
		<polygon class="st5" points="180.1,73.6 179.5,72 178.7,72.3 179.3,74.5 		"/>
		<path class="st8" d="M178.5,66.6c0,0-0.9,1.2-0.7,2.1c0,0-0.8,2.6,0.6,3.3c0,0,1,1.1,2.8-0.4l1-1.1c0,0,0.7,0.7,1.2-1.3
			c0,0,0.6-2.8-1.2-3L178.5,66.6z"/>
		<path class="st9" d="M178.6,66.2c0,0-0.4,0.7,0.1,0.8c0,0,1,0.4,1.8,0c0,0,0.9,0,0.9,0.7c0,0-0.2,1.3,0.2,1.6c0,0,0.4,0.4,0.2,0.9
			h0.3c0,0,0.1-1.2,0.6-1.2c0,0,0.4,0.7,0.6,0.2c0,0,1-3-1-3.6C182.3,65.6,180.4,64.5,178.6,66.2z"/>
		<polygon class="st10" points="180.1,73.6 179.5,74.3 179.6,75.4 180.2,75.5 180.6,74.7 		"/>
		<polygon class="st10" points="179.6,75.4 179.1,80 180.3,85.2 180.9,80 180.2,75.5 		"/>
		<path class="st11" d="M169.7,67.7c0,0,0.9,0.1,1.3,0.8c0,0-1.6,1.6-1.6,2.3c0,0-1.3-0.4-1.3-0.9C168.1,69.9,168.4,68.4,169.7,67.7
			z"/>
		<g>
			<path class="st0" d="M172.6,84.5c-0.4,0-0.4-0.3-0.4-0.3l0.5-0.2c-0.5,0.1-0.6-0.3-0.6-0.3l1.3-0.4l1.5,0.5l1.2,0.2l0.1,1.1
				l-1,0.2h-1.1h-0.6c-0.5,0.2-0.6-0.2-0.6-0.2l0.7-0.2h-0.5c-0.6,0.3-0.7-0.3-0.7-0.3L172.6,84.5z"/>
			<path class="st0" d="M175.6,83.9l4.9-0.9l2.1,1.3c-1.6,0.6-3.6,0.8-6.5,0.7L175.6,83.9z"/>
			<path class="st5" d="M185.4,74.6c0,0-1.3,2-2.1,4.3c-0.7,2.3-1.9,3.3-1.9,3.3l1.6,1.9c1.7-1.3,2.5-2.4,3.6-4.8
				C186.6,79.3,187.1,76.6,185.4,74.6z"/>
			<path class="st11" d="M180.5,83c0,0,0.3-0.7,1.1-1c0,0,1.5,1.7,2.3,1.7c0,0-0.8,0.9-1.4,0.9C182.5,84.6,181.2,83.9,180.5,83z"/>
		</g>
		<path class="st0" d="M168.2,62.1l-1-1.3c0,0-1.4-0.6-1.4-0.1s1.1,0.6,1.1,0.6l0.6,0.8l0.1,0.5l0.2-0.1L168.2,62.1z"/>
	</g>
	<g>
		<g>
			<polygon class="st12" points="0,28.6 172.4,134.7 200.7,122.7 26.8,17.6 			"/>
			<path class="st13" d="M170.4,132.2c0,1,0.9,1.9,2.1,1.9l0,0c1.1,0,2.1-0.9,2.1-1.9v-10.8c0-1.1-0.9-1.9-2.1-1.9l0,0
				c-1.1,0-2.1,0.8-2.1,1.9V132.2z"/>
			<path class="st13" d="M196.5,121.4c0,1,0.9,1.9,2.1,1.9l0,0c1.1,0,2.1-0.9,2.1-1.9v-10.8c0-1.1-0.9-1.9-2.1-1.9l0,0
				c-1.1,0-2.1,0.8-2.1,1.9V121.4z"/>
			<path class="st13" d="M2.4,28.6c0,1,0.9,1.9,2.1,1.9l0,0c1.1,0,2.1-0.9,2.1-1.9V17.9c0-1-0.9-1.9-2.1-1.9l0,0
				c-1.1,0-2.1,0.9-2.1,1.9V28.6z"/>
			<g>
				<g>
					<polygon class="st3" points="176,116.1 203,103.5 27.2,-0.3 0.2,10.5 					"/>
					<polyline class="st14" points="203,103.5 203,117.8 176.4,130 176.4,115.3 					"/>
					<polygon class="st15" points="176.4,115.3 176.4,130.1 0.2,22.9 0.2,10.5 					"/>
				</g>
				<g>
					<path class="st16" d="M172.2,115.8c2.2,2.4,2.4,5.7,0.4,7.2c-2,1.5-5.5,0.8-7.7-1.7c-2.2-2.4-2.4-5.7-0.4-7.2
						C166.5,112.6,169.9,113.4,172.2,115.8z"/>
					<path class="st17" d="M170.2,117.6c1.3,1.4,1.4,3.2,0.4,4c-1.1,0.8-3,0.4-4.2-1c-1.3-1.4-1.4-3.2-0.4-4
						C167,115.8,168.9,116.2,170.2,117.6z"/>
				</g>
				<g>
					<path class="st16" d="M154.1,104.8c2.2,2.4,2.4,5.7,0.4,7.2c-2,1.5-5.5,0.8-7.7-1.7c-2.2-2.4-2.4-5.7-0.4-7.2
						C148.4,101.6,151.9,102.4,154.1,104.8z"/>
					<path class="st17" d="M152.1,106.6c1.3,1.4,1.4,3.2,0.4,4c-1.1,0.8-3,0.4-4.2-1c-1.3-1.4-1.4-3.2-0.4-4
						C148.9,104.8,150.8,105.3,152.1,106.6z"/>
				</g>
				<g>
					<path class="st16" d="M136.1,93.9c2.2,2.4,2.4,5.7,0.4,7.2c-2,1.5-5.5,0.8-7.7-1.7c-2.2-2.4-2.4-5.7-0.4-7.2
						C130.4,90.7,133.8,91.4,136.1,93.9z"/>
					<path class="st17" d="M134,95.7c1.3,1.4,1.4,3.2,0.4,4c-1.1,0.8-3,0.4-4.2-1c-1.3-1.4-1.4-3.2-0.4-4
						C130.9,93.8,132.8,94.3,134,95.7z"/>
				</g>
				<g>
					<path class="st16" d="M118,82.9c2.2,2.4,2.4,5.7,0.4,7.2c-2,1.5-5.5,0.8-7.7-1.7c-2.2-2.4-2.4-5.7-0.4-7.2
						C112.3,79.7,115.8,80.5,118,82.9z"/>
					<path class="st17" d="M116,84.7c1.3,1.4,1.4,3.2,0.4,4c-1.1,0.8-3,0.4-4.2-1c-1.3-1.4-1.4-3.2-0.4-4
						C112.8,82.9,114.7,83.3,116,84.7z"/>
				</g>
				<g>
					<path class="st16" d="M100.1,71.9c2.2,2.4,2.4,5.7,0.4,7.2c-2,1.5-5.5,0.8-7.7-1.7c-2.2-2.4-2.4-5.7-0.4-7.2
						C94.4,68.8,97.8,69.5,100.1,71.9z"/>
					<path class="st17" d="M98,73.7c1.3,1.4,1.4,3.2,0.4,4c-1.1,0.8-3,0.4-4.2-1c-1.3-1.4-1.4-3.2-0.4-4
						C94.9,71.9,96.8,72.4,98,73.7z"/>
				</g>
				<g>
					<path class="st16" d="M82,61c2.2,2.4,2.4,5.7,0.4,7.2c-2,1.5-5.5,0.8-7.7-1.7c-2.2-2.4-2.4-5.7-0.4-7.2S79.8,58.5,82,61z"/>
					<path class="st17" d="M80,62.8c1.3,1.4,1.4,3.2,0.4,4c-1.1,0.8-3,0.4-4.2-1c-1.3-1.4-1.4-3.2-0.4-4
						C76.8,60.9,78.7,61.4,80,62.8z"/>
				</g>
				<g>
					<path class="st16" d="M64,50c2.2,2.4,2.4,5.7,0.4,7.2c-2,1.5-5.5,0.8-7.7-1.7c-2.2-2.4-2.4-5.7-0.4-7.2
						C58.3,46.8,61.7,47.6,64,50z"/>
					<path class="st17" d="M61.9,51.8c1.3,1.4,1.4,3.2,0.4,4c-1.1,0.8-3,0.4-4.2-1c-1.3-1.4-1.4-3.2-0.4-4
						C58.8,50,60.7,50.4,61.9,51.8z"/>
				</g>
				<g>
					<path class="st16" d="M45.9,39c2.2,2.4,2.4,5.7,0.4,7.2c-2,1.5-5.5,0.8-7.7-1.7c-2.2-2.4-2.4-5.7-0.4-7.2
						C40.2,35.9,43.7,36.6,45.9,39z"/>
					<path class="st17" d="M43.9,40.9c1.3,1.4,1.4,3.2,0.4,4c-1.1,0.8-3,0.4-4.2-1c-1.3-1.4-1.4-3.2-0.4-4
						C40.7,39,42.6,39.5,43.9,40.9z"/>
				</g>
				<g>
					<path class="st16" d="M27.9,28.1c2.2,2.4,2.4,5.7,0.4,7.2s-5.5,0.8-7.7-1.7c-2.2-2.4-2.4-5.7-0.4-7.2
						C22.2,24.9,25.6,25.6,27.9,28.1z"/>
					<path class="st17" d="M25.8,29.9c1.3,1.4,1.4,3.2,0.4,4c-1.1,0.8-3,0.4-4.2-1c-1.3-1.4-1.4-3.2-0.4-4
						C22.7,28,24.6,28.5,25.8,29.9z"/>
				</g>
				<g>
					<path class="st16" d="M9.8,17.2c2.2,2.4,2.4,5.7,0.4,7.2s-5.5,0.8-7.7-1.7c-2.2-2.4-2.4-5.7-0.4-7.2C4.1,14,7.6,14.8,9.8,17.2z
						"/>
					<path class="st17" d="M7.8,19c1.3,1.4,1.4,3.2,0.4,4c-1.1,0.8-3,0.4-4.2-1c-1.3-1.4-1.4-3.2-0.4-4C4.6,17.2,6.5,17.6,7.8,19z"
						/>
				</g>
				<line class="st18" x1="196.2" y1="99.7" x2="169.8" y2="111.2"/>
				<line class="st18" x1="189.1" y1="95.3" x2="162.8" y2="106.8"/>
				<line class="st18" x1="182.1" y1="90.8" x2="155.4" y2="102.5"/>
				<line class="st18" x1="175" y1="86.4" x2="148.1" y2="98.3"/>
				<line class="st18" x1="167.1" y1="82.3" x2="140.2" y2="94.1"/>
				<line class="st18" x1="160" y1="77.8" x2="133.2" y2="89.7"/>
				<line class="st18" x1="153" y1="73.4" x2="126.1" y2="85.3"/>
				<line class="st18" x1="145.9" y1="69" x2="119" y2="80.8"/>
				<line class="st18" x1="138.8" y1="64.5" x2="112" y2="76.4"/>
				<line class="st18" x1="131.4" y1="60.7" x2="104.6" y2="72.6"/>
				<line class="st18" x1="124" y1="56.9" x2="97.3" y2="68.8"/>
				<line class="st18" x1="117" y1="52.3" x2="90.2" y2="64.2"/>
				<line class="st18" x1="109.9" y1="47.7" x2="83.2" y2="59.6"/>
				<line class="st18" x1="102.2" y1="43.6" x2="76.1" y2="55"/>
				<line class="st18" x1="94.9" y1="39.2" x2="68.3" y2="50.9"/>
				<line class="st18" x1="87.8" y1="34.6" x2="60.9" y2="46.6"/>
				<line class="st18" x1="80.1" y1="30.6" x2="53.7" y2="42.5"/>
				<line class="st18" x1="72.6" y1="25.9" x2="46.3" y2="37.8"/>
				<line class="st18" x1="65.2" y1="21.2" x2="38.9" y2="33"/>
				<line class="st18" x1="56.5" y1="17" x2="30.1" y2="28.7"/>
				<line class="st18" x1="48.7" y1="12.4" x2="22.4" y2="24.2"/>
				<line class="st18" x1="41.3" y1="7.6" x2="15" y2="19.5"/>
				<line class="st18" x1="33.7" y1="2.9" x2="7.4" y2="14.8"/>
			</g>
		</g>
	</g>
	<g>
		<polygon class="st19" points="154.7,86.4 165.7,92.2 176.7,86.4 165.7,80.5 		"/>
		<polygon class="st20" points="170,89.9 159.1,84 161.5,82.8 172.4,88.6 		"/>
		<polygon class="st21" points="154.7,98.1 165.7,103.9 165.7,92.2 154.7,86.4 		"/>
		<polygon class="st22" points="176.7,98.1 165.7,103.9 165.7,92.2 176.7,86.4 		"/>
		<polygon class="st23" points="170,89.9 172.4,88.6 172.4,93.1 170,94.4 		"/>
	</g>
	<g>
		<polygon class="st19" points="112.2,62.4 123.1,68.3 134.1,62.4 123.1,56.6 		"/>
		<polygon class="st20" points="127.5,66 116.5,60.1 118.9,58.8 129.9,64.7 		"/>
		<polygon class="st21" points="112.2,74.1 123.1,80 123.1,68.3 112.2,62.4 		"/>
		<polygon class="st22" points="134.1,74.1 123.1,80 123.1,68.3 134.1,62.4 		"/>
		<polygon class="st23" points="127.4,66 129.9,64.7 129.9,69.2 127.4,70.5 		"/>
	</g>
	<g>
		<polygon class="st19" points="72.9,38 83.9,43.8 94.9,38 83.9,32.1 		"/>
		<polygon class="st20" points="88.2,41.5 77.3,35.7 79.7,34.4 90.6,40.3 		"/>
		<polygon class="st21" points="72.9,49.7 83.9,55.5 83.9,43.8 72.9,38 		"/>
		<polygon class="st22" points="94.9,49.7 83.9,55.5 83.9,43.8 94.9,38 		"/>
		<polygon class="st23" points="88.2,41.6 90.6,40.3 90.6,44.7 88.2,46 		"/>
	</g>
	<g>
		<polygon class="st19" points="28.8,10 39.8,15.9 50.8,10 39.8,4.2 		"/>
		<polygon class="st20" points="44.1,13.6 33.2,7.7 35.6,6.4 46.5,12.3 		"/>
		<polygon class="st21" points="28.8,21.7 39.8,27.5 39.8,15.9 28.8,10 		"/>
		<polygon class="st22" points="50.8,21.7 39.8,27.5 39.8,15.9 50.8,10 		"/>
		<polygon class="st23" points="44.1,13.6 46.5,12.3 46.5,16.8 44.1,18.1 		"/>
	</g>
	<g>
		<polygon class="st24" points="31,23.6 33,27.4 34,25.9 32.5,22.2 		"/>
		<path class="st25" d="M23.2,18.8c0,0-0.1-5,3.2-2.8l5.3,4.5l0.1,0.1c0.2,0.2,1.2,2.1,1.5,3.1c0,0-1.2,1.2-2,1.3l-0.8-1.7l-0.4,8.6
			c0,0-0.6,1-2.5,0.9c-1.9-0.1-4.1-2.2-4.1-2.2L23.2,18.8z"/>
		<path class="st24" d="M26.9,16.3l0.9-1.2l2.1,1.3l-0.8,1.9C29.1,18.3,26.9,17.7,26.9,16.3z"/>
		<g>
			<path class="st24" d="M32.4,13c0.1-0.3,0-0.6-0.2-0.9c0,0-1-2.6-3.9-1.6c0,0-1.9,0.9-1.6,3.5c0,0,0.6,1.2,0.3,2.2l2.3,1.6
				c0,0,0.3-1.6,0.8-1.3c0.4,0.3,0.9,0.4,1.2,0l0,0C32.3,15.5,32.4,14.4,32.4,13z"/>
			<path class="st26" d="M29.9,15l0.1,1c0,0-1.5,1.1-3.2-1c0,0-1.7-3.2,0.9-5c0,0,1.9-1.4,4.1,0.4c1.5,1.3,1,2.5,0.5,2.6
				c0,0-1.1,1.5-1.9,1.7L29.9,15z"/>
			<path class="st24" d="M30.7,14.8c-0.1,0.5-0.4,0.8-0.7,0.8c-0.3,0-0.4-0.5-0.3-1c0.1-0.5,0.4-0.8,0.7-0.8S30.8,14.3,30.7,14.8z"
				/>
		</g>
		<path class="st24" d="M33,27.3c0,0,0.8,1.5,1.7,0.3c0.9-1.2,3.5-4,3.5-4l-0.8-0.7l-3.5,2.9L33,27.3z"/>
		<path class="st24" d="M39.5,21.6c0.2-0.2,0.1-0.5,0.1-0.5l-0.4,0.2c0.3-0.2,0.1-0.5,0.1-0.5l-1,0.6l-0.6,1.2l-0.6,0.8l0.6,0.7
			l0.7-0.5l0.6-0.7l0.4-0.3c0.4-0.2,0.2-0.5,0.2-0.5l-0.5,0.3l0.3-0.3c0.5-0.2,0.3-0.6,0.3-0.6L39.5,21.6z"/>
		<path class="st27" d="M24.9,52.5c-0.3,0.7-0.2,2-0.4,2.8l0.5,0.8l1.1-0.4l0.4-0.5l-0.1-2.4L24.9,52.5z"/>
		<path class="st3" d="M26.5,54c0,0,0.6-0.4,1.3,0c0,0,0.6,0.4,0,1.2c-0.1,0.1-0.2,0.2-0.3,0.2c-0.3,0.2-1.1,0.7-1.4,1.2
			c0,0.1-0.1,0.1-0.1,0.2c-0.2,0.2-0.7,0.7-1.1,0.7c0,0-0.8,0-0.8-0.6c0,0,0-1,0.3-1.3c0,0,0.3,0.1,0.9,0.3c0,0,0.5,0.1,0.8-0.2
			c0,0,0.5-0.5,0.4-1L26.5,54z"/>
		<path class="st28" d="M26.5,53.8c0,0,0.6-0.4,1.3,0c0,0,0.6,0.4,0,1.2c-0.1,0.1-0.2,0.2-0.3,0.2c-0.3,0.2-1.1,0.7-1.4,1.2
			c0,0.1-0.1,0.1-0.1,0.2c-0.2,0.2-0.7,0.7-1.1,0.7c0,0-0.8,0-0.8-0.6c0,0,0-1,0.3-1.3c0,0,0.3,0.1,0.9,0.3c0,0,0.5,0.1,0.8-0.2
			c0,0,0.3-0.5,0.2-0.9L26.5,53.8z"/>
		<path class="st27" d="M30.8,54.7c0,0-0.6-0.1-0.5-0.6l-1.5-0.3c0,0,0,0.8-0.1,1l-0.2,0.5V56l1,0.4l1.2-0.3l0.6-0.7L30.8,54.7z"/>
		<path class="st3" d="M30.8,54.9v0.7c0,0-0.7,0.9-1.5,0.7c0,0-0.8-0.1-0.9-0.7c0,0-0.3,0.6-0.2,1.5c0,0-0.2,0.8,3.9,0
			c0,0,1.6-0.2,1.5-1.1c0,0,0-0.9-0.9-0.9L30.8,54.9z"/>
		<path class="st28" d="M30.7,54.7c-0.2,0.2-0.2,0.5,0,0.7c0,0-0.5,0.4-1.3,0.3c0,0-0.8,0-0.9-0.5c0,0-0.3,0.8-0.2,1.6
			c0,0-0.2,0.8,3.9,0c0,0,1.6-0.2,1.5-1.1c0,0,0-0.9-0.9-0.9L30.7,54.7z"/>
		<path class="st29" d="M23.5,31.2v-0.8c0,0,0.9,0.4,2.1,0.8c1.3,0.4,3.1,0.8,4.5,0.5v0.8c0,0,0.6,1.4,0.6,3.1l0.4,18.7
			c-1.2,0.2-2,0.3-3.1,0c0.1-1.8,0.4-5.6,0.2-9.2c-0.1-2.6-0.5-5.4-0.8-7.9l-0.5-1.9l-0.1,2.2c0.1,5.3,0.1,13.2,0,16.7
			c-0.2-0.1-2.3,0.3-3-0.7l0.4-9.3l-1.1-9.8C23.2,34.3,23.1,32.9,23.5,31.2z"/>
	</g>
</g>
</svg>
