<?xml version="1.0" encoding="utf-8"?>
<!-- Generator: Adobe Illustrator 22.0.0, SVG Export Plug-In . SVG Version: 6.00 Build 0)  -->
<svg version="1.1" id="图层_1" xmlns="http://www.w3.org/2000/svg" xmlns:xlink="http://www.w3.org/1999/xlink" x="0px" y="0px"
	 viewBox="0 0 222 131" style="enable-background:new 0 0 222 131;" xml:space="preserve">
<style type="text/css">
	.st0{opacity:0.5;fill:url(#SVGID_1_);enable-background:new    ;}
	.st1{fill:#DCDCDC;}
</style>
<linearGradient id="SVGID_1_" gradientUnits="userSpaceOnUse" x1="2357.6057" y1="357.2461" x2="2571.2058" y2="357.2461" gradientTransform="matrix(1 0 0 1 -2357.6057 -295.4961)">
	<stop  offset="0" style="stop-color:#412DC3"/>
	<stop  offset="0.9753" style="stop-color:#B16369"/>
</linearGradient>
<polygon class="st0" points="175.4,123.5 213.6,101.3 38.2,0 0,22.2 "/>
<g>
	<g>
		<g>
			<path class="st1" d="M205.8,130.1l-1.5,0.9l-5.8-3.4c0.2,0.4,0.4,0.8,0.6,1.3c-0.8-0.3-1.7-0.7-2.7-1c-0.6-1.3-1.7-2.8-3.4-4.5
				l1.9-0.7c0.7,0.7,1.3,1.4,1.8,2.1L205.8,130.1z"/>
		</g>
		<g>
			<path class="st1" d="M213.3,119.6c1.8,1.1,3.1,2.4,3.8,4.1c-0.6,0-1.5,0-2.6,0c-0.6-1.3-1.6-2.4-3-3.3l-1.7-1l2.4-1.4
				c-0.8,0-1.7-0.1-2.7-0.1l0.5-1.2l-3.3,1.9l-1.6-0.9l4.9-2.9c-0.5-0.1-1-0.3-1.5-0.4l1.7-1.3l1.7,0.6l4.8-2.8l1.6,0.9l-3.4,2
				l2.4-0.5l0.2,1.6l2.9-1.7l1.6,0.9l-9,5.2L213.3,119.6z M213.5,117.4l2.1-1.2c-0.2-0.7-0.4-1.4-0.7-2.2l-4.5,2.6l3.4,0.2
				L213.5,117.4"/>
		</g>
		<g>
			<path class="st1" d="M207.7,121.4l-6.9,4l-2.8-1.6l6.9-4L207.7,121.4z M201.3,123.9l3.7-2.2l-0.6-0.4l-3.7,2.2L201.3,123.9"/>
		</g>
		<g>
			<path class="st1" d="M207.7,126l-3.3,1.9l-1.3-0.7l7.6-4.4l1.3,0.7l-2.6,1.5l0.9,0.5c1,0.6,1.2,1.2,0.3,1.7
				c-0.5,0.3-1.1,0.7-2.1,1.3c-0.4-0.2-1.1-0.4-1.8-0.7c0.5-0.2,1-0.5,1.6-0.8c0.4-0.2,0.4-0.5-0.1-0.7L207.7,126z"/>
		</g>
		<g>
			<polygon class="st1" points="203.7,126.6 202.1,127.5 200.1,126.4 209.3,121.1 211.2,122.2 209.6,123.1 208.9,122.7 203,126.2 
							"/>
		</g>
		<g>
			<path class="st1" d="M198.8,121.3c-0.3-0.1-0.7-0.2-1.1-0.3l1.5-1.2c0.5,0.1,1,0.3,1.5,0.4l3.4-2l1.2,0.7l-8.7,5.1l-1.2-0.7
				L198.8,121.3z"/>
		</g>
	</g>
</g>
</svg>
