<?xml version="1.0" encoding="utf-8"?>
<!-- Generator: Adobe Illustrator 22.0.0, SVG Export Plug-In . SVG Version: 6.00 Build 0)  -->
<svg version="1.1" id="图层_1" xmlns="http://www.w3.org/2000/svg" xmlns:xlink="http://www.w3.org/1999/xlink" x="0px" y="0px"
	 viewBox="0 0 222 131" style="enable-background:new 0 0 222 131;" xml:space="preserve">
<style type="text/css">
	.st0{opacity:0.5;fill:url(#SVGID_1_);enable-background:new    ;}
	.st1{fill:#DCDCDC;}
</style>
<linearGradient id="SVGID_1_" gradientUnits="userSpaceOnUse" x1="2345.8057" y1="357.2461" x2="2559.6057" y2="357.2461" gradientTransform="matrix(1 0 0 1 -2345.8057 -295.4961)">
	<stop  offset="0" style="stop-color:#412DC3"/>
	<stop  offset="0.9753" style="stop-color:#BBD935"/>
</linearGradient>
<polygon class="st0" points="175.5,123.5 213.8,101.3 38.2,0 0,22.2 "/>
<g>
	<g>
		<g>
			<path class="st1" d="M198.1,122.3l1.5-0.9l-1.2-1.1l1.8-1l1.2,1.1l2.9-1.7l1.4,0.8l-3.2,1.9c0.3,0.3,0.6,0.5,0.9,0.8l3.9-2.3
				l1.4,0.8l-4.2,2.5c0.3,0.3,0.6,0.5,0.8,0.8l4.3-2.5l1.3,0.8l0.5,2.6c0.5-0.1,1.1-0.2,1.7-0.3l0.5,1.4c-2.4,0.4-4.8,0.8-7.1,1.3
				l-0.4-1.3c1-0.2,2.1-0.4,3.3-0.7l-0.3-1.8l-4.2,2.4l-1.2-0.7l-1-0.9l-1.1,0.7l-1.4-0.8l1.5-0.9l-0.9-0.8l-1.2,0.7L198.1,122.3z"
				/>
		</g>
		<g>
			<path class="st1" d="M205.9,127.2l-1.3,0.9l2.5,1.4l-1.5,0.9l-2.3-1.3l-2,1.5l-1.8-0.9c0.7-0.5,1.5-1,2.2-1.5l-1.2-0.7l-2.4,1.4
				l-1.5-0.9c-0.6-0.7-1.2-1.3-2-2l-0.8,0.5l-1.5-0.8l1.2-0.7c-0.4-0.4-0.8-0.7-1.3-1.1l1.7-0.9c0.4,0.3,0.8,0.7,1.1,1l2.4-1.4
				l1.5,0.8l-2.8,1.6c0.7,0.7,1.3,1.4,2,2.1l0.9-0.5l-2.1-1.2l1.5-0.9l2.1,1.2l1.3-0.8l1.5,0.8l-1.3,0.8l1,0.6l1.4-1
				C204.9,126.6,205.3,126.9,205.9,127.2z"/>
		</g>
		<g>
			<path class="st1" d="M213.3,119.7c1.8,1.1,3.1,2.4,3.8,4.1c-0.6,0-1.5,0-2.6,0c-0.6-1.3-1.6-2.4-3-3.3l-1.7-1l2.4-1.4
				c-0.8,0-1.7-0.1-2.7-0.1l0.5-1.2l-3.3,1.9l-1.6-0.9l4.9-2.9c-0.5-0.1-1-0.3-1.5-0.4l1.7-1.3l1.7,0.6l4.8-2.8l1.6,0.9l-3.4,2
				l2.4-0.5l0.2,1.6l2.9-1.7l1.6,0.9l-9,5.2L213.3,119.7z M213.5,117.4l2.1-1.2c-0.2-0.7-0.4-1.4-0.7-2.2l-4.5,2.6l3.4,0.2
				L213.5,117.4"/>
		</g>
	</g>
</g>
</svg>
