<?xml version="1.0" encoding="utf-8"?>
<!-- Generator: Adobe Illustrator 22.0.0, SVG Export Plug-In . SVG Version: 6.00 Build 0)  -->
<svg version="1.1" id="图层_1" xmlns="http://www.w3.org/2000/svg" xmlns:xlink="http://www.w3.org/1999/xlink" x="0px" y="0px"
	 viewBox="0 0 203 135" style="enable-background:new 0 0 203 135;" xml:space="preserve">
<style type="text/css">
	.st0{fill:#FBC0BD;}
	.st1{fill:#F5BDB8;}
	.st2{fill:#001A3F;}
	.st3{fill:#FFFFFF;}
	.st4{fill:#58514D;}
	.st5{fill:#D2E6FF;}
	.st6{fill:#F1F1F1;}
	.st7{fill:#F1B4B3;}
	.st8{fill:#FDC2BF;}
	.st9{fill:#102658;}
	.st10{fill:#5392F8;}
	.st11{fill:#E4EFFF;}
	.st12{opacity:0.15;fill:#101114;enable-background:new    ;}
	.st13{fill:#A8A8A8;}
	.st14{fill:#E8E8E8;}
	.st15{fill:#DBDBDB;}
	.st16{fill:#BABABA;}
	.st17{fill:#999999;}
	.st18{fill:none;stroke:#DBDBDB;}
	.st19{fill:#E4DCB9;}
	.st20{fill:#F6EDD2;}
	.st21{fill:#DCC69B;}
	.st22{fill:#C9AD7A;}
	.st23{fill:#F1E1BB;}
	.st24{fill:#FCB3A6;}
	.st25{fill:#B34949;}
	.st26{fill:#370102;}
	.st27{fill:#F2A39A;}
	.st28{fill:#E2E2E2;}
	.st29{fill:#3A807D;}
</style>
<g>
	<g>
		<path class="st0" d="M35.8,62.8c0.2,3-0.9,7.2-0.9,7.2l-1.6-2.2l1.5-5.6L35.8,62.8z"/>
		<path class="st1" d="M17.6,113.8l0.1,1.7l0.8,0.4l0.9-0.4c-0.3-1,0-1.8,0-1.8L17.6,113.8z"/>
		<path class="st1" d="M23.2,111.3c-0.1,0.4-0.3,1.5-0.3,1.5l1.4,1.1l1.6-0.9c-1.3-0.3-1-1.2-1-1.2L23.2,111.3z"/>
		<path class="st2" d="M17.2,113.6c1.2,1.5,2.9,0.2,2.9,0.2l0.7-10.9c0,0,0.5-9.4,0.6-9.5c0.2-0.2,1,7.9,1,7.9l0.5,10.1
			c1.2,1,2.5,0.4,2.5,0.4l0.3-10.4c0.1-5.9,0.5-13.7-0.1-15.2L22,88.5l-4.3-0.2c0,0-0.1,0.6-0.5,2.6c-0.2,0.8,0,3.1,0,3.1l0.5,8.3
			L17.2,113.6z"/>
		<path class="st3" d="M27.7,114.2c0.3,0.6-0.5,0.8-0.5,0.8c-0.4,0.2-1.1,0-1.6-0.1c-0.2-0.1-0.4-0.2-0.6-0.3
			c-0.2-0.1-0.3-0.2-0.5-0.2s-0.3-0.1-0.5-0.1c-0.1,0-0.1,0-0.2,0c-0.2-0.1-0.3-0.1-0.5-0.1c-0.1,0-0.1,0-0.2,0
			c-0.1,0-0.2-0.1-0.2-0.2c0-0.5,0-1,0-1c0.4,0.4,0.8,0.4,0.8,0.4l0.7,0.5v-0.7c0.3-0.5,0.7-0.3,0.7-0.3
			C27.1,113.8,27.7,114.3,27.7,114.2z"/>
		<path class="st4" d="M27.7,114c0.3,0.6-0.5,0.8-0.5,0.8c-0.4,0.2-1.1,0-1.6-0.1c-0.2-0.1-0.4-0.2-0.6-0.3
			c-0.2-0.1-0.4-0.1-0.6-0.2c-0.2-0.1-0.5-0.2-0.7-0.2c-0.2-0.1-0.4-0.1-0.6-0.1h-0.2c-0.1-0.5,0-1.4,0-1.4c0.5,0.4,1,0.3,1,0.3h0.4
			c0.3-0.5,0.8-0.3,0.8-0.3C27.1,113.3,27.7,114,27.7,114z"/>
		<path class="st3" d="M18.3,115.7c-0.3-0.1-0.5-0.7-0.5-0.7v0.7c0,0.2,0,0.4,0.1,0.5c0.2,0.4,0.3,1.1,0.3,1.1
			c0.4,2.3,1.9,1.8,1.9,1.8c0.9-0.3,0.4-1.4,0.4-1.4c-0.7-0.6-1-2.2-1-2.2C18.6,115,18.1,115.8,18.3,115.7z"/>
		<path class="st4" d="M18.2,115.3c-0.3-0.1-0.5-0.7-0.5-0.7v1c0.4,0.4,0.5,1.3,0.5,1.3c0.4,2.3,1.9,1.8,1.9,1.8
			c0.6-0.2,0.6-0.7,0.5-1.1c0-0.2-0.1-0.4-0.2-0.5c-0.7-0.7-0.9-2.1-0.9-2.1C18.6,114.5,18.1,115.3,18.2,115.3z"/>
		<path class="st5" d="M26.1,74.3c2.3-0.4,5.9-2.9,8.3-3.9c0.5-1.4-1.7-2.9-2.1-2L28,69.8c-3.8,1-3.7,1.8-3.7,1.8L26.1,74.3z"/>
		<g>
			<path class="st6" d="M17.5,87.6c4.5,0.8,8.2-0.6,8.2-0.6l0,0c-0.1-4.5,1.2-16.1,1.2-16.1c0-1.3-2.3-0.3-2.3-0.3
				c-1.9,0.3-6.9,4.1-6.9,4.1C16.6,77.1,17.3,85.2,17.5,87.6z"/>
			<path d="M17.6,87.6c0.1,0.4,0.1,0.7,0.1,0.7c5.5,0.8,8.2-0.5,8.2-0.5c-0.1-0.3-0.1-0.5-0.1-0.8l0,0C25.8,87,22,88.4,17.6,87.6z"
				/>
		</g>
		<path class="st7" d="M20.9,70.5L21,73c0.6,1.1,2.1,0.6,2.1,0.6l0.3-1.2L20.9,70.5z"/>
		<polygon class="st5" points="20.3,72.8 22.2,75.1 22.9,73.7 20.9,71.6 		"/>
		<polygon class="st5" points="23.7,74.6 24.3,72.4 23.5,72.1 22.9,73.7 		"/>
		<path class="st8" d="M20.8,66.3c-1.8,0.2-1.2,3-1.2,3c0.5,2,1.2,1.3,1.2,1.3l1,1.1c1.8,1.5,2.8,0.4,2.8,0.4
			c1.4-0.7,0.6-3.3,0.6-3.3c0.2-0.9-0.7-2.1-0.7-2.1L20.8,66.3z"/>
		<path class="st9" d="M20.7,65.7c-2,0.6-1,3.6-1,3.6c0.2,0.5,0.6-0.2,0.6-0.2c0.5,0,0.6,1.2,0.6,1.2h0.3c-0.2-0.5,0.2-0.9,0.2-0.9
			c0.4-0.3,0.2-1.6,0.2-1.6c0-0.7,0.9-0.7,0.9-0.7c0.8,0.4,1.8,0,1.8,0c0.5-0.1,0.1-0.8,0.1-0.8C22.6,64.6,20.7,65.7,20.7,65.7z"/>
		<polygon class="st10" points="22.4,74.8 22.8,75.6 23.4,75.5 23.5,74.4 22.9,73.7 		"/>
		<polygon class="st10" points="22.8,75.6 22.1,80.1 22.7,85.3 23.9,80.1 23.4,75.5 		"/>
		<path class="st11" d="M34.9,70c0,0.5-1.3,0.9-1.3,0.9c0-0.7-1.6-2.3-1.6-2.3c0.4-0.7,1.3-0.8,1.3-0.8C34.6,68.5,34.9,70,34.9,70z"
			/>
		<g>
			<path class="st0" d="M30.6,84.7c0,0-0.1,0.6-0.7,0.3h-0.5l0.7,0.2c0,0-0.1,0.4-0.6,0.2h-0.6h-1.1l-1-0.2l0.1-1.1l1.2-0.2l1.5-0.5
				l1.3,0.4c0,0-0.1,0.4-0.6,0.3l0.5,0.2c0,0,0,0.3-0.4,0.3L30.6,84.7z"/>
			<path class="st0" d="M26.9,85.1C24,85.2,22,85,20.4,84.4l2.1-1.3l4.9,0.9L26.9,85.1z"/>
			<path class="st5" d="M16.4,79.4c1.1,2.4,1.9,3.5,3.6,4.8l1.6-1.9c0,0-1.2-1-1.9-3.3c-0.8-2.3-2.1-4.3-2.1-4.3
				C15.9,76.7,16.4,79.4,16.4,79.4z"/>
			<path class="st11" d="M20.5,84.7c-0.6,0-1.4-0.9-1.4-0.9c0.8,0,2.3-1.7,2.3-1.7c0.8,0.3,1.1,1,1.1,1C21.8,84,20.5,84.7,20.5,84.7
				z"/>
		</g>
		<path class="st0" d="M35.2,62.6l0.2,0.1l0.1-0.5l0.6-0.8c0,0,1.1-0.1,1.1-0.6s-1.4,0.1-1.4,0.1l-1,1.3L35.2,62.6z"/>
	</g>
	<g>
		<g>
			<polygon class="st12" points="176.2,17.7 2.3,122.8 30.6,134.8 203,28.7 			"/>
			<path class="st13" d="M32.6,121.5c0-1.1-1-1.9-2.1-1.9l0,0c-1.2,0-2.1,0.8-2.1,1.9v10.8c0,1,1,1.9,2.1,1.9l0,0
				c1.2,0,2.1-0.9,2.1-1.9V121.5z"/>
			<path class="st13" d="M6.5,110.7c0-1.1-1-1.9-2.1-1.9l0,0c-1.2,0-2.1,0.8-2.1,1.9v10.8c0,1,1,1.9,2.1,1.9l0,0
				c1.2,0,2.1-0.9,2.1-1.9V110.7z"/>
			<path class="st13" d="M200.6,18c0-1-1-1.9-2.1-1.9l0,0c-1.2,0-2.1,0.9-2.1,1.9v10.8c0,1,1,1.9,2.1,1.9l0,0c1.2,0,2.1-0.9,2.1-1.9
				V18z"/>
			<g>
				<g>
					<polygon class="st3" points="202.8,10.6 175.8,-0.2 0,103.6 27,116.2 					"/>
					<polyline class="st14" points="26.6,115.4 26.6,130.1 0,117.9 0,103.6 					"/>
					<polygon class="st15" points="202.8,10.6 202.8,23.1 26.6,130.2 26.6,115.4 					"/>
				</g>
				<g>
					<path class="st16" d="M38.5,114.2c2,1.5,1.8,4.8-0.4,7.2c-2.2,2.5-5.7,3.2-7.7,1.7c-2-1.5-1.8-4.8,0.4-7.2
						C33.1,113.5,36.5,112.7,38.5,114.2z"/>
					<path class="st17" d="M37,116.7c1,0.8,0.9,2.6-0.4,4c-1.2,1.4-3.1,1.8-4.2,1c-1-0.8-0.9-2.6,0.4-4S36,115.9,37,116.7z"/>
				</g>
				<g>
					<path class="st16" d="M56.6,103.2c2,1.5,1.8,4.8-0.4,7.2c-2.2,2.5-5.7,3.2-7.7,1.7c-2-1.5-1.8-4.8,0.4-7.2
						S54.6,101.7,56.6,103.2z"/>
					<path class="st17" d="M55.1,105.7c1,0.8,0.9,2.6-0.4,4c-1.2,1.4-3.1,1.8-4.2,1c-1-0.8-0.9-2.6,0.4-4
						C52.2,105.4,54.1,104.9,55.1,105.7z"/>
				</g>
				<g>
					<path class="st16" d="M74.6,92.3c2,1.5,1.8,4.8-0.4,7.2c-2.2,2.5-5.7,3.2-7.7,1.7s-1.8-4.8,0.4-7.2
						C69.2,91.5,72.6,90.8,74.6,92.3z"/>
					<path class="st17" d="M73.2,94.8c1,0.8,0.9,2.6-0.4,4c-1.2,1.4-3.1,1.8-4.2,1c-1-0.8-0.9-2.6,0.4-4
						C70.2,94.4,72.1,93.9,73.2,94.8z"/>
				</g>
				<g>
					<path class="st16" d="M92.7,81.3c2,1.5,1.8,4.8-0.4,7.2c-2.2,2.5-5.7,3.2-7.7,1.7c-2-1.5-1.8-4.8,0.4-7.2
						C87.2,80.6,90.7,79.8,92.7,81.3z"/>
					<path class="st17" d="M91.2,83.8c1,0.8,0.9,2.6-0.4,4c-1.2,1.4-3.1,1.8-4.2,1c-1-0.8-0.9-2.6,0.4-4
						C88.3,83.4,90.2,83,91.2,83.8z"/>
				</g>
				<g>
					<path class="st16" d="M110.6,70.3c2,1.5,1.8,4.8-0.4,7.2c-2.2,2.5-5.7,3.2-7.7,1.7c-2-1.5-1.8-4.8,0.4-7.2
						C105.2,69.6,108.6,68.9,110.6,70.3z"/>
					<path class="st17" d="M109.2,72.8c1,0.8,0.9,2.6-0.4,4c-1.2,1.4-3.1,1.8-4.2,1c-1-0.8-0.9-2.6,0.4-4
						C106.2,72.5,108.1,72,109.2,72.8z"/>
				</g>
				<g>
					<path class="st16" d="M128.7,59.4c2,1.5,1.8,4.8-0.4,7.2c-2.2,2.5-5.7,3.2-7.7,1.7c-2-1.5-1.8-4.8,0.4-7.2
						C123.2,58.6,126.7,57.9,128.7,59.4z"/>
					<path class="st17" d="M127.2,61.9c1,0.8,0.9,2.6-0.4,4c-1.2,1.4-3.1,1.8-4.2,1c-1-0.8-0.9-2.6,0.4-4S126.2,61,127.2,61.9z"/>
				</g>
				<g>
					<path class="st16" d="M146.7,48.4c2,1.5,1.8,4.8-0.4,7.2c-2.2,2.5-5.7,3.2-7.7,1.7c-2-1.5-1.8-4.8,0.4-7.2
						C141.3,47.7,144.7,46.9,146.7,48.4z"/>
					<path class="st17" d="M145.3,50.9c1,0.8,0.9,2.6-0.4,4c-1.2,1.4-3.1,1.8-4.2,1c-1-0.8-0.9-2.6,0.4-4
						C142.3,50.5,144.2,50.1,145.3,50.9z"/>
				</g>
				<g>
					<path class="st16" d="M164.8,37.4c2,1.5,1.8,4.8-0.4,7.2c-2.2,2.5-5.7,3.2-7.7,1.7c-2-1.5-1.8-4.8,0.4-7.2
						C159.3,36.7,162.8,36,164.8,37.4z"/>
					<path class="st17" d="M163.3,40c1,0.8,0.9,2.6-0.4,4c-1.2,1.4-3.1,1.8-4.2,1c-1-0.8-0.9-2.6,0.4-4
						C160.4,39.6,162.3,39.1,163.3,40z"/>
				</g>
				<g>
					<path class="st16" d="M182.8,26.5c2,1.5,1.8,4.8-0.4,7.2c-2.2,2.5-5.7,3.2-7.7,1.7c-2-1.5-1.8-4.8,0.4-7.2
						C177.4,25.7,180.8,25,182.8,26.5z"/>
					<path class="st17" d="M181.4,29c1,0.8,0.9,2.6-0.4,4c-1.2,1.4-3.1,1.8-4.2,1c-1-0.8-0.9-2.6,0.4-4
						C178.4,28.6,180.3,28.1,181.4,29z"/>
				</g>
				<g>
					<path class="st16" d="M200.9,15.6c2,1.5,1.8,4.8-0.4,7.2c-2.2,2.5-5.7,3.2-7.7,1.7c-2-1.5-1.8-4.8,0.4-7.2
						C195.4,14.9,198.9,14.1,200.9,15.6z"/>
					<path class="st17" d="M199.4,18.1c1,0.8,0.9,2.6-0.4,4c-1.2,1.4-3.1,1.8-4.2,1c-1-0.8-0.9-2.6,0.4-4
						C196.5,17.7,198.4,17.3,199.4,18.1z"/>
				</g>
				<line class="st18" x1="33.2" y1="111.3" x2="6.8" y2="99.8"/>
				<line class="st18" x1="40.2" y1="106.9" x2="13.9" y2="95.4"/>
				<line class="st18" x1="47.6" y1="102.6" x2="20.9" y2="90.9"/>
				<line class="st18" x1="54.9" y1="98.4" x2="28" y2="86.5"/>
				<line class="st18" x1="62.8" y1="94.2" x2="35.9" y2="82.4"/>
				<line class="st18" x1="69.8" y1="89.8" x2="43" y2="77.9"/>
				<line class="st18" x1="76.9" y1="85.4" x2="50" y2="73.5"/>
				<line class="st18" x1="84" y1="80.9" x2="57.1" y2="69.1"/>
				<line class="st18" x1="91" y1="76.5" x2="64.2" y2="64.6"/>
				<line class="st18" x1="98.4" y1="72.7" x2="71.6" y2="60.8"/>
				<line class="st18" x1="105.7" y1="68.9" x2="79" y2="57"/>
				<line class="st18" x1="112.8" y1="64.3" x2="86" y2="52.4"/>
				<line class="st18" x1="119.8" y1="59.7" x2="93.1" y2="47.8"/>
				<line class="st18" x1="126.9" y1="55.1" x2="100.8" y2="43.7"/>
				<line class="st18" x1="134.7" y1="51" x2="108.1" y2="39.3"/>
				<line class="st18" x1="142.1" y1="46.7" x2="115.2" y2="34.7"/>
				<line class="st18" x1="149.3" y1="42.6" x2="122.9" y2="30.7"/>
				<line class="st18" x1="156.7" y1="37.9" x2="130.4" y2="26"/>
				<line class="st18" x1="164.1" y1="33.1" x2="137.8" y2="21.3"/>
				<line class="st18" x1="172.9" y1="28.8" x2="146.5" y2="17.1"/>
				<line class="st18" x1="180.6" y1="24.3" x2="154.3" y2="12.5"/>
				<line class="st18" x1="188" y1="19.6" x2="161.7" y2="7.7"/>
				<line class="st18" x1="195.6" y1="14.9" x2="169.3" y2="3"/>
			</g>
		</g>
	</g>
	<g>
		<polygon class="st19" points="37.3,80.6 26.3,86.5 37.3,92.3 48.3,86.5 		"/>
		<polygon class="st20" points="30.6,88.7 41.5,82.9 43.9,84.1 33,90 		"/>
		<polygon class="st21" points="48.3,86.5 37.3,92.3 37.3,104 48.3,98.2 		"/>
		<polygon class="st22" points="26.3,86.5 37.3,92.3 37.3,104 26.3,98.2 		"/>
		<polygon class="st23" points="33,94.5 30.6,93.2 30.6,88.7 33,90 		"/>
	</g>
	<g>
		<polygon class="st19" points="79.9,56.7 68.9,62.5 79.9,68.4 90.8,62.5 		"/>
		<polygon class="st20" points="73.1,64.8 84.1,58.9 86.5,60.2 75.5,66.1 		"/>
		<polygon class="st21" points="90.8,62.5 79.9,68.4 79.9,80.1 90.8,74.2 		"/>
		<polygon class="st22" points="68.9,62.5 79.9,68.4 79.9,80.1 68.9,74.2 		"/>
		<polygon class="st23" points="75.6,70.6 73.1,69.3 73.1,64.8 75.6,66.1 		"/>
	</g>
	<g>
		<polygon class="st19" points="119.1,32.2 108.1,38.1 119.1,43.9 130.1,38.1 		"/>
		<polygon class="st20" points="112.4,40.4 123.3,34.5 125.7,35.8 114.8,41.6 		"/>
		<polygon class="st21" points="130.1,38.1 119.1,43.9 119.1,55.6 130.1,49.8 		"/>
		<polygon class="st22" points="108.1,38.1 119.1,43.9 119.1,55.6 108.1,49.8 		"/>
		<polygon class="st23" points="114.8,46.1 112.4,44.8 112.4,40.4 114.8,41.7 		"/>
	</g>
	<g>
		<polygon class="st19" points="163.2,4.3 152.2,10.1 163.2,16 174.2,10.1 		"/>
		<polygon class="st20" points="156.5,12.4 167.4,6.5 169.8,7.8 158.9,13.7 		"/>
		<polygon class="st21" points="174.2,10.1 163.2,16 163.2,27.6 174.2,21.8 		"/>
		<polygon class="st22" points="152.2,10.1 163.2,16 163.2,27.6 152.2,21.8 		"/>
		<polygon class="st23" points="158.9,18.2 156.5,16.9 156.5,12.4 158.9,13.7 		"/>
	</g>
	<g>
		<polygon class="st24" points="170.5,22.4 169,26 170,27.5 172,23.8 		"/>
		<path class="st25" d="M179.5,30.6c0,0-2.2,2.1-4.1,2.2c-1.9,0.1-2.5-0.9-2.5-0.9l-0.4-8.6l-0.8,1.7c-0.8-0.1-2-1.3-2-1.3
			c0.3-1,1.3-2.9,1.5-3.1l0.1-0.1l5.3-4.5c3.3-2.2,3.2,2.8,3.2,2.8L179.5,30.6z"/>
		<path class="st24" d="M173.9,18.4l-0.8-1.9l2.1-1.3l0.9,1.2C176.1,17.8,173.9,18.4,173.9,18.4z"/>
		<g>
			<path class="st24" d="M171.7,16.6L171.7,16.6c0.3,0.4,0.8,0.3,1.2,0c0.5-0.3,0.8,1.3,0.8,1.3l2.3-1.6c-0.3-1,0.3-2.2,0.3-2.2
				c0.3-2.6-1.6-3.5-1.6-3.5c-2.9-1-3.9,1.6-3.9,1.6c-0.2,0.3-0.3,0.6-0.2,0.9C170.6,14.5,170.7,15.6,171.7,16.6z"/>
			<path class="st26" d="M172.6,14.8c-0.8-0.2-1.9-1.7-1.9-1.7c-0.5-0.1-1-1.3,0.5-2.6c2.2-1.8,4.1-0.4,4.1-0.4c2.6,1.8,0.9,5,0.9,5
				c-1.7,2.1-3.2,1-3.2,1l0.1-1L172.6,14.8z"/>
			<path class="st24" d="M172.6,13.9c0.3,0,0.6,0.3,0.7,0.8c0.1,0.5,0,1-0.3,1s-0.6-0.3-0.7-0.8C172.2,14.4,172.3,13.9,172.6,13.9z"
				/>
		</g>
		<path class="st24" d="M169.1,25.9l-3.5-2.9l-0.8,0.7c0,0,2.6,2.8,3.5,4s1.7-0.3,1.7-0.3L169.1,25.9z"/>
		<path class="st24" d="M163.3,21.6c0,0-0.2,0.4,0.3,0.6l0.3,0.3l-0.5-0.3c0,0-0.2,0.3,0.2,0.5L164,23l0.6,0.7l0.7,0.5l0.6-0.7
			l-0.6-0.8l-0.6-1.2l-1-0.6c0,0-0.2,0.3,0.1,0.5l-0.4-0.2c0,0-0.1,0.3,0.1,0.5L163.3,21.6z"/>
		<path class="st27" d="M176.6,52.9l-0.1,2.4l0.4,0.5l1.1,0.4l0.5-0.8c-0.2-0.8-0.1-2.1-0.4-2.8L176.6,52.9z"/>
		<path class="st3" d="M176.5,54.8c-0.1,0.5,0.4,1,0.4,1c0.3,0.3,0.8,0.2,0.8,0.2c0.6-0.2,0.9-0.3,0.9-0.3c0.3,0.3,0.3,1.3,0.3,1.3
			c0,0.6-0.8,0.6-0.8,0.6c-0.4,0-0.9-0.5-1.1-0.7c0-0.1-0.1-0.1-0.1-0.2c-0.3-0.5-1.1-1-1.4-1.2c-0.1,0-0.2-0.1-0.3-0.2
			c-0.6-0.8,0-1.2,0-1.2c0.7-0.4,1.3,0,1.3,0L176.5,54.8z"/>
		<path class="st28" d="M176.7,54.7c-0.1,0.4,0.2,0.9,0.2,0.9c0.3,0.3,0.8,0.2,0.8,0.2c0.6-0.2,0.9-0.3,0.9-0.3
			c0.3,0.3,0.3,1.3,0.3,1.3c0,0.6-0.8,0.6-0.8,0.6c-0.4,0-0.9-0.5-1.1-0.7c0-0.1-0.1-0.1-0.1-0.2c-0.3-0.5-1.1-1-1.4-1.2
			c-0.1,0-0.2-0.1-0.3-0.2c-0.6-0.8,0-1.2,0-1.2c0.7-0.4,1.3,0,1.3,0L176.7,54.7z"/>
		<path class="st27" d="M171.7,55.5l0.6,0.7l1.2,0.3l1-0.4v-0.7l-0.2-0.5c-0.1-0.2-0.1-1-0.1-1l-1.5,0.3c0.1,0.5-0.5,0.6-0.5,0.6
			L171.7,55.5z"/>
		<path class="st3" d="M170.3,55.2c-0.9,0-0.9,0.9-0.9,0.9c-0.1,0.9,1.5,1.1,1.5,1.1c4.1,0.8,3.9,0,3.9,0c0.1-0.9-0.2-1.5-0.2-1.5
			c-0.1,0.6-0.9,0.7-0.9,0.7c-0.8,0.2-1.5-0.7-1.5-0.7V55L170.3,55.2z"/>
		<path class="st28" d="M170.2,54.9c-0.9,0-0.9,0.9-0.9,0.9c-0.1,0.9,1.5,1.1,1.5,1.1c4.1,0.8,3.9,0,3.9,0c0.1-0.8-0.2-1.6-0.2-1.6
			c-0.1,0.5-0.9,0.5-0.9,0.5c-0.8,0.1-1.3-0.3-1.3-0.3c0.2-0.2,0.2-0.5,0-0.7L170.2,54.9z"/>
		<path class="st29" d="M179.9,34.5l-1.1,9.8l0.4,9.3c-0.7,1-2.8,0.6-3,0.7c-0.1-3.5-0.1-11.4,0-16.7l-0.1-2.2l-0.5,1.9
			c-0.3,2.5-0.7,5.3-0.8,7.9c-0.2,3.6,0.1,7.4,0.2,9.2c-1.1,0.3-1.9,0.2-3.1,0l0.4-18.7c0-1.7,0.6-3.1,0.6-3.1v-0.8
			c1.4,0.3,3.2-0.1,4.5-0.5c1.2-0.4,2.1-0.8,2.1-0.8v0.8C179.9,33,179.8,34.4,179.9,34.5z"/>
	</g>
</g>
</svg>
