<?xml version="1.0" encoding="utf-8"?>
<!-- Generator: Adobe Illustrator 22.0.0, SVG Export Plug-In . SVG Version: 6.00 Build 0)  -->
<svg version="1.1" id="图层_1" xmlns="http://www.w3.org/2000/svg" xmlns:xlink="http://www.w3.org/1999/xlink" x="0px" y="0px"
	 viewBox="0 0 222 131" style="enable-background:new 0 0 222 131;" xml:space="preserve">
<style type="text/css">
	.st0{opacity:0.5;fill:url(#SVGID_1_);enable-background:new    ;}
	.st1{fill:#DCDCDC;}
</style>
<linearGradient id="SVGID_1_" gradientUnits="userSpaceOnUse" x1="1841.1057" y1="162.85" x2="2054.8057" y2="162.85" gradientTransform="matrix(-1 0 0 -1 2062.4058 224.6)">
	<stop  offset="0" style="stop-color:#412DC3"/>
	<stop  offset="0.9753" style="stop-color:#AED0DB"/>
</linearGradient>
<polygon class="st0" points="221.3,22.2 183.1,0 7.6,101.3 45.8,123.5 "/>
<g>
	<g>
		<g>
			<polygon class="st1" points="9.5,120.1 12.8,122 11.2,123 2.7,118.1 4.4,117.1 7.7,119.1 10.5,117.5 7.8,115.9 9.4,114.9 
				12.2,116.5 14.4,115.2 16.2,116.2 13.9,117.5 16.7,119.1 15.1,120.1 12.3,118.5 			"/>
		</g>
		<g>
			<path class="st1" d="M19.8,117.9l-7.1-4.1c-1.5,0.3-3.1,0.5-4.7,0.7l-6.3,3.7l-1.7-1l4.4-2.6c-0.6,0-1.2,0-1.8,0
				c0.5-0.6,0.9-1.1,1.2-1.5c2.4,0.1,4.7-0.1,6.8-0.4l-2.7-1.6l1.6-1l3.5,2c0.6-0.2,1.3-0.3,1.9-0.5l1.8,1.2
				c-0.5,0.2-1.1,0.4-1.7,0.5l6.4,3.7L19.8,117.9z"/>
		</g>
		<g>
			<path class="st1" d="M21.3,127.4l4.1,2.3c-0.6,0.2-1.3,0.4-2,0.7l-5.2-3c-1.4-0.8-2.3-1.5-2.7-2.1s-0.7-1.1-0.7-1.4
				c-1.1,0.1-2.2,0.1-3.3,0.1c0.4-0.4,0.8-0.8,1.2-1.3c0.7,0,1.5,0,2.2-0.1c0.2-0.6,0.7-1.3,1.3-2L18,121c-0.3,0.4-0.6,0.8-0.8,1.1
				c0.7-0.2,1.5-0.4,2.2-0.8l-1.9-1.1l1.6-0.9l3.5-0.4l-1.7-1l1.5-0.9l3.6,2.1l-1.4,0.8l-3.9,0.4l1.7,1l-1.5,0.9
				c-1.4,0.6-2.7,1-4.1,1.3c0,0.8,1,1.8,2.8,2.9l0.8-0.5l-2.8-1.6l1.1-0.7l2.8,1.6l0.7-0.4l-2.4-1.4l1.1-0.7l2.4,1.4l0.7-0.4
				l-2.2-1.3l1.1-0.6l2.2,1.3l0.7-0.4l-2.8-1.6l1.3-0.7l2.8,1.6l0.7-0.4l-2.2-1.3l1.2-0.7l2.2,1.3l1-0.6l1.6,0.9l-1,0.6l3.2,1.8
				l-1.9,1.1l0.8,0.4l-1.3,0.7l-0.8-0.4l-1.8,1l-3.2-1.8l-0.7,0.4l3.2,1.8l-1.1,0.7l-3.2-1.8l-0.7,0.4l3.6,2.1l-1.1,0.7l-3.6-2.1
				L21.3,127.4z M27.5,123.8l-0.7,0.4l1.7,1l0.7-0.4L27.5,123.8 M29.5,122.6l-0.7,0.4l1.7,1l0.7-0.4L29.5,122.6"/>
		</g>
	</g>
</g>
</svg>
