<?xml version="1.0" encoding="utf-8"?>
<!-- Generator: Adobe Illustrator 22.0.0, SVG Export Plug-In . SVG Version: 6.00 Build 0)  -->
<svg version="1.1" id="图层_1" xmlns="http://www.w3.org/2000/svg" xmlns:xlink="http://www.w3.org/1999/xlink" x="0px" y="0px"
	 viewBox="0 0 121.7 148.5" style="enable-background:new 0 0 121.7 148.5;" xml:space="preserve">
<style type="text/css">
	.st0{enable-background:new    ;}
	.st1{fill:#BAA794;}
	.st2{fill:#D1BCA5;}
	.st3{fill:#EADCC2;}
	.st4{fill:#263F5E;}
</style>
<g>
	<g class="st0">
		<g>
			<polygon class="st1" points="5.8,148 0.2,144.7 0,67 5.6,70.3 			"/>
		</g>
		<g>
			<polygon class="st2" points="5.6,70.3 0,67 116,0 121.6,3.3 			"/>
		</g>
		<g>
			<polygon class="st3" points="121.6,3.3 121.9,81 5.8,148 5.6,70.3 			"/>
		</g>
	</g>
</g>
<g>
	<g>
		<g>
			<path class="st4" d="M32.6,96.1c0,0.8,0,1.5-0.1,2.3c1.4,0.9,2.7,1.9,3.9,2.9l-1.9,3.2c-0.7-0.8-1.6-1.7-2.7-2.7
				c-0.8,2.4-2,4.9-3.8,7.3c-0.4-0.5-0.9-1-1.6-1.6c2.7-3.8,4.1-7.2,4.1-10.3v-8.1l2.1-1.2V96.1z"/>
		</g>
		<g>
			<polygon class="st4" points="29.5,88.6 29.5,100.7 27.2,102 27.2,87.2 35.8,82.2 35.9,96.8 33.6,98.1 33.5,86.2 			"/>
		</g>
		<g>
			<path class="st4" d="M44.7,80.5l2.1-1.2v2.9l-2.1,1.2v12.2c0,1-0.2,1.9-0.5,2.7c-0.4,0.8-0.8,1.4-1.3,1.9s-1.9,1.3-4,2.6
				c-0.2-1.2-0.4-2.2-0.6-2.9c0.6-0.3,1.4-0.7,2.3-1.2c1-0.5,1.4-1.4,1.4-2.7v-7.2c-1.3,3.7-3,7.3-5,10.8c-0.6-0.4-1.3-0.7-2.1-1
				c2.6-4.1,4.7-8.5,6.3-13.1l-4.8,2.7v-2.9l5.6-3.2v-4.4l2.7-1.6L44.7,80.5z"/>
		</g>
		<g>
			<path class="st4" d="M61.4,74.8c2-0.6,4.1-1.6,6.5-2.9c-0.4,1.4-0.8,2.7-1.1,3.8c-3.5,1.6-6.5,2.7-9.1,3
				c-2.7,2.6-5.7,5.2-9.1,7.8c-0.3-0.7-0.7-1.4-1.1-2.3c2.6-1.8,4.9-3.5,7-5.3c-1-0.1-1.8-0.4-2.6-0.7c-0.8,1.2-1.7,2.4-2.6,3.6
				c-0.5-0.5-1-0.9-1.7-1.4c2.7-3.3,4.6-6.4,5.9-9.3l3.1-1.8c-0.4,0.9-0.8,1.8-1.2,2.7l10.7-6.2v2.6C64.8,70.4,63.3,72.6,61.4,74.8z
				 M54,75.3c1.1,0.3,2.4,0.4,3.9,0.3c1.6-1.6,3-3.3,4.2-4.9L54,75.3"/>
		</g>
		<g>
			<path class="st4" d="M57.9,79.9c-0.1,0.8-0.2,1.6-0.3,2.4l8.7-5L66,82.9c-0.1,0.9-0.3,1.8-0.7,2.6s-0.9,1.5-1.6,2.2
				c-0.7,0.7-2,1.6-4,2.7c-0.7,0.4-1.4,0.8-2.2,1.2c-0.1-0.9-0.4-1.8-0.7-2.8c1.5-0.7,2.8-1.4,4-2.1c0.6-0.3,1-0.7,1.4-1.1
				c0.3-0.4,0.5-0.8,0.6-1.2s0.1-1.2,0.2-2.4l-6,3.5c-1,3.9-3.6,7.7-7.6,11.3c-0.5-0.5-1.2-1.1-1.9-1.6c3.2-2.7,5.2-5.3,6.3-7.8
				l-5.6,3.2v-2.9l6.4-3.7c0.1-0.8,0.2-1.6,0.3-2.4L57.9,79.9z"/>
		</g>
		<g>
			<path class="st4" d="M85.4,70.7c1.1,0.2,2.4,0.2,3.7-0.1c-0.5,1.2-1.1,2.6-1.7,4.2c-1.4,0-2.6-0.3-3.8-0.8c-1,1.7-2.2,3.3-3.5,5
				c-0.3-0.4-0.6-0.9-1.1-1.4v1.9l-2.7,1.6l-0.1-22.4l11.5-6.6c0,1.6-0.1,3-0.1,4.1c-0.1,1.2-0.4,2.2-0.9,3
				c-0.5,0.9-1.3,1.6-2.2,2.1c-0.4,0.2-0.8,0.5-1.3,0.7c-0.6,0.4-1.4,0.8-2.2,1.2c-0.1-0.8-0.3-1.6-0.6-2.6c1.2-0.6,2.2-1.1,2.9-1.5
				c0.5-0.3,0.9-0.6,1.1-1s0.3-0.9,0.3-1.7l-5.9,3.4v5.7l9.1-5.2v2.6C87.5,65.7,86.6,68.2,85.4,70.7z M83.4,70
				c0.8-1.7,1.5-3.4,1.9-5.1l-6.2,3.6v7.7c1-1.1,1.9-2.2,2.6-3.3c-0.9-0.7-1.7-1.7-2.5-2.9l1.8-2.5C81.6,68.6,82.4,69.4,83.4,70"/>
		</g>
		<g>
			<path class="st4" d="M73.7,70.2c0.7-0.6,1.5-1.2,2.1-1.8c-0.1,1.4-0.1,2.5-0.1,3.2l-2.1,1.7v6.2c0,1.1-0.2,2-0.7,2.7
				c-0.5,0.8-1.7,1.7-3.5,2.8c-0.1-0.7-0.4-1.6-0.7-2.8c0.5-0.3,1-0.5,1.4-0.7s0.6-0.4,0.7-0.7c0.1-0.2,0.2-0.6,0.2-1v-4.2l-2.2,1.9
				l-0.3-3.3l2.5-2V68l-2.2,1.3v-3.1l2.2-1.3v-4.2l2.7-1.5v4.2l2-1.2v3.1l-2,1.2V70.2z"/>
		</g>
		<g>
			<path class="st4" d="M92.2,72V61.6l15.6-9V63l-2.8,1.6v-1.3l-10,5.8v1.3L92.2,72z M95,63v3.3l10-5.8v-3.3L95,63"/>
		</g>
		<g>
			<path class="st4" d="M101.7,51.5l8.3-4.8v2.8L89.8,61.2v-2.8l2.4-1.4c-0.6-0.1-1.3-0.2-2-0.2c1.4-2.8,2.4-5.7,3.1-8.6l2.7-0.8
				c-0.2,0.8-0.4,1.5-0.6,2.2l3.3-1.9v-3l3-1.7v3l7.1-4.1v2.8l-7.1,4.1C101.7,48.8,101.7,51.5,101.7,51.5z M98.8,53.3v-2.6l-4.5,2.6
				c-0.5,1.2,0,1.7-0.5,2.8L98.8,53.3"/>
		</g>
	</g>
</g>
</svg>
