<?xml version="1.0" encoding="utf-8"?>
<!-- Generator: Adobe Illustrator 22.0.0, SVG Export Plug-In . SVG Version: 6.00 Build 0)  -->
<svg version="1.1" id="图层_1" xmlns="http://www.w3.org/2000/svg" xmlns:xlink="http://www.w3.org/1999/xlink" x="0px" y="0px"
	 viewBox="0 0 222 131" style="enable-background:new 0 0 222 131;" xml:space="preserve">
<style type="text/css">
	.st0{opacity:0.5;fill:url(#SVGID_1_);enable-background:new    ;}
	.st1{fill:#DCDCDC;}
</style>
<linearGradient id="SVGID_1_" gradientUnits="userSpaceOnUse" x1="1913.8057" y1="357.2461" x2="2127.5056" y2="357.2461" gradientTransform="matrix(-1 0 0 1 2135.8057 -295.4961)">
	<stop  offset="0" style="stop-color:#412DC3"/>
	<stop  offset="0.9753" style="stop-color:#1FDB7A"/>
</linearGradient>
<polygon class="st0" points="222,22.2 183.8,0 8.3,101.3 46.5,123.5 "/>
<g>
	<g>
		<g>
			<path class="st1" d="M18.9,117.3l-2.5,1.4l4.1,2.4l-1.7,1l-4.1-2.4l-2.1,1.2l3.7,2.1l-1.7,1l-3.7-2.1l-2.1,1.2l4.6,2.6l-1.7,1
				L0,119.9l1.7-1l5.3,3l2.1-1.2l-3.7-2.1l1.7-1l3.7,2.1l2.1-1.2l-3-1.7c-1.6,0.3-3.2,0.5-4.8,0.7c0.4-0.5,0.9-1.1,1.3-1.7
				c2-0.2,4.2-0.6,6.7-1.4l1.4,1.3c-0.7,0.2-1.4,0.4-2.1,0.6l2.2,1.3l2.5-1.4L18.9,117.3z"/>
		</g>
		<g>
			<path class="st1" d="M34.9,128l-1.6,0.9l-3.5-2l0.8,1.4l-2.7,0.1l2.9,1.7l-1.6,0.9l-9.1-5.2l-0.3,0.2c-1.8,1.1-4.2,1.8-7,2.2
				c0-0.4,0-0.9,0-1.5c2.2-0.3,4.1-0.9,5.6-1.7l1.6-1l2.4,1.4c0.1-0.4,0.2-1,0.2-1.5l2.1,0.3l-3.3-1.9l1.6-0.9l5,2.9
				c0.2-0.3,0.5-0.6,0.7-0.9l2.3,1l-1,1L34.9,128z M26,127.2c1.2-0.1,2.4-0.2,3.7-0.4l-4.5-2.6l-0.3,2l-1-0.1L26,127.2"/>
		</g>
	</g>
</g>
</svg>
