<?xml version="1.0" encoding="utf-8"?>
<!-- Generator: Adobe Illustrator 22.0.0, SVG Export Plug-In . SVG Version: 6.00 Build 0)  -->
<svg version="1.1" id="图层_1" xmlns="http://www.w3.org/2000/svg" xmlns:xlink="http://www.w3.org/1999/xlink" x="0px" y="0px"
	 viewBox="0 0 222 131" style="enable-background:new 0 0 222 131;" xml:space="preserve">
<style type="text/css">
	.st0{opacity:0.5;fill:url(#SVGID_1_);enable-background:new    ;}
	.st1{fill:#DCDCDC;}
</style>
<linearGradient id="SVGID_1_" gradientUnits="userSpaceOnUse" x1="2355.1057" y1="357.2461" x2="2568.8057" y2="357.2461" gradientTransform="matrix(1 0 0 1 -2355.1057 -295.4961)">
	<stop  offset="0" style="stop-color:#412DC3"/>
	<stop  offset="0.9753" style="stop-color:#1FDB7A"/>
</linearGradient>
<polygon class="st0" points="175.5,123.5 213.7,101.3 38.2,0 0,22.2 "/>
<g>
	<g>
		<g>
			<path class="st1" d="M214.7,124.2l-11.6,6.8l-1.7-1l5.2-3l-2.1-1.2l-3.7,2.1l-1.7-1l3.7-2.1l-2.1-1.2l-3,1.7
				c0.5,0.9,0.9,1.9,1.2,2.8c-1-0.3-2-0.5-3-0.7c-0.3-1.2-1.1-2.4-2.4-3.9l2.3-0.8c0.3,0.4,0.7,0.8,1,1.2l2.2-1.3l-2.5-1.4l1.9-1.1
				l2.5,1.4l4.1-2.4l1.7,1l-4.1,2.4l2.1,1.2l3.6-2.1l1.7,1l-3.6,2.1l2.1,1.2l4.6-2.7L214.7,124.2z"/>
		</g>
		<g>
			<path class="st1" d="M213.3,119.4c1.8,1.1,3.1,2.4,3.8,4.1c-0.6,0-1.5,0-2.6,0c-0.6-1.3-1.6-2.4-3-3.3l-1.7-1l2.4-1.4
				c-0.8,0-1.7-0.1-2.7-0.1l0.5-1.2l-3.3,1.9l-1.6-0.9l4.9-2.9c-0.5-0.1-1-0.3-1.5-0.4l1.7-1.3l1.7,0.6l4.8-2.8l1.6,0.9l-3.4,2
				l2.4-0.5l0.2,1.6l2.9-1.7l1.6,0.9l-9,5.2L213.3,119.4z M213.5,117.2l2.1-1.2c-0.2-0.7-0.4-1.4-0.7-2.2l-4.5,2.6l3.4,0.2
				L213.5,117.2"/>
		</g>
	</g>
</g>
</svg>
