<?xml version="1.0" encoding="utf-8"?>
<!-- Generator: Adobe Illustrator 22.0.0, SVG Export Plug-In . SVG Version: 6.00 Build 0)  -->
<svg version="1.1" id="图层_1" xmlns="http://www.w3.org/2000/svg" xmlns:xlink="http://www.w3.org/1999/xlink" x="0px" y="0px"
	 viewBox="0 0 222 131" style="enable-background:new 0 0 222 131;" xml:space="preserve">
<style type="text/css">
	.st0{opacity:0.5;fill:url(#SVGID_1_);enable-background:new    ;}
	.st1{enable-background:new    ;}
	.st2{fill:#DCDCDC;}
</style>
<linearGradient id="SVGID_1_" gradientUnits="userSpaceOnUse" x1="1913.8057" y1="357.2461" x2="2127.4058" y2="357.2461" gradientTransform="matrix(-1 0 0 1 2135.8057 -295.4961)">
	<stop  offset="0" style="stop-color:#412DC3"/>
	<stop  offset="0.9753" style="stop-color:#B16369"/>
</linearGradient>
<polygon class="st0" points="222,22.2 183.8,0 8.4,101.3 46.6,123.5 "/>
<g>
	<g>
		<g class="st1">
			<g>
				<path class="st2" d="M13.4,115.3l3.4,1.9c0.1-0.2,0.3-0.4,0.4-0.6l2.1,0.9c-0.2,0.3-0.4,0.6-0.7,0.9l3.5,2l-1.2,0.7l-8.8-5.1
					L13.4,115.3z"/>
			</g>
			<g>
				<path class="st2" d="M16.6,122.4l-7-4l2.8-1.6l7,4L16.6,122.4z M13,118.3l-0.6,0.4l3.8,2.2l0.6-0.4L13,118.3"/>
			</g>
		</g>
		<g class="st1">
			<g>
				<path class="st2" d="M5.4,120.5l1.3-0.7l7.6,4.4l-1.3,0.7l-2.6-1.5l-0.9,0.5c-1,0.6-2,0.7-2.9,0.2c-0.4-0.2-0.9-0.5-1.5-0.8
					c-0.2-0.1-0.4-0.3-0.7-0.4c0.3-0.3,0.7-0.6,1.2-1.1c0.4,0.3,0.9,0.6,1.4,0.9l0,0c0.4,0.2,0.8,0.2,1.2-0.1l0.5-0.3L5.4,120.5z"/>
			</g>
			<g>
				<path class="st2" d="M34.6,127.7l-1.6,0.9l-3.5-2l0.8,1.4l-2.7,0.1l2.9,1.7l-1.6,0.9l-9.1-5.2l-0.3,0.2c-1.8,1.1-4.2,1.8-7,2.2
					c0-0.4,0-0.9,0-1.5c2.2-0.3,4.1-0.9,5.6-1.7l1.6-1l2.4,1.4c0.1-0.4,0.1-1,0.2-1.5l2.1,0.3l-3.3-1.9l1.6-0.9l5,2.9
					c0.2-0.3,0.5-0.6,0.7-0.9l2.3,1l-1,1L34.6,127.7z M25.6,126.9c1.2-0.1,2.4-0.2,3.7-0.4l-4.5-2.6l-0.3,2l-1-0.1L25.6,126.9"/>
			</g>
		</g>
		<g>
			<path class="st2" d="M13,113.8l1.2,1.1c-1.2,0.4-2.4,0.7-3.5,1l-9.2,5.3L0,120.3l5.8-3.3c-0.7,0.1-1.5,0.2-2.2,0.3
				c0.6-0.4,1.1-1,1.8-1.6C7.5,115.5,10.1,114.8,13,113.8z"/>
		</g>
		<g>
			<polygon class="st2" points="8,118 17.2,123.3 15.2,124.4 13.6,123.5 14.3,123.1 8.3,119.6 7.6,120 6,119.1 			"/>
		</g>
	</g>
</g>
</svg>
