<?xml version="1.0" encoding="utf-8"?>
<!-- Generator: Adobe Illustrator 22.0.0, SVG Export Plug-In . SVG Version: 6.00 Build 0)  -->
<svg version="1.1" id="图层_1" xmlns="http://www.w3.org/2000/svg" xmlns:xlink="http://www.w3.org/1999/xlink" x="0px" y="0px"
	 viewBox="0 0 121.9 147.8" style="enable-background:new 0 0 121.9 147.8;" xml:space="preserve">
<style type="text/css">
	.st0{enable-background:new    ;}
	.st1{fill:#BAA794;}
	.st2{fill:#D1BCA5;}
	.st3{fill:#FFE3B0;}
	.st4{fill:#263F5E;}
</style>
<g>
	<g class="st0">
		<g>
			<polygon class="st1" points="5.8,147.8 0.2,144.5 0,66.8 5.6,70.1 			"/>
		</g>
		<g>
			<polygon class="st2" points="5.6,70.1 0,66.8 116,-0.2 121.6,3.1 			"/>
		</g>
		<g>
			<polygon class="st3" points="121.6,3.1 121.9,80.8 5.8,147.8 5.6,70.1 			"/>
		</g>
	</g>
</g>
<g>
	<g>
		<g>
			<path class="st4" d="M32.6,95.9c0,0.8,0,1.5-0.1,2.3c1.4,0.9,2.7,1.9,3.9,2.9l-1.9,3.2c-0.7-0.8-1.6-1.7-2.7-2.7
				c-0.8,2.4-2,4.9-3.8,7.3c-0.4-0.5-0.9-1-1.6-1.6c2.7-3.8,4.1-7.2,4.1-10.3v-8.1l2.1-1.2V95.9z"/>
		</g>
		<g>
			<polygon class="st4" points="29.5,88.4 29.5,100.5 27.2,101.8 27.2,87 35.8,82 35.9,96.6 33.6,97.9 33.5,86 			"/>
		</g>
		<g>
			<path class="st4" d="M44.7,80.3l2.1-1.2V82l-2.1,1.2v12.2c0,1-0.2,1.9-0.5,2.7c-0.4,0.8-0.8,1.4-1.3,1.9s-1.9,1.3-4,2.6
				c-0.2-1.2-0.4-2.2-0.6-2.9c0.6-0.3,1.4-0.7,2.3-1.2c1-0.5,1.4-1.4,1.4-2.7v-7.2c-1.3,3.7-3,7.3-5,10.8c-0.6-0.4-1.3-0.7-2.1-1
				c2.6-4.1,4.7-8.5,6.3-13.1L36.4,88v-2.9l5.6-3.2v-4.4l2.7-1.6L44.7,80.3z"/>
		</g>
		<g>
			<path class="st4" d="M61.4,74.6c2-0.6,4.1-1.6,6.5-2.9c-0.4,1.4-0.8,2.7-1.1,3.8c-3.5,1.6-6.5,2.7-9.1,3
				c-2.7,2.6-5.7,5.2-9.1,7.8c-0.3-0.7-0.7-1.4-1.1-2.3c2.6-1.8,4.9-3.5,7-5.3c-1-0.1-1.8-0.4-2.6-0.7c-0.8,1.2-1.7,2.4-2.6,3.6
				c-0.5-0.5-1-0.9-1.7-1.4c2.7-3.3,4.6-6.4,5.9-9.3l3.1-1.8c-0.4,0.9-0.8,1.8-1.2,2.7l10.7-6.2v2.6C64.8,70.2,63.3,72.4,61.4,74.6z
				 M54,75.1c1.1,0.3,2.4,0.4,3.9,0.3c1.6-1.6,3-3.3,4.2-4.9L54,75.1"/>
		</g>
		<g>
			<path class="st4" d="M57.9,79.7c-0.1,0.8-0.2,1.6-0.3,2.4l8.7-5L66,82.7c-0.1,0.9-0.3,1.8-0.7,2.6s-0.9,1.5-1.6,2.2s-2,1.6-4,2.7
				c-0.7,0.4-1.4,0.8-2.2,1.2c-0.1-0.9-0.4-1.8-0.7-2.8c1.5-0.7,2.8-1.4,4-2.1c0.6-0.3,1-0.7,1.4-1.1c0.3-0.4,0.5-0.8,0.6-1.2
				s0.1-1.2,0.2-2.4l-6,3.5c-1,3.9-3.6,7.7-7.6,11.3c-0.5-0.5-1.2-1.1-1.9-1.6c3.2-2.7,5.2-5.3,6.3-7.8l-5.6,3.2v-2.9l6.4-3.7
				c0.1-0.8,0.2-1.6,0.3-2.4L57.9,79.7z"/>
		</g>
		<g>
			<path class="st4" d="M85.4,70.5c1.1,0.2,2.4,0.2,3.7-0.1c-0.5,1.2-1.1,2.6-1.7,4.2c-1.4,0-2.6-0.3-3.8-0.8c-1,1.7-2.2,3.3-3.5,5
				c-0.3-0.4-0.6-0.9-1.1-1.4v1.9l-2.7,1.6l-0.1-22.4l11.5-6.6c0,1.6-0.1,3-0.1,4.1c-0.1,1.2-0.4,2.2-0.9,3
				c-0.5,0.9-1.3,1.6-2.2,2.1c-0.4,0.2-0.8,0.5-1.3,0.7c-0.6,0.4-1.4,0.8-2.2,1.2c-0.1-0.8-0.3-1.6-0.6-2.6c1.2-0.6,2.2-1.1,2.9-1.5
				c0.5-0.3,0.9-0.6,1.1-1s0.3-0.9,0.3-1.7l-5.9,3.4v5.7l9.1-5.2v2.6C87.5,65.5,86.6,68,85.4,70.5z M83.4,69.8
				c0.8-1.7,1.5-3.4,1.9-5.1l-6.2,3.6V76c1-1.1,1.9-2.2,2.6-3.3C80.8,72,80,71,79.2,69.8l1.8-2.5C81.6,68.4,82.4,69.2,83.4,69.8"/>
		</g>
		<g>
			<path class="st4" d="M73.7,70c0.7-0.6,1.5-1.2,2.1-1.8c-0.1,1.4-0.1,2.5-0.1,3.2l-2.1,1.7v6.2c0,1.1-0.2,2-0.7,2.7
				c-0.5,0.8-1.7,1.7-3.5,2.8c-0.1-0.7-0.4-1.6-0.7-2.8c0.5-0.3,1-0.5,1.4-0.7s0.6-0.4,0.7-0.7c0.1-0.2,0.2-0.6,0.2-1v-4.2l-2.2,1.9
				L68.5,74l2.5-2v-4.2l-2.2,1.3V66l2.2-1.3v-4.2l2.7-1.5v4.2l2-1.2v3.1l-2,1.2V70z"/>
		</g>
		<g>
			<path class="st4" d="M92.2,71.8V61.4l15.6-9v10.4l-2.8,1.6v-1.3l-10,5.8v1.3L92.2,71.8z M95,62.8v3.3l10-5.8V57L95,62.8"/>
		</g>
		<g>
			<path class="st4" d="M101.7,51.3l8.3-4.8v2.8L89.8,61v-2.8l2.4-1.4c-0.6-0.1-1.3-0.2-2-0.2c1.4-2.8,2.4-5.7,3.1-8.6l2.7-0.8
				c-0.2,0.8-0.4,1.5-0.6,2.2l3.3-1.9v-3l3-1.7v3l7.1-4.1v2.8l-7.1,4.1C101.7,48.6,101.7,51.3,101.7,51.3z M98.8,53.1v-2.6l-4.5,2.6
				c-0.5,1.2,0,1.7-0.5,2.8L98.8,53.1"/>
		</g>
	</g>
</g>
</svg>
