<?xml version="1.0" encoding="utf-8"?>
<!-- Generator: Adobe Illustrator 22.0.0, SVG Export Plug-In . SVG Version: 6.00 Build 0)  -->
<svg version="1.1" id="图层_1" xmlns="http://www.w3.org/2000/svg" xmlns:xlink="http://www.w3.org/1999/xlink" x="0px" y="0px"
	 viewBox="0 0 60 40" style="enable-background:new 0 0 60 40;" xml:space="preserve">
<style type="text/css">
	.st0{opacity:0.3;fill:#F4D345;enable-background:new    ;}
	.st1{opacity:0.3;fill:#C99F00;enable-background:new    ;}
	.st2{opacity:0.4;fill:#EFE178;enable-background:new    ;}
	.st3{opacity:0.3;fill:#7F4F00;enable-background:new    ;}
	.st4{fill:#F9E150;}
	.st5{fill:#FFFFFF;}
	.st6{fill:#E2C342;}
</style>
<g id="battery_7_">
	<path class="st0" d="M58.2,17.6l-15.4,9L21.2,39.2c-1.8,1-4,1-5.8,0l-14-8.4c-1.6-1-2-6.8-0.4-8l0.1-0.1c-1.2,1-1.1,3.1,0.3,4
		l14,8.4c1.8,1.1,4,1.1,5.8,0l21.7-12.7l15.4-9c1.3-0.7,1.6-2.3,1-3.5C60.1,11.4,60.8,16,58.2,17.6z"/>
	<path class="st1" d="M58.2,13.5l-37,21.7c-1.8,1-4,1-5.8,0l-14-8.4c-1.4-0.9-1.5-2.9-0.3-4l2.3-1.4l11.1-6.5l2.9-1.7L38.5,0.8
		c1.8-1,3.9-1,5.7,0l14,8.2c0.4,0.2,0.7,0.5,0.9,0.9c0,0,0,0.1,0.1,0.1C59.8,11.2,59.5,12.7,58.2,13.5z"/>
	<path class="st2" d="M58.4,13.5l-15.2,8.9L21.4,35.1c-1.8,1.1-4,1-5.8,0l-14-8.4c-1.4-0.9-1.5-2.9-0.3-4c0.1-0.1,0.2-0.2,0.3-0.2
		l1.9-1.1l11.1-6.5l2.9-1.7l5.2-3.1l16-9.4c1.8-1,3.9-1,5.7,0l4,2.3L50,2.2c0.6-0.3,1.4-0.3,2,0l2,1.2c0.2,0.1,0.4,0.3,0.4,0.6v0.3
		c0,0.2-0.2,0.4-0.4,0.6l-1.3,0.8l1.7,1l4,2.3c0.4,0.2,0.7,0.5,0.9,0.9c0,0,0,0.1,0.1,0.1C59.9,11.2,59.6,12.7,58.4,13.5z"/>
	<path class="st3" d="M54.2,4.2v2.4l-1.7-1l1.3-0.8C54.1,4.7,54.2,4.5,54.2,4.2z"/>
	<path class="st4" d="M44.2,21.8l-23,13.3c-1.8,1.1-4,1-5.8,0l-14-8.4c-1.4-0.9-1.5-2.9-0.3-4c0.1-0.1,0.2-0.2,0.3-0.2l1.9-1.1
		l11.1-6.5l2.9-1.7l7.6-4.4L44.2,21.8z"/>
	<path class="st5" d="M42.8,10.4l-19.7,3.8l6.3,3.7L19,21.7c-0.6,0.2-0.4,1.2,0.3,1l20-3.9L32.8,15l10.3-3.6
		C43.7,11.2,43.5,10.3,42.8,10.4z"/>
	<path class="st6" d="M44.2,21.8v4L21.3,39.1c-1.8,1-4,1-5.8,0l-14-8.4c-1.6-1-2-6.8-0.4-8l0.1-0.1c-1.2,1-1.1,3.1,0.3,4l14,8.4
		c1.8,1.1,4,1.1,5.8,0L44.2,21.8z"/>
</g>
</svg>
